<svg id="Layer_1" data-name="Layer 1" xmlns="http://www.w3.org/2000/svg" viewBox="0 0 1830.63 1883.58"><g id="Illustration"><path d="M1295.23,661.34,581,532.34a11.19,11.19,0,0,0-13,9,11.07,11.07,0,0,0-.18,2V999.47a11.19,11.19,0,0,0,9.21,11l235.15,42.46,2.22.4,2.21.4,24.24,4.38,235,42.43,2.21.4,2.22.4,26.78,4.84,184.16,33.25a11.21,11.21,0,0,0,13-9,10.72,10.72,0,0,0,.18-2V672.37A11.21,11.21,0,0,0,1295.23,661.34ZM864.23,899V745.44L989.17,846Z" transform="translate(-0.07 0)" style="fill:#fff"/><path d="M1742.87,1265.68v-.07h0l.07-.1h0l.11-.15a103.83,103.83,0,0,0,6.89-10.47l.13-.21a223.91,223.91,0,0,0,33.56-118.25c0-123.6-99.89-224.16-222.68-224.16a222.06,222.06,0,0,0-40.52,3.72V778.26c21.23,22,48.81,42.5,84.62,58.17a4.47,4.47,0,0,0,2.93.22c13.75-3.72,136.6-41.22,213.24-209.79a4.44,4.44,0,0,0-.1-3.91,4.35,4.35,0,0,0-3.07-2.31c-18.82-3.65-114.72-24.3-154.38-72.33a4.47,4.47,0,0,0-3.67-1.62,4.35,4.35,0,0,0-3.42,2c-7.69,11.5-45.44,60.94-136.2,79.36V589.52a32.34,32.34,0,0,0-26.59-31.82l-1025.52-185a32.36,32.36,0,0,0-21,3.29l-35,18.77V396a30.46,30.46,0,0,0-4.31,3,29.15,29.15,0,0,0-10.48,22.42v299.7a88.65,88.65,0,0,0-10.31,9.25,3.54,3.54,0,0,1-5,.48,4.07,4.07,0,0,1-.42-.41c-4.06-5.12-13.71-16.71-22.25-17.72-24.72-2.94-50,29.08-59,45.56-6.57,12-17.65,39.22-23.24,70.83a3.9,3.9,0,0,1-4.1,3.26c-7.44-.71-22.38-.68-35.64,9.14-23.64,17.49-21.08,43.11-20.8,46.24,3.23,36.5,40.34,63.48,68.47,78.1,15.12,7.86,22.76,10.39,30.87,12.39,3.06,18.69,3,41.36-7.54,62.46-8.91,17.79-24.16,32.4-45.54,43.64-26.67-2.09-49.69-2.38-65.79-.4-57.46,7.09-121.86,66.92-94.69,295.67l.82-.21a57.68,57.68,0,0,1,45.2,7.46l1.93,1.24a585.86,585.86,0,0,0,273,92.85l107.09,8.46h.13a99.44,99.44,0,0,1,71.52,58.17c.33.76.67,1.53,1,2.31s.62,1.57.91,2.37a98.25,98.25,0,0,1,6.17,34.27v203l.48,68.18a2.67,2.67,0,0,1,0,.4,1859.75,1859.75,0,0,0,208.69,25.44c-97.4-102.09-127.8-184.84-135.51-211a4.76,4.76,0,0,1,6.07-5.87l10.79,3.57a20.88,20.88,0,0,0,20-3.8c51.11,23.62,106.92,43.13,151.85,43.13,2.1,0,4.19,0,6.25-.13,58.69-2.49,238.57-162,285.61-204.63,12.43,10.13,31.93,15.77,54.37,15.77a151.52,151.52,0,0,0,38.77-5.25c43.56-11.64,75.29-39.52,78.13-66.22a36.42,36.42,0,0,0,19.76-14.39c3.77-5.39,2-14.66-4.87-24.8-13.36-19.88-55.23-53.71-118.06-39.5-25.59,5.79-35.25,15.49-48.62,28.91-10.84,10.89-24.33,24.43-51.46,40.49-2.46,1.54-246.81,153.2-296.79,104.32a495.34,495.34,0,0,1-40.17-45.12c6-31.89,6-63.81-5.34-91.59-1.82-4.47-7.54-13.88-16.5-26.7L922,1408.32a76.46,76.46,0,0,0,29.41-6.13l120.41-50.7c21.68-9.13,35.35-28.73,35.35-50.12v-77.15l278.68,50.32c40.8,52.34,104.2,86,175.26,86C1636,1360.57,1702.49,1323.05,1742.87,1265.68ZM1714,1293a109.61,109.61,0,0,1-.62-15.26c0-8.57,8.51-13.79,14.06-17.14s14.81-13,15.18-23.1c.3-8.18,15.35-19.43,21.42-20.39A220.54,220.54,0,0,1,1714,1293Zm-103.85-221.81c10.34-4.73,15-11.36,23-14.67s8.46,6.63,14.1,11.36,7.53-5.68,18.81,1.42,25.38.47,23-5.21-10.34-2.84-14.1-11.35,10.81-11.84,12.22-18.93-8.46-16.57-13.16-16.57-.47,16.09-9.87,19.4-18.34-9.46-28.21-7.57-17.39,21.3-28.2,27.45-13.16-12.3-5.17-19.4,6.58-17,6.58-20.83,2.82-10.88,17.39-9.46,15-6.63,15-6.63c3.29-23.19-4.23-21.29-7-19.87s-17.39,38.33-21.62,3.78,13.63-26,13.63-26c25.94,9.2,29.84-10.05,30.28-19.08a220.31,220.31,0,0,1,117,148.79h0c-1.47,5.64-3.86,11.62-7.69,16-7.91,9.14,0,18-4.23,22.71s-7.52,18.93-15.51-21.77c-6.18-31.46-20.22-33.51-26.28-32.82a1.24,1.24,0,0,0-.62,2.22c4.89,3.7,15.48,13.37,8.1,23-9.4,12.31-9.87,21.3-6.11,27s4.7,9.94,2.35,18.45-19.28,18.93-12.23,31.71-9.87,54-22.09,63.42-22.09,27.92-32,32.65-14.11-31.23-3.29-47.32,3.29-28.4,0-32.66-2.82-28.87-2.82-30.76,4.23-19.4-29.62-13.72-30.55-22.72-28.67-33.13-1.88-17.51-1.88-24.14,8.64-12.78,19-17.47ZM1490.25,637.11c10.63-1.15,20.68-2.72,30.16-4.62,93.11-18.66,132-69.59,139.87-81.39,40.63,49.19,137.88,70.16,156.94,73.89-75.8,166.74-196.82,203.69-210.36,207.35-33.82-14.8-62.72-35.13-86.4-60.71a252.89,252.89,0,0,1-30.21-40c-.75-1.23-1.49-2.46-2.22-3.71s-1.49-2.54-2.21-3.83c-.41-.7-.81-1.4-1.2-2.11-21.62-38.87-27.84-73.11-29.23-82.68h0c10.62-.2,20.75-.8,30.41-1.73.74-.07,1.48-.14,2.21-.23S1489.51,637.2,1490.25,637.11ZM456.38,1135.59c-.1,1.08-1.27,3.9-10.17,6.73-51.09,16.28-162.59,30.4-218.82-32.72a4.4,4.4,0,0,1,.36-6.21,4.32,4.32,0,0,1,1.7-.94q23.72-7,41.5-17.41c19.16-11.22,33.07-25.38,41.55-42.33,10.74-21.46,11.11-44.31,8.24-63.34l2,.46a3.68,3.68,0,0,0,2-.11,97.48,97.48,0,0,0,45.62-4.31c20.63-7.16,25.94-33,27.25-48.32.33-3.82.41-7,.41-9.05.59.84,1.19,1.63,1.8,2.38s1.46,1.69,2.21,2.44c.53.54,1.07,1,1.62,1.51h0a32.49,32.49,0,0,0,21.74,7.84,34,34,0,0,0,8.64-1,2.21,2.21,0,1,0-1.26-4.24c-.83.24-17.29,4.84-29-8.73h0c-.59-.68-1.16-1.4-1.72-2.18a33.65,33.65,0,0,1-2.21-3.45,39.89,39.89,0,0,1-2.21-4.5c-.1-.21-.19-.44-.28-.66-3.48-8.54-3.34-15.9.28-20.81a12.85,12.85,0,0,1,2.21-2.33c.13-.12.27-.23.41-.34a14.3,14.3,0,0,1,1.8-1.18,13.74,13.74,0,0,1,2.33-1c6.06-2.15,13.75-.72,20.12,4.06,2.46,1.85,6.38,7.7,7.68,9.8a2.21,2.21,0,1,0,3.76-2.34h0a73.57,73.57,0,0,0-5.51-7.72l71.85-11.28c1.28,9.14,5.51,27.58,19.47,47.41a3.19,3.19,0,0,1-.51,4.27l-15.76,14a7.32,7.32,0,0,0-2.46,5.39c-.12,20-.54,43-1.37,47.77-1.1,6.32-6.25,12.09-8.7,13.41-5,2.72-26.45,1.24-38.78-.33h-.49c-2.38.23-11.4,4.4-27.75,48.66-6.31,17.07-6.15,30.7-3.11,41.3.18.65.38,1.3.59,1.93l-5.71-1a26.1,26.1,0,0,0,4.35,1.17l1.51.27c.28.83.58,1.63.9,2.42a50.25,50.25,0,0,0,6.08,11,51.34,51.34,0,0,0,16.32,14.68C455.74,1131.29,456.48,1134.45,456.38,1135.59Zm-2.56-258.24c24.7-7.64,37.47-16.34,45.15-23.54A68.9,68.9,0,0,1,501.66,869v.88Zm24.4,248c-12.59-4.08-26.37-8-40.89-11.71a45.35,45.35,0,0,1-7.94-11.81L812.21,1171v75.16c0,20.89-13.7,40.25-34.91,49.3l-52.67,22.46C664,1246.53,570,1155.06,478.22,1125.37Zm316.13,379.37a489.91,489.91,0,0,0,38.21,42.61c7.69,7.53,19.41,10.75,33.84,10.75,84,0,259.7-109,268.34-114.44,27.57-16.32,41.28-30.09,52.3-41.15,12.84-12.9,22.12-22.21,46.46-27.72,60.49-13.69,100.64,18.64,113.41,37.65,5.58,8.31,7.51,16.08,4.91,19.8a31.93,31.93,0,0,1-16,12.19c-.72.26-1.44.5-2.18.71s-1.45.42-2.19.59c-7.48,1.84-15.92,2-25,2.24-14.67.33-29.84.68-44.47,7.94l-8.49,4.22c-36.44,18.13-40.25,20-60.36,22.63a42.29,42.29,0,0,0-20.62,8.64l-.13.12c-.25.23-3.13,2.88-8.16,7.44l-1.63,1.47-1.6,1.44c-47,42.44-226.16,200.81-282.47,203.2q-3,.12-6.13.12c-43.86,0-98.39-19-148.59-42.06.31-.41.61-.83.89-1.27,17.59-27.12,55.79-91.54,69.61-157.1ZM1075.88,1287c0,21-13.82,40.42-35.21,49.42l-90,37.89a73,73,0,0,1-28,5.63L749.5,1348.4c-6.21-7.93-13-16.37-20.41-25.16l-1.5-1.81L779,1299.49c22.84-9.75,37.6-30.7,37.6-53.37v-74.34l24.24,4.37,235,42.43Zm31.21-70.62-26.78-4.63-2.22-.39-2.21-.38-235-40.67-24.24-4.19-2.21-.39-2.22-.38-145.63-25.2h-.26L427.47,1097c-3.32-10-3.84-23.4,2.52-40.62,14.47-39.16,22.58-45,24.05-45.72,5.21.64,33.32,3.88,40.92-.23,3.64-2,9.64-9,11-16.55,1.1-6.28,1.38-38.71,1.44-48.5a2.84,2.84,0,0,1,1-2.12l15.76-14a7.65,7.65,0,0,0,1.18-10.12c-.14-.19-.27-.39-.4-.58a19,19,0,0,0,12-7.39c11-14.49,5.12-44.18,4.86-45.43a2.21,2.21,0,0,0-2.51-1.75l-33.12,5.2v-.41a76.86,76.86,0,0,0-3.53-18.52l.49-.54c31.87-35,46.42-70.24,21.1-112.7-10.46-17.54-21.71-32.6-56.09-39.37-16.91-3.33-41.49,4.7-61,16.92l5.18-313.17a24.66,24.66,0,0,1,18.92-4.31l1034.19,186.7a24.77,24.77,0,0,1,20.39,24.4v24.93c-9.67.94-19.83,1.55-30.49,1.75a4.44,4.44,0,0,0-4.37,4.49,5.44,5.44,0,0,0,0,.58c1.78,12.23,9.15,51.16,34.81,93.34V925.4c-116.57,42.71-176.45,171.83-133.74,288.4a225,225,0,0,0,25.41,49.4Zm312-120.28c4.47,9.89,7.71,20.12,7.71,28.66s-1.17,19.22-8.76,14.73-38-47.26-36.7-71.52.89-36.39,14.73-60.66a45.76,45.76,0,0,0,5.77-21.1,218.28,218.28,0,0,1,31.41-27.87,59.43,59.43,0,0,0,32-3.59c11.1-4.47,16.9-7.5,20.58-9.3.83-.41,1.56-.75,2.21-1a14.75,14.75,0,0,1,2.22-.81,8.33,8.33,0,0,1,3.55-.1c5.36.9,10.27,5.4,9.82,9.44-.39,3.48-2.75,8-13.37,9.13-.7.08-1.44.15-2.22.19s-1.44.08-2.21.09h-1.39c-15.62,0-23.21,17.53-19.64,24.27s6.7,6.74,19.19-2.25c.63-.45,1.24-.87,1.84-1.24.76-.48,1.5-.91,2.21-1.27a20.08,20.08,0,0,1,2.22-1c8.52-3.4,13.33,1.05,15.15,4,2.24,3.59-3.12,12.13-5.35,19.32s-.45,13.48-1.79,16.17c-.83,1.68-3.89,3-8,4.74l-2.22.93-2.21,1c-1.31.58-2.68,1.21-4.07,1.91-8,4-14.72,7.64-18.74,16.17s-13.84,11.24-15.62,15.28.19,16.2-4.88,19.31c-4.12,2.53-12.71-1.06-16.28-5.1s-8.92-2.7-10.26,1.34-1.36,10.27,3.1,20.15Zm112.69,107.83c-11.16,5.39-11.16,9.44-9.82,16.17s5.8,14.38,3.57,17.08c-1.21,1.45-4,2.91-6.83,4.09a51.94,51.94,0,0,1-6.55,2.2c-3.57.9-7.59,5.39-8.48,13a24,24,0,0,1-1.31,4.92h0c-3.3,9.21-11.89,24-17.43,31-6.69,8.54-3.12,15.73,2.68,31s-3.57,13-7.59,9-11.6-21.57-15.17-32.35a71.71,71.71,0,0,1-2.25-12.5c-.08-.71-.17-1.44-.25-2.19s-.15-1.46-.22-2.21c-.18-1.76-.35-3.58-.51-5.45-1.33-15.69-2.07-34.2-2.62-40.87-.89-10.78-5.61-11.09-17.66-16.48s-13.13-10.41-12.89-21.7c.12-5.55-2.68-19.32,4.91-27,6-6,8.79-24.77,8.47-32.31a6.36,6.36,0,0,1,3.24-5.82c4-2.27,11.57-4.68,22.31-.59,7.95,3,7.73,9.38,14.88,13.42a21,21,0,0,0,3.57,1.56c.72.26,1.46.49,2.21.71l2.22.64c5.58,1.57,10.59,3.06,9.4,8.77-1.72,8.19,6.85,16.39,21,20.6.59.19,1.2.36,1.81.52,15.11,4.14,20.5,19.42,9.31,24.81Zm3.08-220.43c-4,4-9.37-.45-12.5-7.64-2.9-6.69-.4-24.25-1.84-31.38a8.78,8.78,0,0,0-.39-1.42c-2.23-5.84-4.91-4.94-10.26-4.94s-8-4.5-7.14-5.84c3.28-4.84,10-6.88,17.79-7.48,8.15-.65,17.52.27,25.5,1.19,15.62,1.8,21.86,8.54,21,17.52s-18.74,19.77-23.65,22.47-4.49,13.5-8.51,17.54Z" transform="translate(-0.07 0)" style="fill:#fff"/><path d="M581.5,1586.06h0c-.22-1-.46-2.09-.71-3.13h0c-.15-.61-.3-1.22-.47-1.82h0c-.23-.87-.47-1.72-.73-2.58s-.51-1.69-.79-2.52a97,97,0,0,0-73.15-64.84L398.2,1502.7a582.39,582.39,0,0,1-272.85-92.82c-6.65-4.34-13.49-8.61-20.61-12.73l-2.91-1.67a32.86,32.86,0,0,0-24-3.48h0a33.53,33.53,0,0,0-11,4.8h-.06a33.21,33.21,0,0,0-6.48,5.7,32.73,32.73,0,0,0-8.13,21.8v241.33a103.41,103.41,0,0,0,51,89.25c49.6,29.09,118.46,67.9,280.39,100.17,0,0,181.08,28.65,195.87,18.8.52-.35,1-7.43,1.38-19.08,0-.73,0-1.47.07-2.24s0-1.48.08-2.24c2-65.37,2.57-244.16,2.57-244.16a97.57,97.57,0,0,0-1.51-17.06C581.91,1588.06,581.71,1587.06,581.5,1586.06Z" transform="translate(-0.07 0)" style="fill:#fff"/><path d="M1830.7,1136.41a271.66,271.66,0,0,0-104.85-214.9A15.32,15.32,0,0,0,1707,945.7a240.92,240.92,0,0,1,93.15,190.71c0,133-107.07,240.77-239.16,240.77a236.77,236.77,0,0,1-123.32-34.44,15.34,15.34,0,0,0-15.9,26.23,266.9,266.9,0,0,0,124.36,38.52v50.21c-44.27,2.15-78.07,13.61-78.07,27.42,0,15.34,41.69,27.78,93.12,27.78s93.11-12.44,93.11-27.78c0-13.79-33.7-25.24-77.87-27.41v-50.26C1718.21,1399.4,1830.7,1281.13,1830.7,1136.41Z" transform="translate(-0.07 0)" style="fill:#fff"/><path d="M786.52,311.1,933.84,370c4.51,8.27,16.6,11.79,25.17,7.88h0l183.2,29.4,93.49-247.62-23-3.7-6.39-11a4,4,0,0,0-.78-.95h0a2,2,0,0,0-.11-.26,4.35,4.35,0,0,0-2.65-2.23c-7.38-2.19-33.78-9.91-63.8-17a180.32,180.32,0,0,0-78.33-.94l-30.29,6.29L1014,116c-27.79-23.44-105.84-53.25-129.1-61.82a10.47,10.47,0,0,0-13.39,6.14L793,269.8a3.45,3.45,0,0,0-.22,1h0a2.25,2.25,0,0,0-.08.93l2.3,17.06h0ZM936.57,356,801.1,301.59,798.23,280h0l1.45-3.84c21,7.6,97.21,36.06,125.23,58.8l15,12.15Zm266.28-201.6,1.47-3.94,2.68,4.6,7,12.14-80.81,219.35-8.7-23.19Zm-174.47-12.07.07-.2,1.62-4.3.77-2.06.59-1.58.85-.18,29.21-6.15a176.14,176.14,0,0,1,76.4.92c24.12,5.72,45.91,11.83,57.26,15.08l5.66,1.63.58.16-.78,2.09-2.23,5.94L1121,360.05c-2.2-.65-6.13-1.81-11.39-3.3a359.43,359.43,0,0,0-46-9.9h0a365.8,365.8,0,0,0-52.59-3.86H984.84a2.22,2.22,0,1,0,0,4.43h26.22A356.79,356.79,0,0,1,1108.49,361c5.6,1.59,9.7,2.8,11.77,3.41l9.62,25.68-163.2-26.78-1-.16-.9-.77-.12-.1-.13-.12-1.66-1.42-12.28-10.53h-.18l17.26-46.05V304l17.74-47.33h0l41.68-111.21ZM815.17,223.14V223l19.56-52.2L875.6,61.88a6,6,0,0,1,7.71-3.54c23.09,8.52,100.54,38.08,127.77,61.06l10.74,9,1.8,1.51,3.52,3-.82,2.19-1.32,3.51-.78,2.07-.71,1.91h0l-.06.15L946.87,347.11l-1.72-1.4-1.64-1.33-.06-.05-.11-.09-1.81-1.47L927.7,331.55C899.18,308.4,822.5,279.74,801.24,272l-3.69-1.32-.19-.07Z" transform="translate(-0.07 0)" style="fill:#fff"/><path d="M1047.13,159.18a176,176,0,0,1,76.36.91c18.1,4.29,24.78,6.21,34,8.87l5,1.44a2.1,2.1,0,0,0,.61.09,2.22,2.22,0,0,0,.61-4.35l-5-1.43c-9.3-2.68-16-4.61-34.22-8.93a180.29,180.29,0,0,0-78.29-.93,2.21,2.21,0,1,0,.91,4.33Z" transform="translate(-0.07 0)" style="fill:#fff"/><path d="M1037.59,186.22a175.91,175.91,0,0,1,76.35.91c21.53,5.1,29.94,7.34,41.75,10.7a2.21,2.21,0,0,0,1.22-4.25h0c-11.88-3.39-20.34-5.63-42-10.76a180.4,180.4,0,0,0-78.28-.93,2.21,2.21,0,1,0,.91,4.33Z" transform="translate(-0.07 0)" style="fill:#fff"/><path d="M1143.19,218.88c-9.45-2.69-14.83-4-26.61-6.72l-12.33-2.9a178.84,178.84,0,0,0-41.16-4.8,2.25,2.25,0,0,0-2.26,2.21,2.19,2.19,0,0,0,2.19,2.21h.07a173.86,173.86,0,0,1,40.14,4.69c4.85,1.15,8.87,2.09,12.34,2.9,11.71,2.75,17.06,4,26.4,6.67a2.1,2.1,0,0,0,.61.09,2.22,2.22,0,0,0,.61-4.35Z" transform="translate(-0.07 0)" style="fill:#fff"/><path d="M1013.83,237.57h0a2.22,2.22,0,0,0,2.6,1.63,175.91,175.91,0,0,1,76.35.91c16.45,3.89,25.65,6.59,34.55,9.21,2.6.76,5.18,1.52,7.92,2.3a2.09,2.09,0,0,0,.61.08,2.21,2.21,0,0,0,.61-4.34c-2.73-.78-5.3-1.53-7.9-2.29-9-2.63-18.21-5.35-34.77-9.27a180.29,180.29,0,0,0-78.29-.93,2,2,0,0,0-.79.35,2.16,2.16,0,0,0-.91,2.27A.45.45,0,0,0,1013.83,237.57Z" transform="translate(-0.07 0)" style="fill:#fff"/><path d="M1004.64,262.09a2.21,2.21,0,0,0,1.64.3,175.6,175.6,0,0,1,76.35.91c9.44,2.23,19.39,4.74,29.56,7.43a1.83,1.83,0,0,0,.57.08,2.21,2.21,0,0,0,.57-4.35c-10.21-2.71-20.2-5.22-29.68-7.47a180.24,180.24,0,0,0-77.43-1.1l-.85.17a2.21,2.21,0,0,0-.73,4Z" transform="translate(-0.07 0)" style="fill:#fff"/><path d="M995.74,285.88h0a2.22,2.22,0,0,0,2.58,1.56,173.73,173.73,0,0,1,72.51,0,2.42,2.42,0,0,0,.47.05,2.21,2.21,0,0,0,.46-4.38,178.34,178.34,0,0,0-74.36-.05,2.29,2.29,0,0,0-.74.31h0a2.21,2.21,0,0,0-1,2.31A.5.5,0,0,0,995.74,285.88Z" transform="translate(-0.07 0)" style="fill:#fff"/><path d="M984.39,309.78h-.07a2.22,2.22,0,0,0-1.71,2.63,2,2,0,0,0,.44.91h0a.58.58,0,0,0,.1.12,2.19,2.19,0,0,0,2,.64h.07a175.91,175.91,0,0,1,76.35.9l4.34,1c17.6,4.17,22.91,5.43,34.16,8.64a2.49,2.49,0,0,0,.61.08,2.21,2.21,0,0,0,.6-4.34c-11.34-3.23-16.67-4.5-34.35-8.69l-4.34-1a180.42,180.42,0,0,0-75.6-1.48l-2.4.48Z" transform="translate(-0.07 0)" style="fill:#fff"/><path d="M889.71,95.57a417.88,417.88,0,0,1,57.18,27.5,2.18,2.18,0,0,0,1.11.3,2.22,2.22,0,0,0,1.11-4.13,424.08,424.08,0,0,0-57.84-27.82,2.22,2.22,0,0,0-1.56,4.15Z" transform="translate(-0.07 0)" style="fill:#fff"/><path d="M910.56,144a2.22,2.22,0,0,0,1,3l0,0c23.45,11.56,49.79,25.57,65.62,45.45a2.21,2.21,0,0,0,3.09.37l0,0a2.22,2.22,0,0,0,.35-3.11c-16.39-20.6-43.24-34.88-67.12-46.66A2.21,2.21,0,0,0,910.56,144Z" transform="translate(-0.07 0)" style="fill:#fff"/><path d="M862.33,170.63c2.6,1.14,5.07,2.2,7.56,3.27,8.52,3.66,17.34,7.44,32.5,14.92,22.57,11.13,41.46,21.22,62,41a2.21,2.21,0,1,0,3.07-3.19c-21-20.24-40.17-30.49-63.09-41.8-15.27-7.53-24.14-11.34-32.72-15-2.47-1.06-4.93-2.12-7.52-3.25a2.21,2.21,0,1,0-1.78,4Z" transform="translate(-0.07 0)" style="fill:#fff"/><path d="M905.67,218.23,897,214c-8.75-4.31-18-8.74-27.63-13.16a2.21,2.21,0,0,0-1.85,4c9.55,4.4,18.81,8.81,27.52,13.11,3,1.48,5.92,2.89,8.76,4.26,19.56,9.47,35,16.94,52.67,34.29a2.21,2.21,0,0,0,3.11-3.15h0C941.35,235.48,924.81,227.49,905.67,218.23Z" transform="translate(-0.07 0)" style="fill:#fff"/><path d="M898.38,244.94l-11.9-6a2.21,2.21,0,0,0-2,3.93c4,2.08,8,4.08,12,6.07,18,9,34.9,17.45,50.27,32.83a2.25,2.25,0,0,0,1.57.65,2.22,2.22,0,0,0,2.2-2.24,2.17,2.17,0,0,0-.64-1.54C934,262.71,916.66,254.08,898.38,244.94Z" transform="translate(-0.07 0)" style="fill:#fff"/><path d="M836.81,256.1c26.24,8.11,84.8,33,101.3,53.7a2.21,2.21,0,0,0,3.09.37l0,0a2.22,2.22,0,0,0,.35-3.11c-17.09-21.47-76.78-46.92-103.45-55.17a2.21,2.21,0,0,0-1.31,4.23Z" transform="translate(-0.07 0)" style="fill:#fff"/><path d="M1655.19,587.22c.56.42,56.45,42.46,117.13,55.87h.48a2.22,2.22,0,0,0,.47-4.38c-59.7-13.19-114.86-54.65-115.4-55.07A2.22,2.22,0,0,0,1655,587l.21.16Z" transform="translate(-0.07 0)" style="fill:#fff"/><path d="M1758.08,672.08c-27.62-7.2-55.11-20.7-81.64-40.2a2.21,2.21,0,1,0-2.62,3.57h0c27,19.8,55,33.55,83.15,40.87a2.1,2.1,0,0,0,.56.08,2.22,2.22,0,0,0,.55-4.36Z" transform="translate(-0.07 0)" style="fill:#fff"/><path d="M1655.53,621a2.22,2.22,0,0,0,2.89-3.36h0a221.21,221.21,0,0,1-19-18.12,2.21,2.21,0,1,0-3.3,2.95A222,222,0,0,0,1655.53,621Z" transform="translate(-0.07 0)" style="fill:#fff"/><path d="M1730,707.34a2.08,2.08,0,0,0,.88.19,2.22,2.22,0,0,0,.87-4.25c-75-32.39-112.59-86.87-113-87.42a2.21,2.21,0,1,0-3.66,2.48h0C1615.44,618.88,1653.64,674.42,1730,707.34Z" transform="translate(-0.07 0)" style="fill:#fff"/><path d="M1705.31,735.18a2.07,2.07,0,0,0,1,.26,2.22,2.22,0,0,0,1-4.17c-77.93-41.47-111.79-103.14-112.12-103.76a2.21,2.21,0,0,0-3.9,2.1C1591.71,630.24,1626.14,693.05,1705.31,735.18Z" transform="translate(-0.07 0)" style="fill:#fff"/><path d="M1676,757a207.31,207.31,0,0,1-40-27.45,2.21,2.21,0,0,0-2.9,3.34,212.14,212.14,0,0,0,40.76,28,2.23,2.23,0,0,0,3-.94A2.22,2.22,0,0,0,1676,757Z" transform="translate(-0.07 0)" style="fill:#fff"/><path d="M1613.16,713.47a2.22,2.22,0,1,0,3.26-3c-31.87-34.7-47.18-70.49-47.33-70.85a2.21,2.21,0,1,0-4.08,1.72C1565.17,641.7,1580.75,678.17,1613.16,713.47Z" transform="translate(-0.07 0)" style="fill:#fff"/><path d="M1543.27,733.79h0l23.35-.31h0a1.8,1.8,0,0,1,1.73,1.22,1.88,1.88,0,0,1-.58,2.16l-4.36,3.6a6.24,6.24,0,0,0-1.63,7.76,6.15,6.15,0,0,0,7.11,3.27,1.81,1.81,0,0,1,1.81.55,1.89,1.89,0,0,1,.37,1.94l-1.09,3a6.31,6.31,0,0,0,.94,6,6.22,6.22,0,0,0,5.49,2.43l22.36-1.85a1.76,1.76,0,0,1,1.4.49,1.82,1.82,0,0,1,.6,1.42l-.24,16a2.21,2.21,0,0,0,2.17,2.25h0a2.21,2.21,0,0,0,2.21-2.18l.25-16a6.28,6.28,0,0,0-6.8-6.38L1576,761a1.77,1.77,0,0,1-1.62-.72,1.87,1.87,0,0,1-.28-1.81l1.09-3a6.31,6.31,0,0,0-7.42-8.28,1.76,1.76,0,0,1-2.09-1,1.86,1.86,0,0,1,.5-2.36l4.36-3.6a6.3,6.3,0,0,0,1.92-7.1,6.23,6.23,0,0,0-5.89-4.12h-.09l-23.35.31a2.22,2.22,0,0,0,0,4.43Z" transform="translate(-0.07 0)" style="fill:#fff"/><path d="M1324.68,340.14l24,24.45A516,516,0,0,0,1436.26,436l35.65,23a19.17,19.17,0,0,0,22,1.43,2,2,0,0,0,.33-.24,283.57,283.57,0,0,1,82.17-51.55l6.52-2.68a1.3,1.3,0,0,0,.31-.16,17.9,17.9,0,0,0,6-24.6,17.66,17.66,0,0,0-3.34-4l-15.23-11.47,25.08-29.58a14.57,14.57,0,0,0-1.62-20.54l-.07-.06-.19-.14-4.61-3.1c-3.12-2.1-6.24-4.26-9.32-6.47l5.31-9.22A238.31,238.31,0,0,1,1622,248.39h0L1638.12,232a17.34,17.34,0,0,0-.16-24.52,18,18,0,0,0-2.12-1.78l-8-5.7c-8.14-5.81-16.12-12.07-23.71-18.58l-24.32-20.9a17.39,17.39,0,0,0-23.32.55l-12.26,11.58a242.1,242.1,0,0,0-46.1,59.72l-3.49,6.37q-8.94-8-17.33-16.52l-29.69-30.1a14.57,14.57,0,0,0-20.54,1.75l0,0a546.16,546.16,0,0,0-86,99.89l-18.51,27A14,14,0,0,0,1324.68,340.14ZM1496,245.69l1.09-2,1.08-2,4-7.26a237.8,237.8,0,0,1,45.19-58.55l12.26-11.58a13,13,0,0,1,17.38-.42l24.33,20.89q5,4.26,10.1,8.34c1.13.9,2.26,1.79,3.41,2.68q5.19,4,10.5,7.81l8,5.7a12.93,12.93,0,0,1,2.94,18.06,12.4,12.4,0,0,1-1.28,1.52l-14.81,15-1.36,1.38c-.59.6-1.18,1.2-1.76,1.81a242.4,242.4,0,0,0-35.62,47.32l-5.08,8.81-2.22,3.86L1564,324.66a7.22,7.22,0,0,1-4.43,3.4,7.08,7.08,0,0,1-5.38-.73c-20.06-11.8-41.71-34.24-56-49.09-4.11-4.27-7.67-7.95-10.21-10.35a4.92,4.92,0,0,1-.93-5.95Zm-169.78,77.73,18.62-27.18a541.81,541.81,0,0,1,85.46-99.2,2.39,2.39,0,0,0,.22-.23,10,10,0,0,1,6.91-3.67h1a10,10,0,0,1,6.36,2.25l29.55,30q8.84,9,18.3,17.39l-9.39,17.12a9.36,9.36,0,0,0,1.78,11.29c2.47,2.33,6,6,10.06,10.2,14.5,15,36.4,37.73,57,49.83a11.32,11.32,0,0,0,5.78,1.59A11.69,11.69,0,0,0,1568,327l9.9-17.18q4.5,3.21,9.07,6.29l4.5,3a10.13,10.13,0,0,1,1.09,14.27l-25.25,29.78L1549.87,350a428,428,0,0,1-71.59-68.2l-13.76-16.53a2.09,2.09,0,0,0-.2-.22c-6.22-5.72-13.25-4.79-20-2.9L1428,267.39a288.83,288.83,0,0,0-72.43,35.38l-30.34,22.11a9.8,9.8,0,0,1,.94-1.46Zm31.92-17a284.24,284.24,0,0,1,71.26-34.79l16.16-5.25c7.57-2.11,11.82-1.62,15.63,1.82l13.65,16.42a433,433,0,0,0,72.33,68.91l19,14.35,16.93,12.74a13.5,13.5,0,0,1-2,21.36l-6.35,2.6a288.45,288.45,0,0,0-83.3,52.21,14.72,14.72,0,0,1-16.83-1.26l-.2-.14-35.74-23.11a511.06,511.06,0,0,1-86.83-70.77L1327.71,337a1.54,1.54,0,0,0-.19-.17,9.33,9.33,0,0,1-3.35-5.72Z" transform="translate(-0.07 0)" style="fill:#fff"/><path d="M1591.58,249.75a2.15,2.15,0,0,0,1.23.38,2.23,2.23,0,0,0,1.24-4.07h0c-18.88-12.65-46.7-45.95-47-46.28a2.21,2.21,0,1,0-3.4,2.83h0C1544.82,204,1572.17,236.75,1591.58,249.75Z" transform="translate(-0.07 0)" style="fill:#fff"/><path d="M1574.06,268.42a2.21,2.21,0,0,0,3.09-.39v0a2.21,2.21,0,0,0-.41-3.1h0c-30.89-23.73-44.79-43-44.93-43.14a2.21,2.21,0,0,0-3.6,2.57C1528.79,225.14,1542.58,244.25,1574.06,268.42Z" transform="translate(-0.07 0)" style="fill:#fff"/><path d="M136.46,739.68c35.58-8,71.24-29.22,100.4-59.8,2.76-2.81,28.3,4.31,55.76,15.56a2.23,2.23,0,0,0,2.55-.65,2.19,2.19,0,0,0,.12-2.63c-14.49-21.64-29.27-47.52-27.91-51.51C315.23,564.55,312,476.88,260,436.72c-26.28-20.26-61.69-26-99.72-16.24C122.68,430.15,85.86,454.11,56.59,488A2.23,2.23,0,0,0,60,490.88h0c28.69-33.17,64.7-56.64,101.41-66.08s70.74-3.95,95.91,15.45c50.27,38.76,53,123.91,6.38,198.09,0,0-.13.21-.15.26-3.28,6.28,13.53,33.77,24.21,50.12-18.13-7.12-48.41-17.76-54-11.86-28.57,29.95-63.43,50.74-98.17,58.53s-67.28,1.94-91.29-16.57c-38.38-29.6-50-85.92-30.37-147a2.22,2.22,0,0,0-4.22-1.36c-20.23,62.9-8,121.09,31.89,151.86,17.86,13.77,40.12,20.87,64.54,20.87A139.08,139.08,0,0,0,136.46,739.68Z" transform="translate(-0.07 0)" style="fill:#fff"/><path d="M87.65,630.64a5.1,5.1,0,0,0,7,.92l15.7-11.7a5.09,5.09,0,0,0,1.12-7L35.15,502a5.11,5.11,0,0,0-7.1-1.34l-.16.11L4.06,518.48a5.09,5.09,0,0,0-1,7.14l.12.16Z" transform="translate(-0.07 0)" style="fill:#fff"/><path d="M119.39,644.88c-8.47,2.06-13.22,11-10.61,20s11.59,14.55,20.06,12.49,13.21-11,10.6-20S127.85,642.88,119.39,644.88Z" transform="translate(-0.07 0)" style="fill:#fff"/><path d="M145.33,454.14c-14.12,4.62-27.87,13.87-34.52,23.17l12.92,19.21c5-7.26,13.52-16.12,23.11-19.26,16.87-5.22,28.58-1.2,33.15,12.45,4,12,.86,24.66-6.39,42.77-7.95,20.42-7.46,37.78-1,51.71l2.86,6.79,20.78-6.8-2.59-6.88c-5.37-13.38-5-26.56,2-44.31,7.69-19.44,13.43-35.87,7.34-54.07C196.18,458.58,176,444.11,145.33,454.14Z" transform="translate(-0.07 0)" style="fill:#fff"/><path d="M182.11,630.37c3.13,9.36,11.94,14.5,21.26,11.44,9.86-3.22,13.57-12.45,10.44-21.82-3.31-9.9-12-14.77-21.36-11.72S178.79,620.46,182.11,630.37Z" transform="translate(-0.07 0)" style="fill:#fff"/><path d="M437.78,318.68a132.7,132.7,0,0,0,44,7.55,131.36,131.36,0,0,0,48.61-9.35h0a129.25,129.25,0,0,0,24.63-9c65-31.32,92.32-109.76,61-175.2A131,131,0,0,0,482.28,59h0A131.29,131.29,0,0,0,423.6,72.12c-66,31.8-93.83,111.71-62,178.14A132.73,132.73,0,0,0,437.78,318.68ZM425.48,76.11A128.55,128.55,0,0,1,450,67.21a126.61,126.61,0,0,1,30.82-3.82A129.11,129.11,0,0,1,597,136.88c30.78,64.23,3.9,141.5-59.93,172.24a127.93,127.93,0,0,1-39.41,11.71h0a128.89,128.89,0,0,1-132.12-72.44c-30.78-64.27-3.9-141.51,59.92-172.28Z" transform="translate(-0.07 0)" style="fill:#fff"/><path d="M479.13,193.1a2.21,2.21,0,0,0,.93,1.34l67.5,44.84a2.2,2.2,0,0,0,3.05-.61h0a2.22,2.22,0,0,0-.61-3.07l-66.77-44.36-14-59.5a2.21,2.21,0,1,0-4.31,1Z" transform="translate(-0.07 0)" style="fill:#fff"/><path d="M439.15,106.29a8.39,8.39,0,1,0-11.19-4h0A8.39,8.39,0,0,0,439.15,106.29Z" transform="translate(-0.07 0)" style="fill:#fff"/><path d="M390.32,141.08A8.31,8.31,0,0,0,401.89,139l.08-.12a8.43,8.43,0,0,0-2.2-11.66,8.31,8.31,0,0,0-11.57,2.14l0,0A8.44,8.44,0,0,0,390.32,141.08Z" transform="translate(-0.07 0)" style="fill:#fff"/><path d="M377.91,192.71a8.38,8.38,0,1,0-7.7-9h0A8.4,8.4,0,0,0,377.91,192.71Z" transform="translate(-0.07 0)" style="fill:#fff"/><path d="M384.39,230.75a8.39,8.39,0,1,0,11.17,4l0-.06A8.39,8.39,0,0,0,384.39,230.75Z" transform="translate(-0.07 0)" style="fill:#fff"/><path d="M419.59,285.14A8.31,8.31,0,0,0,431.15,283l0-.06A8.43,8.43,0,0,0,429,271.3a8.32,8.32,0,0,0-11.57,2.14l0,0A8.43,8.43,0,0,0,419.59,285.14Z" transform="translate(-0.07 0)" style="fill:#fff"/><path d="M475.8,287.48a8.39,8.39,0,1,0,7.7,9v0a8.33,8.33,0,0,0-7.63-9Z" transform="translate(-0.07 0)" style="fill:#fff"/><path d="M524.33,278a8.39,8.39,0,1,0,11.17,4l0-.06A8.39,8.39,0,0,0,524.33,278Z" transform="translate(-0.07 0)" style="fill:#fff"/><path d="M563.76,257a8.3,8.3,0,0,0,11.55-2.1l0-.06a8.42,8.42,0,0,0-2.2-11.66,8.28,8.28,0,0,0-11.53,2.1l-.06.08A8.4,8.4,0,0,0,563.76,257Z" transform="translate(-0.07 0)" style="fill:#fff"/><path d="M576.62,199.29a8.35,8.35,0,1,0,9-7.72A8.35,8.35,0,0,0,576.62,199.29Z" transform="translate(-0.07 0)" style="fill:#fff"/><path d="M578.19,154.44a8.39,8.39,0,1,0-11.17-4l0,.06A8.39,8.39,0,0,0,578.19,154.44Z" transform="translate(-0.07 0)" style="fill:#fff"/><path d="M534.49,113A8.3,8.3,0,0,0,546,110.87l0-.06a8.42,8.42,0,0,0-2.2-11.66,8.3,8.3,0,0,0-11.55,2.11l0,.06A8.42,8.42,0,0,0,534.49,113Z" transform="translate(-0.07 0)" style="fill:#fff"/><path d="M487.68,96.8a8.33,8.33,0,0,0,8.94-7.65v-.06a8.35,8.35,0,1,0-8.94,7.71Z" transform="translate(-0.07 0)" style="fill:#fff"/><path d="M1730.46,463.28A19.52,19.52,0,1,0,1711,443.73v0A19.55,19.55,0,0,0,1730.46,463.28Zm0-34.61a15.09,15.09,0,1,1-15.1,15.09,15.1,15.1,0,0,1,15.1-15.09Z" transform="translate(-0.07 0)" style="fill:#fff"/><path d="M1727.57,335.81a14.64,14.64,0,1,0-14.6-14.68v0A14.63,14.63,0,0,0,1727.57,335.81Z" transform="translate(-0.07 0)" style="fill:#fff"/><path d="M65.23,15.35a2.18,2.18,0,0,0,1.6-.69L77.28,3.74A2.21,2.21,0,0,0,74.08.68L63.63,11.6a2.22,2.22,0,0,0,.08,3.14A2.2,2.2,0,0,0,65.23,15.35Z" transform="translate(-0.07 0)" style="fill:#fff"/><path d="M37.51,38.88l-10.45,11a2.21,2.21,0,0,0,3.2,3L40.71,42a2.22,2.22,0,1,0-3.2-3.09Z" transform="translate(-0.07 0)" style="fill:#fff"/><path d="M37.36,15.29a2.21,2.21,0,1,0,3.11-3.15L29.86,1.69a2.23,2.23,0,1,0-3.11,3.19h0Z" transform="translate(-0.07 0)" style="fill:#fff"/><path d="M67,38.27a2.21,2.21,0,0,0-3.1,3.16L74.48,51.88a2.24,2.24,0,0,0,1.56.64,2.16,2.16,0,0,0,1.57-.64,2.21,2.21,0,0,0,0-3.13h0Z" transform="translate(-0.07 0)" style="fill:#fff"/></g></svg>