<svg id="Layer_1" data-name="Layer 1" xmlns="http://www.w3.org/2000/svg"
    viewBox="0 0 1825.82 1816.35">
    <path d="M453.86,74H593a2.21,2.21,0,0,0,0-4.41H453.86a2.21,2.21,0,1,0,0,4.41Z"
        transform="translate(-2.41 -33.62)" style="fill:#fff" />
    <path
        d="M216.76,70c2.64,7-1.06,30.57,2.64,39.16s10,13.94,14.76,9.12,4.22-17.71,10-20.92,26.89-16.1,27.94-26.82-6.34-18.78-24.78-20.92-43.24-4.3-51.14,7.51c-1.08,1.59,2.1,7,8.43,7S214.12,63.05,216.76,70Z"
        transform="translate(-2.41 -33.62)" style="fill:#fff" />
    <path
        d="M108.42,375.2c-.28,13.47,1,19.46,15.23,25.9s19.81,6.8,20.86,19.68,2.7,62.6,6.92,75.48,13.18,33.79,17.93,38.62,15.82,7.51,9-10.73-11.07-26.82-3.16-37,21.09-33.8,22.14-42.92,5.8-14.48,10-15.55,13.18-4.29,15.82-7.51-2.64-12.34-4.22-20.38-1.58-12.88,11.59-19.32,6.87-24.67-11.06-29.5-29-15-26.9-25.21S180.43,317.63,172,312.8s-8.2-12.41-17.58-16c-12.69-4.88-21.59-2-26.37.71a7.62,7.62,0,0,0-3.81,6.95c.37,9-3,31.41-10,38.57C105.26,352.13,108.55,368.57,108.42,375.2Z"
        transform="translate(-2.41 -33.62)" style="fill:#fff" />
    <path
        d="M265.08,568c85.35,0,161.33-41.63,209.34-106a131.43,131.43,0,0,0,18.49-28.33.41.41,0,0,1,0-.09,269.16,269.16,0,0,0,34.8-132.81c0-147.33-117.84-267.19-262.68-267.19S2.41,153.48,2.41,300.81,120.24,568,265.08,568ZM77,120.87a54.86,54.86,0,0,1-6.83,25.86c-16.35,29-15.82,43.44-17.4,72.41s34.4,80,43.36,85.39,10.35-7.39,10.35-17.58-3.83-22.42-9.11-34.22-5.27-19.31-3.69-24.14,7.91-6.44,12.13-1.61,14.36,9.11,19.23,6.09c6-3.7,3.66-18.22,5.75-23s13.71-8,18.46-18.24,12.66-14.48,22.15-19.31,17.93-7,19.51-10.19S190.4,151.55,193,143s9-18.77,6.33-23.07-10.56-11.26-25.31-.53-18.45,10.73-22.67,2.68,4.74-29,23.2-29,22.14-6.43,22.67-11.26S192,71.63,185.65,70.56,178.26,73.24,151.91,84a69.51,69.51,0,0,1-38.4,4.18A254.12,254.12,0,0,1,378.34,64.67c-.42,10.58-4.71,34.38-35.81,23.24,0,0-21.1-10.17-16.1,31.08s22.22-2.82,25.55-4.52,12.22-4,8.32,23.73c0,0-.54,9.61-17.77,7.91S322,152.89,322,157.41s1.67,16.39-7.78,24.86-6.66,30.51,6.11,23.17,21.66-30.51,33.33-32.77,22.21,13,33.32,9,6.11-23.17,11.66-23.17,17.22,11.3,15.55,19.78-18.88,12.43-14.44,22.6,13.89,6.78,16.67,13.56-13.9,14.69-27.22,6.21-15.55,4-22.21-1.69-7.22-17.52-16.68-13.56-15,11.86-27.2,17.51-22.22,13-22.22,20.91,4.45,16.39,2.23,28.82S297,319,337,312.23s35,14.12,35,16.38-.55,31.64,3.33,36.73,12.78,19.77,0,39-7.77,62.16,3.9,56.51,23.31-27.69,37.76-39,34.44-60.46,26.09-75.71,11.68-27.69,14.45-37.86,1.67-15.25-2.77-22S450.84,268.72,462,254c8.72-11.54-3.8-23.08-9.57-27.5a1.49,1.49,0,0,1,.74-2.65c7.14-.82,23.74,1.62,31,39.19,9.44,48.59,13.33,31.64,18.33,26s-4.35-16.2,5-27.12c4.72-5.51,7.58-13.06,9.31-20.05a267.6,267.6,0,0,1-11.4,155.2c-6.83.58-25.43,14.42-25.79,24.41-.44,12-11.37,23.58-17.93,27.58s-16.61,10.24-16.61,20.47c0,5.69-.13,12.75.81,18.74-46.62,46.56-110.47,75.31-180.8,75.31C122.67,563.6,6.8,445.71,6.8,300.81A264.31,264.31,0,0,1,77,120.87Z"
        transform="translate(-2.41 -33.62)" style="fill:#fff" />
    <path
        d="M582.51,236.79l29.24,38.72a92.52,92.52,0,0,0,48.48,33.59l29.84,8.58c16.25,4.67,28.06,19,30.08,36.53L732.36,460,652,540.42a2.21,2.21,0,0,0,.09,3.2l46.84,42-23.44,22.87a2.17,2.17,0,0,0-.66,1.78,2.22,2.22,0,0,0,.95,1.63c76.75,51.73,148.34,75.66,212.77,71.13,55-3.86,94.91-28.19,119.58-49.12.88,18.56,1,36.7.44,55.29-2.49,78.55-.06,136.79,7.19,173.09,3.77,18.81,19.34,32.35,37.24,33.64-.63,33.48.08,94,12,122.84-1.65,11.88-3.33,24.1-5,36.54H810.66a4.59,4.59,0,0,0-4.7,4.46v34.5l-96.93-.16a2.21,2.21,0,1,0,0,4.41l96.93.16h4.41l31.37,0h4.41l316.5.53h4.4l34.82.06h4.41l337.13.57c14.92,0,29.58-12.45,31.39-26.64l43.11-340a2.19,2.19,0,0,0-1-2.12,2.13,2.13,0,0,0-.92-.35,2.22,2.22,0,0,0-2.46,1.91l-43.09,340c-1.53,11.93-14.41,22.79-27,22.79l-88.86-.15c-6.65-60.87-15.62-117.08-27.58-165.15a432.88,432.88,0,0,1,32.56,49.17,2.21,2.21,0,0,0,2.67,1,2.19,2.19,0,0,0,1.42-2.47c-.67-3.79-12.27-67.09-32-113.71l1.93.9a2.2,2.2,0,0,0,3.13-1.77c3.41-34-4.56-66.75-18.22-102.45,3.18-4,6.41-8.31,9.63-12.67a378.73,378.73,0,0,0,97.46-6.92l8.21,5.63a2.26,2.26,0,0,0,1.25.38,1.93,1.93,0,0,0,.58-.08,2.17,2.17,0,0,0,1.42-1.19c.23-.48,1.63-3.49,3.67-8.26,30.62-7.92,59.1-20.43,80.31-38.6,12.35-10.57,22.23-23.05,28.64-37.66,24.69-56.26-18.81-105.92,18.94-170.68,24.23-41.56,51.92-37.88,61.81-73.22,12.11-43.32-13.92-104.59-56.37-136.77a113.94,113.94,0,0,0-24.09-14.17c-61.07-26.12-103,26.39-153.93-5.15-22.06-13.66-29.77-33.12-36.89-51.12l-.88-2.2c-.21-.54-.44-1.08-.65-1.62-6.69-16.68-13.75-31.61-32.64-38.73-46.94-17.71-88.26,42.45-133.82,18.67-19.58-10.23-44.75-41.5-59.94-67.41-22.53-38.44-56.82-98.49-141.41-79.21-31.66,7.21-54.88,41.07-53.4,72.64,1.26,27,20.23,45.06,33.36,57.53a134.61,134.61,0,0,0,15.58,12.77,222.5,222.5,0,0,0-5.35,25.75c-.08.61-.17,1.21-.24,1.81-.06.44-.11.88-.16,1.31-3.11,26.68,2.8,42.14,17.56,45.93a54.88,54.88,0,0,0,13.44,1.78l11,51a220.19,220.19,0,0,0-50.72,12.38c-46,17.51-66.23,44.22-67.06,45.35a1.76,1.76,0,0,0-.24.42l-.2.44c-5.18,6-10.84,13.09-16.82,20.63-22.56,28.46-50.64,63.88-79.64,69.39-32.58,6.2-45.89-25.41-46.43-26.75a2.21,2.21,0,0,0-3.59-.75l-8,7.8L813,383a2.21,2.21,0,0,0-3.42-.38l-14.71,14.73c-12.5-33.72-38-99.29-55.84-124.29l-.26-.3L684.39,220a2.21,2.21,0,0,0-2.91-.14c-.2.15-4.74,3.86-5.57,11.64-.9,8.33,2.68,17.9,10.62,28.51-5.16.25-11,.64-19.31,1.23-8.48.6-16.24-1.85-21.87-6.9-10.84-9.7-17.8-15.56-20.72-17.42-.85-.54-1.73-1.13-2.65-1.74-5.93-3.91-13.3-8.74-21.13-8.68-9,.13-17.59,7-18,7.27A2.21,2.21,0,0,0,582.51,236.79Zm37,2.05,2.73,1.78c2.68,1.7,9.65,7.58,20.15,17,6.53,5.85,15.46,8.69,25.12,8,10.65-.75,17.2-1.18,23.46-1.39a2.21,2.21,0,0,0,1.63-3.6c-17.28-21.1-12.45-32.2-9.69-35.91l52.6,51.11c17.66,24.85,43.69,92.14,55.87,125L736.33,456l-11.8-102.26c-2.23-19.3-15.27-35.1-33.25-40.27l-29.84-8.58a88.19,88.19,0,0,1-46.18-32l-27.87-36.92c2.7-1.81,8.16-5,13.52-5C607.43,230.77,614.13,235.26,619.53,238.84Zm191.2,148.87,34.87,54.83-143.51,140-45.33-40.67L733,465.54l2-2,2-2,56.1-56.17,1.72-1.73,1.71-1.73Zm197,99.61,4.2,129.26a2.2,2.2,0,0,1-2.13,2.28h-.07a2.22,2.22,0,0,1-2.21-2.14l-4.19-129.25a2.2,2.2,0,1,1,4.4-.15ZM1057.45,896c1.25,0,2.51-.17,3.77-.34l21.63-3,54.66-7.59c-5.34,55.26-54.09,127.74-63.39,141.13-3.16-3.78-5.75-9.54-7.87-16.66C1057.43,979.82,1056.91,926.53,1057.45,896Zm305-15.65c-20.19,3.22-44.77,31.79-68.56,59.43-26.15,30.39-53.19,61.82-68,50.23-22-17.23-45.89-78.72-56.78-109.35L1361.28,854a126.41,126.41,0,0,1,41.59,1.1,127.9,127.9,0,0,1,22.81,6.66c15.41,34.84,26.33,81.75,31,104.11a395.47,395.47,0,0,0-32.44-46.08C1405.45,897.12,1382.62,877.15,1362.43,880.36ZM1415,758.14l-1.56,2c-11,13.87-20.74,24.38-26.42,26.48-9.77,3.61-30.32-.41-50.19-4.29s-38.58-7.54-48.68-4.35c-52.45,16.51-64.88,10.83-64.94,10.81a2.36,2.36,0,0,0-.67-.25,10.84,10.84,0,0,1-7.93-6.85,11.83,11.83,0,0,1,1.34-11.24c5.61-7.92,55.22-37.28,73.67-47.83a43.66,43.66,0,0,1,18.11-4.16c.94,0,1.86,0,2.75.1,9.86.7,18.52,5.06,27.14,10l2.71,1.55,24,13.75a2.21,2.21,0,0,0,3-.88l2.24-4.22,19.12-36.15,1.31-2.46,1.31-2.47,18.75-35.41,48.87,33.45c-9.85,15.08-23.25,34.85-36.11,52.14q-3.16,4.23-6.25,8.23C1416.05,756.79,1415.53,757.47,1415,758.14ZM844,1094.36h-2.21l-31.37,0v-34.47a.44.44,0,0,1,.29-.09h248.68q-1,7.07-1.93,14.21c-.11.73-.2,1.47-.3,2.2s-.2,1.47-.31,2.21q-1.1,8.15-2.2,16.35l-208.45-.35Zm254.24-840.95c-12.29-3.17-17.1-17-14.28-41.16.07-.6.14-1.21.23-1.82s.16-1.22.25-1.83a209.84,209.84,0,0,1,4.77-23.13,403.39,403.39,0,0,1,16.68-49.34,181.7,181.7,0,0,0,53.78,10.28c6.41.23,10.91,2.38,13.77,6.58,8.19,12-.34,36.55-.44,36.8a2.22,2.22,0,0,0,.4,2.14,2.18,2.18,0,0,0,2,.77c.06,0,6.73-1,10.27,2.64,2.31,2.39,2.95,6.41,1.87,11.95-.06.26-.1.51-.16.76a1.16,1.16,0,0,0,0,.18,22.68,22.68,0,0,1-.65,2.2,14,14,0,0,1-5.78,7.46,19,19,0,0,1-10,2.43c-.84,0-1.63,0-2.38-.11-.91-.07-1.73-.18-2.43-.3-1.36-.22-2.22-.45-2.25-.46a2.21,2.21,0,0,0-2.57,1.11,70.52,70.52,0,0,1-6.56,9.86c-7.51,9.63-21.31,23.05-40.69,24.48-.73.06-1.47.1-2.22.11s-1.49,0-2.26,0A50.7,50.7,0,0,1,1098.19,253.41Zm14.59,6c.75,0,1.48-.07,2.22-.13,19.18-1.65,33.19-14.08,41.47-24a85.69,85.69,0,0,0,7.9-11.17c.87.17,2,.36,3.35.5.73.07,1.52.12,2.37.14l29.55,86.87q2.94.41,5.94.87c26.26,4.09,55.56,11.55,88,23.65a2.35,2.35,0,0,1,.9.62c56.25,18.19,237.21,81.48,274.63,153.56,43.58,83.93,17.54,178.4,17.28,179.35a2.21,2.21,0,0,1-2.93,1.45L1562.64,663l-2.15-.83-2.13-.83c-2.14,27.47-17.31,64.49-23.12,77.82-.46,1-.84,1.93-1.17,2.67l-2.62-1.79L1465,694.53l-1.82-1.25-1.81-1.24-49.19-33.68-1.83-1.24-1.83-1.26-16.08-11,16.1-41.71-2-.8-2.06-.8-12-4.66a2.19,2.19,0,0,1-1.31-2.67l2.1-7.17c6.17-20.94-3.73-43.12-23-51.59L1323,509.81a780.63,780.63,0,0,0,26.18,87.9c13,35.27,27.18,66.86,39.84,94.91l-1.31,2.46-1.31,2.46c-13-28.88-27.75-61.59-41.36-98.3-10.14-27.43-19.39-58.79-27.46-93.22a2.2,2.2,0,0,1,3.19-2.44l51.33,27.93c21.15,9.27,32.11,33.72,25.33,56.78l-1.54,5.23,12.15,4.72.23.09,153.23,58.24a2.18,2.18,0,0,1,1.4,1.8l19.85,7.71c3.65-15,21.4-98.73-17.56-173.76-36.85-71-218.3-134.07-273-151.7a2.25,2.25,0,0,1-1-.72A457.82,457.82,0,0,0,1217.2,319q-3.37-.66-6.69-1.21l49.59,27.65c-39.4,15.27-74.55,19.5-103.73,18.46-55.92-2-89.94-23.31-89.94-23.31l59.07-22-.86-4-.49-2.26-.44-2.06h0Z"
        transform="translate(-2.41 -33.62)" style="fill:#fff" />
    <path
        d="M741.74,1846.22l-2.83-3.46c1.14,1.91,1.78,2.92,1.78,2.92l-3.18-.43h0l-40.73-50.66a689.48,689.48,0,0,1-134.1-268.69l-13.79-55.74a34.76,34.76,0,0,0-34.84-22.63q-33,2-63.58,2c-174.81,0-289.76-46.54-350.86-81q-7.24-4.1-13.48-7.91a20.08,20.08,0,0,0-22.91,1.07,20.42,20.42,0,0,0-7.55,22.08l16.66,61.71c17.55,65,46.31,123.18,85.33,173.64a2.34,2.34,0,0,0,.2.27c5.26,7.13,11,14.13,17.31,21.08a3,3,0,0,0,.34.39s0,0,0,0c84.48,96.94,209.83,162.3,368.07,189.56a2.21,2.21,0,0,1,1.8,2.54q16.08,2.73,32.51,4.93l161.92,12a2.3,2.3,0,0,0,1.91-3.74Z"
        transform="translate(-2.41 -33.62)" style="fill:#fff" />
    <path
        d="M745.12,1820.75c2.48,4.39,4.45,7.77,5.76,10l0,0c1.14,1.91,1.78,2.92,1.78,2.92l-3.18-.43,1.46,1.81a2.22,2.22,0,0,0,3.1.34l.15-.13a2.21,2.21,0,0,0,.19-3Z"
        transform="translate(-2.41 -33.62)" style="fill:#fff" />
    <path
        d="M1818.76,1388.23h-5.6a2.15,2.15,0,0,0-.21-1c-11.51-24-11.52-46.38,0-68.6a2,2,0,0,0,.25-1.08h5.6a9.57,9.57,0,0,0,0-19.14H1321.1c-27.78,0-50.3,22.76-50.3,50.83v7.26a50.76,50.76,0,0,0,36.82,49h-30.71a36.71,36.71,0,0,0-36.5,36.85v54.48a37,37,0,0,0,13.08,28.24,24.91,24.91,0,0,0,13.25,11l63,22.19a2.06,2.06,0,0,0,1.1.08L1367,1568.6a15.74,15.74,0,0,0,7.4.24l2.31-.49a11.15,11.15,0,0,1,10.36,3.31l.41.44a15.72,15.72,0,0,0,7.15,4.34l66.94,19c-.63.68-1.23,1.35-1.82,2a22.9,22.9,0,0,1-2.23,2.11c-5.37,2.53-8.56,4.33-8.87,4.52l0,0c-1.15.39-5.73,1.28-13.17,2.51l-.67.1c-3.16.48-6.08.9-7.77,1.14a1.66,1.66,0,0,0-.64.2c-38,5.84-119.29,16.23-205.84,20.58-92.36,4.63-208,3.06-267.7-26.52a58.61,58.61,0,0,1-28.35-31L910.58,1532h43a105.5,105.5,0,0,0,40.64-8.55l162.9-69.31c29.85-12.71,49.16-40.39,49.16-70.54v-147.9l415.92.68a30.42,30.42,0,0,0,13.37-3.24h0l37.16.08c13.33,0,26.62-10.13,28.31-23.51l121.67-958.84c3-23.34-14.92-46.55-37.9-46l-100.06.53L1695,125.28c1.7-13.2-3-27.15-12.76-38.28s-22.82-17.37-35.93-17.37H1230.35a2.2,2.2,0,1,0,0,4.4h415.91c11.84,0,23.73,5.79,32.61,15.89s13.24,22.86,11.72,34.81l-10.23,80.69-.08.61-.27,2.2-.29,2.2-4.94,39a2.2,2.2,0,0,0,1.91,2.46l.28,0a1.8,1.8,0,0,0,.69-.13,2.18,2.18,0,0,0,1.5-1.8l5-39.58h40.89c11.84,0,23.73,5.79,32.61,15.89s13.24,22.86,11.71,34.81l-120.15,948c-1.52,11.93-14.4,22.79-27,22.79l-415.92-.68h-4.41l-34.82-.06h-4.4l-316.5-.52h-4.41l-27.19,0c-1.36-2.46-2.77-4.91-4.18-7.35-.73-1.25-1.46-2.5-2.21-3.74s-1.45-2.44-2.2-3.65a400.83,400.83,0,0,0-31.26-44.67c-27.92-34.36-82.07-57.92-131.81-73.26a747.63,747.63,0,0,0-107.44-24.26c-1.65-24.4-2.19-52.22-2.35-65.86a4,4,0,0,1,4.16-4c21.52.89,38.34-5,50-17.46,24-25.66,21-73.05,18-103h0l11.44-11.45a15.32,15.32,0,0,0,1.64-19.74l-7-9.88c.29-.35.58-.7.85-1.06s.45-.57.65-.86a32.35,32.35,0,0,0,2.25-3.49c.14-.23.27-.47.4-.71s.19-.36.28-.54c.5-1,1-2,1.38-3,.09-.21.17-.43.26-.65s.24-.62.35-.93.22-.59.31-.88l0-.09c.12-.3.22-.61.31-.91l.29-.95c.37-1.28.69-2.58,1-3.89.08-.41.16-.83.23-1.24s.14-.82.19-1.23c.17-1,.29-2,.4-3,0-.39.07-.78.1-1.17.06-.8.11-1.61.15-2.42,0-.35,0-.69,0-1s0-.69,0-1c.33-24.55-11.82-50.48-12.63-52.18a2.21,2.21,0,0,0-1.27-1.13,2.16,2.16,0,0,0-1.69.1l-16.92,8.29a22.78,22.78,0,0,0-.47-5.37c-1.82-8.57-7.14-24.38-22.19-51.07a.13.13,0,0,1,0-.07c50.37-31.67,56.77-121.76,18.62-141.53-34.87-18.07-77.87,1.61-131.78,27.35-25.64,12.24-62.92,11.66-102.43,19.41-22.78,4.47-42.58,11.85-59.44,21.63a19.78,19.78,0,0,0-13-4.88H139.83a20,20,0,0,0,0,40H249.38A142.18,142.18,0,0,0,227,713.65,19.78,19.78,0,0,0,214.25,709H130.8a20,20,0,0,0,0,40h83.45a20,20,0,0,0,4.33-.49,191.27,191.27,0,0,0-1.25,35.75H121.76a20,20,0,0,0,0,40H223.21A268.48,268.48,0,0,0,234.1,859.5H112.75a20,20,0,0,0,0,40h140c22.81,41.32,56.45,81.92,100.6,117.73l-.06.07a2.21,2.21,0,0,0-.4,1.74c2.9,14.86,1.81,35.28-.72,53.47-33.8,5.22-62.9,13.75-88,24.82h0c-41.94,18.48-72.7,44-95.64,73a191,191,0,0,0-13.84,20.14h0a267.88,267.88,0,0,0-19.08,39.07l-9.55,0a22.07,22.07,0,0,1-16.89-7.36,24.78,24.78,0,0,1-5.53-19.62l13.51-104.88,49.36.09,53.34.09a2.17,2.17,0,0,0,1.46-.55,2.2,2.2,0,0,0-1.45-3.85l-52.78-.09-49.36-.09H113.3l-79.12-.14a22.1,22.1,0,0,1-16.9-7.36,24.78,24.78,0,0,1-5.53-19.62l70-543.35a2.14,2.14,0,0,0-1-2.12,2.18,2.18,0,0,0-3.38,1.55l-70,543.36a29.26,29.26,0,0,0,6.59,23.1,26.47,26.47,0,0,0,20.2,8.84l78.56.14L99.28,1201.94a29.23,29.23,0,0,0,6.6,23.09,26.44,26.44,0,0,0,20.2,8.85h7.83c-14.4,37.88-22.49,80.65-22.38,117.56,67,38.24,202.16,92.75,414.25,79.68a39.16,39.16,0,0,1,39.29,25.61,2.17,2.17,0,0,1,.07.24L579,1512.84a685.11,685.11,0,0,0,133.25,267l32.89,40.9c-19.57-34.75-69.39-132.4-57.91-207.23l.47-3.34-36.91-78.33-1.18-2.5-.73-1.55a2.14,2.14,0,0,1-.2-1.13,2.2,2.2,0,0,1,4.18-.74l.78,1.65,1,2.21,1,2.2,9.47,20.09,10.38,22,13.25,28.13.18-1.27,18.88,34.81c3.28,7.1,11.94,11.17,20.77,13.25.92.23,1.86.43,2.79.6s1.83.34,2.73.47c1.46.22,2.9.39,4.28.51l.16.19H737.5l1.11,0,1,1.27,42.72,52c60,73,154.28,106.26,246,86.76,13.8-3.25,293.9-69.2,389.86-93.2a2,2,0,0,0,.69-.07c.81-.2,17-4.24,26-6.8l1-.28,1-.28.85-.26c.39-.11.75-.23,1.07-.33.54-.17,1.08-.33,1.64-.48,1-.28,2.61-.66,3.62-.85.32-.06.65-.13,1-.18h0a1.9,1.9,0,0,1,.25,0c.57-.1,1.16-.18,1.74-.25l.44,0,.71-.07c.46,0,.9-.09,1.34-.11a37.92,37.92,0,0,1,3.85-.1c1.1,0,2.19.08,3.29.17s2.2.23,3.29.4c.69.11,1.38.24,2.07.38a49.07,49.07,0,0,1,5.1,1.36c.35.1.67.21,1,.34.54.18,1.06.38,1.61.59l.47.19,2,.75c.65.25,1.31.49,2,.72,24.38,8.89,45.5,10.15,65.15,6,21.79-4.63,41.78-15.95,62.41-31,6.27-4.55,15.46-15.13,21.46-23.2l35.12,10a45,45,0,0,0,11.69,1.72l69,1a1.86,1.86,0,0,0,.48-.05,2.21,2.21,0,0,0,1.63-1.46,2.17,2.17,0,0,0-.78-2.47l-58.5-42.89a30.14,30.14,0,0,0-6.7-3.67l-37.65-14.61c-.77-7-3.31-12.44-7.58-16.16s-9.94-5.49-16.48-6a66.93,66.93,0,0,0-21.59.88c-3.58-7.51-20-36.09-62.33-33.14a49.7,49.7,0,0,0-18.33,5.45l-23.33-9h294.2a10.09,10.09,0,0,0,0-20.18h-6.64c-8.6-28-8.44-58.62.51-87.82h6.13a10.1,10.1,0,0,0,5.76-18.33h20.93a9.57,9.57,0,0,0,0-19.14ZM1808.35,1318c-11.11,22.33-11.13,45.75-.11,69.67l-.71.6H1562.87a27.41,27.41,0,0,1-27.27-27.56v-15.5a27.42,27.42,0,0,1,27.27-27.57h245.18Zm-16.28,103.33H1383.58a26.58,26.58,0,0,0-26.42,26.68v30.83l-.08,0a2.27,2.27,0,0,0-1-.69l-63-22.18a23.89,23.89,0,0,0-18.66,1,23.14,23.14,0,0,0-11.83,13.61l-11.4,34.76a23.74,23.74,0,0,0-1.07,9.48,32.45,32.45,0,0,1-5.36-17.93v-54.48a32.3,32.3,0,0,1,32.08-32.44h515.16a5.68,5.68,0,0,1,0,11.36Zm-11.25,92.23h-335l-27-10.49a14.89,14.89,0,0,0-8.89-.68,11.09,11.09,0,0,1-10.69-3.49l-2.57-2.88a16,16,0,0,0-6-4.16l-29.09-11.31V1448a22.18,22.18,0,0,1,22-22.27h397.77C1772.66,1454.9,1772.49,1485.5,1780.82,1513.52Zm11.25,4.41a5.68,5.68,0,0,1,0,11.36H1486.51l-29.29-11.36h334.85ZM1320.51,1531a2.18,2.18,0,0,1-2.82,1.32l-2.39-.86-6.14-2.21-39.54-14.24a2.23,2.23,0,0,1-1.32-2.83,2.21,2.21,0,0,1,2.82-1.32l48.08,17.32a2.24,2.24,0,0,1,1.21,1.07A2.21,2.21,0,0,1,1320.51,1531ZM357.66,1020.63s0-.08,0-.12a229.84,229.84,0,0,0,62.05-18.46c46.19-21.41,72.56-70.69,67.23-121.76,5.32,7.16,11.34,11.59,18,13.24a23.75,23.75,0,0,0,5.75.7A25.72,25.72,0,0,0,520.93,892a21.33,21.33,0,0,0,4.06-2.25,2.2,2.2,0,0,0-1.75-3.92,2.17,2.17,0,0,0-.88.39,21.16,21.16,0,0,1-16.4,3c-7.8-1.94-14.75-8.64-20.7-19.94h0c-.46-2.49-1-5-1.66-7.44-.42-1.62-.9-3.34-1.4-5.14-3.2-11.37-7.19-25.54-1.46-40.41,4.34-11.3,9.45-17.66,15.18-18.9,4.65-1,9.88,1.31,15.59,6.89a8,8,0,0,0,8.83,1.7,7.12,7.12,0,0,0,.83-.41,2.13,2.13,0,0,0,1.25-.2l30.29-14.84,29.91-14.65c-.4,1.61-.86,3.24-1.34,4.9-2.3,8-4.68,16.33-.58,25.21,1.13,2.44,2.35,4.94,3.64,7.53,6.39,12.9,13.62,27.52,14.41,48.89.12,3.29.62,7.9,1.26,13.73,3.07,28.19,8.79,80.68-16,107.17-10.73,11.49-26.43,16.9-46.59,16.07a8.49,8.49,0,0,0-6.22,2.37,8.27,8.27,0,0,0-2.53,6.1c.17,13.53.69,40.93,2.31,65.25.59,8.91,1.33,17.4,2.26,24.64.18,1.39.36,2.72.54,4a27,27,0,0,1-19.17,29.82c-35.52,10.14-102.55,24.69-152.41,8.31a21.91,21.91,0,0,1-12.9-11.3,22.68,22.68,0,0,1-1-17.73,131.57,131.57,0,0,0,3.76-13.41c1.7-7.34,3.35-16.22,4.61-25.63C359,1054.47,360,1035.3,357.66,1020.63Zm226-250.14L554.12,785l-28.79,14.1c0-.22,0-.42,0-.64v-63.7c2.17-19.24,16.33-23.61,20.63-24.48,7.65-1.57,14,.68,15.74,3.75l1.59,2.85c14.29,25.81,18.73,40.45,20.13,47A21.06,21.06,0,0,1,583.66,770.49Zm258.08,464.57h4.41l316.5.52V1364c0,29.07-18.89,55.89-48.14,68.33l-121.75,51.79a98.69,98.69,0,0,1-38.39,7.76h-58l-.83-2.31v-.34c0-.82,0-1.63,0-2.45v-1.17c0-.75,0-1.51,0-2.26,0-.44,0-.88,0-1.33,0-.72-.05-1.44-.08-2.16,0-.47,0-.93-.07-1.4,0-.71-.09-1.41-.14-2.11,0-.48-.07-1-.11-1.44l-.18-2.08c0-.49-.11-1-.16-1.47-.08-.69-.15-1.37-.23-2-.07-.53-.15-1.06-.22-1.59s-.16-1.27-.26-1.9c-.17-1.16-.36-2.31-.56-3.46-6.35-35.83-20.6-99.89-47.3-165.5-.72-1.79-1.45-3.57-2.2-5.36s-1.46-3.49-2.21-5.24C834.4,1269,826.18,1251.77,817,1235Zm112.63,261.18a103.46,103.46,0,0,0,40.13-8.11l121.75-51.8c30.86-13.13,50.8-41.54,50.8-72.38V1235.59l34.82.06v147.91c0,28.38-18.25,54.47-46.48,66.48L992.5,1519.35a100.92,100.92,0,0,1-38.92,8.2H909l-11.13-31.31ZM613.52,868.74l-8.92,8.94h0c-.07-.68-.14-1.35-.21-2-.63-5.74-1.13-10.28-1.24-13.41A98.64,98.64,0,0,0,601.94,850a1.59,1.59,0,0,0,.4-.18c.9-.54,1.75-1.11,2.57-1.7.37-.28.75-.55,1.12-.84l.8-.65c.45-.37.89-.76,1.33-1.16l6.53,9.2A10.92,10.92,0,0,1,613.52,868.74ZM139.83,669.32a15.59,15.59,0,0,1,0-31.18H277.45a15.33,15.33,0,0,1,9,2.9A144.8,144.8,0,0,0,253,669.32Zm74.42,75.25H130.8a15.59,15.59,0,0,1,0-31.18h83.45a15.35,15.35,0,0,1,11.19,4.83,163,163,0,0,0-6.17,25.5A15.42,15.42,0,0,1,214.25,744.57ZM202,819.83H121.76a15.59,15.59,0,0,1,0-31.18h95.87a229.18,229.18,0,0,0,4.58,31.18Zm-9.6,75.26H112.75a15.6,15.6,0,0,1,0-31.19H235.82a314.84,314.84,0,0,0,14.55,31.19Zm1478.1,720-23.4-8.59c.05-.42.09-.85.13-1.28l.24-2.51a56.46,56.46,0,0,0,.31-6.09l35.79,13.89c.37.14.74.29,1.1.46l-7.89,29.33a2.2,2.2,0,1,0,4.25,1.15l7.6-28.26c.22.14.41.28.62.43l52.93,38.81-62.06-.94a40.4,40.4,0,0,1-10.57-1.56l-33.61-9.54c.63-.93,1.18-1.78,1.64-2.55a60.2,60.2,0,0,0,9.05-26.82l22.35,8.21a2.2,2.2,0,0,0,1.21.09,2.17,2.17,0,0,0,1.62-1.4A2.21,2.21,0,0,0,1670.5,1615.05Zm-66.09-40a82,82,0,0,1,18-1.17c6,.4,11,1.91,14.64,5.07,3,2.6,4.94,6.25,5.81,11l.35,2.5q.13,1.17.18,2.43a54.22,54.22,0,0,1-.28,7.37l-.24,2.51s0,.1,0,.14h0c-.16,1.57-.31,3.07-.47,4.51-1,8.89-2.4,15.84-8.57,26.11-.61,1-1.41,2.24-2.33,3.57-.42.6-.88,1.24-1.37,1.89l-1.41,1.9c-1.72,2.27-3.66,4.69-5.7,7.08-4.65,5.51-9.75,10.83-13.55,13.66l-.25.19c-6.85,5-13.57,9.54-20.25,13.55l-.22.12c-17.94,10.75-35.62,17.6-55.12,18.71,0,0,0,0,0,0-15.19.88-31.5-1.74-49.88-8.72-.75-.27-1.5-.56-2.25-.86-.54-.22-1.08-.42-1.62-.61-1.19-.43-2.4-.81-3.61-1.13-.69-.19-1.36-.36-2-.52h0l-1.79-.38-1.4-.25a47.93,47.93,0,0,0-7-.66c-.93,0-1.86,0-2.81,0l-1.59.07a49.93,49.93,0,0,0-12.14,2.27l-.32.1a4.74,4.74,0,0,1-.53.17l-.19.06-1,.28c-.29.1-.62.19-1,.28-43.33,12.19-412.28,99.1-417,100.22-90.09,19.15-182.69-13.52-241.68-85.26L745.28,1652l-.84-1c66.23.34,124.53-44.46,141.88-109.06.31-1.13.6-2.27.88-3.42s.51-2.17.75-3.26l.08-.38.12-.54.52-2.35.18-.81.31-1.39.28-1.27.2-.94,2.71-12.28q1.17-5.34,1.91-10.74l8.54,22.56.16.46.79,2.21.78,2.2,18.54,52.09,4.58,6.53a1.86,1.86,0,0,0,.33.36c49.42,44.6,187.26,47.46,294.18,42,87.08-4.44,169-15,206.67-20.92l.29,0c10.72-1.53,16.73-2.54,19.75-3.38.5-.13.91-.26,1.25-.38a26.28,26.28,0,0,0,9.79-4.92q2-1,4.45-2c2.19-1,4.61-2,7.24-3l1.41.4h0c1.29-.39,2.59-.77,3.94-1.16h0c1.31-.37,2.67-.75,4-1.15l-2.44-.69c13.48-4.74,30.67-9.18,48.78-9.77a115.54,115.54,0,0,1,15,.43c8.89.85,22-2.34,35.89-5.71,5.88-1.42,11.94-2.88,17.9-4.1,1.35-.28,2.71-.54,4-.79S1603,1575.24,1604.41,1575Zm-64.57-33.32c39.28-2.74,54.26,22.56,57.8,30l-1.15.21L1527,1545A40.8,40.8,0,0,1,1539.84,1541.7Zm-23.73,3.81,2.69,1,2.69,1,67.17,26.06c-3.86.87-7.71,1.8-11.46,2.71-13.52,3.27-26.29,6.38-34.46,5.6-26.94-2.56-53.38,4.79-71.35,11.69l-1.79-.51-2.38-.67-2.35-.68-69-19.58a11.41,11.41,0,0,1-5.15-3.13l-.42-.45a15.56,15.56,0,0,0-14.48-4.59h-.06l-2.27.49a11.43,11.43,0,0,1-5.27-.18l-34.88-9.91,6.8-20.75.73-2.2.72-2.21,15.08-46,.51.2,2.2.85,2.19.86,27.48,10.68a11.52,11.52,0,0,1,4.34,3l2.57,2.87a15.39,15.39,0,0,0,14.93,4.85,10.73,10.73,0,0,1,6.33.49l16.45,6.38,5.7,2.21,5.66,2.2,29.29,11.36,5.69,2.21,5.67,2.2Z"
        transform="translate(-2.41 -33.62)" style="fill:#fff" />
    <path d="M1401.51,1457h343.94a2.21,2.21,0,1,0,0-4.41H1401.51a2.21,2.21,0,1,0,0,4.41Z"
        transform="translate(-2.41 -33.62)" style="fill:#fff" />
    <path d="M1401.51,1485.92h282.6a2.21,2.21,0,0,0,0-4.41h-282.6a2.21,2.21,0,1,0,0,4.41Z"
        transform="translate(-2.41 -33.62)" style="fill:#fff" />
    <path d="M1568.66,1342.09h210a2.21,2.21,0,1,0,0-4.41h-210a2.21,2.21,0,0,0,0,4.41Z"
        transform="translate(-2.41 -33.62)" style="fill:#fff" />
    <path
        d="M641.17,192.07H911.8l9.42,17.4.51,1,22,40.73a2.21,2.21,0,0,0,1.94,1.16,2,2,0,0,0,.42,0,2.21,2.21,0,0,0,1.77-1.91l4.7-39.94.13-1.13,2-17.23H969a26.76,26.76,0,0,0,26.38-23.4l13-101.25a27.07,27.07,0,0,0-6.49-21.3,26.53,26.53,0,0,0-19.91-9H653.38A26.72,26.72,0,0,0,627,60.71L614.76,162a27.06,27.06,0,0,0,6.59,21.16A26.5,26.5,0,0,0,641.17,192.07Zm-22-29.58,12.2-101.26a22.31,22.31,0,0,1,22-19.73H982A22.09,22.09,0,0,1,998.63,49a22.58,22.58,0,0,1,5.42,17.82L991,168.11a22.35,22.35,0,0,1-22,19.55H952.78a2.2,2.2,0,0,0-2.19,2l-2.33,19.72-.12,1.1-3.82,32.51-17.57-32.51-.53-1-11.15-20.64a2.21,2.21,0,0,0-1.94-1.15h-272a22.1,22.1,0,0,1-16.52-7.46A22.6,22.6,0,0,1,619.14,162.49Z"
        transform="translate(-2.41 -33.62)" style="fill:#fff" />
    <path
        d="M793.35,102.15h92.8a10.92,10.92,0,0,0,10.92-10.93v-.11a10.92,10.92,0,0,0-10.92-10.93h-92.8a10.92,10.92,0,0,0-10.93,10.93v.11A10.92,10.92,0,0,0,793.35,102.15Z"
        transform="translate(-2.41 -33.62)" style="fill:#fff" />
    <path
        d="M691.39,102.15H741a10.92,10.92,0,0,0,10.92-10.93v-.11A10.92,10.92,0,0,0,741,80.18H691.39a10.92,10.92,0,0,0-10.92,10.93v.11A10.92,10.92,0,0,0,691.39,102.15Z"
        transform="translate(-2.41 -33.62)" style="fill:#fff" />
    <path
        d="M682.62,149.6h239a10.91,10.91,0,0,0,10.92-10.92v-.12a10.91,10.91,0,0,0-10.92-10.92h-239a10.92,10.92,0,0,0-10.92,10.92v.12A10.92,10.92,0,0,0,682.62,149.6Z"
        transform="translate(-2.41 -33.62)" style="fill:#fff" />
</svg>