<svg id="Background" xmlns="http://www.w3.org/2000/svg" viewBox="0 0 1772.95 1049.82"><path d="M978.84,364.21a3.93,3.93,0,0,0,2.42-.64,7.8,7.8,0,0,0,2.33-2.14,6.27,6.27,0,0,0,1.22-3.16l0-.28-.28,0a27.43,27.43,0,0,0-3.8-.15,6.22,6.22,0,0,0-3,.76A2.91,2.91,0,0,0,976.4,361a3,3,0,0,0,.53,2.34A2.86,2.86,0,0,0,978.84,364.21Z" transform="translate(-31.74 -68.16)" style="fill:#fff"/><path d="M720.18,706.6a1.36,1.36,0,0,0-2.25.77l-5.25,27a1.54,1.54,0,0,0,.05.71,1.37,1.37,0,0,0,1.75.85l26-8.95a1.39,1.39,0,0,0,.59-.39,1.37,1.37,0,0,0-.12-1.94Z" transform="translate(-31.74 -68.16)" style="fill:#fff"/><path d="M1362.81,300.87,484.14,205.81,419.32,804.88,1298,899.94ZM1028.2,362.34l.54-5.16a13,13,0,0,1,3-7,16.36,16.36,0,0,1,6.41-4.71,17.72,17.72,0,0,1,15.74,1.33,14.66,14.66,0,0,1,5.05,5.28,11.94,11.94,0,0,1,1.38,7.24,7.9,7.9,0,0,1-1.5,4.45,4.25,4.25,0,0,1-2.79,1.42,16.81,16.81,0,0,1-3.25,0l-13.62-1.43,0,.42a5.16,5.16,0,0,0,1.54,4.41,8.14,8.14,0,0,0,5.06,2.14,9.5,9.5,0,0,0,3.81-.28c1.08-.34,2-.68,2.89-1a5,5,0,0,1,2.39-.39,3.13,3.13,0,0,1,2.1,1.08,5.53,5.53,0,0,1,1.17,2.12,5.3,5.3,0,0,1,.25,2,4.06,4.06,0,0,1-1.92,2.66,13.17,13.17,0,0,1-4.81,2,21.21,21.21,0,0,1-7.06.3,21.83,21.83,0,0,1-9-2.85,15.16,15.16,0,0,1-5.77-5.92A13.73,13.73,0,0,1,1028.2,362.34Zm-25.58-.34,3.46-33a2.74,2.74,0,0,1,2-2.21,7.94,7.94,0,0,1,3.77-.54,8.12,8.12,0,0,1,3.68,1.32,2.73,2.73,0,0,1,1.47,2.58l-1.18,11.29,8,.84a2.19,2.19,0,0,1,1.88,1.45,5.68,5.68,0,0,1-.56,5.33,2.19,2.19,0,0,1-2.14,1l-8-.84-1.46,13.9a2.91,2.91,0,0,0,.41,2.22,3.3,3.3,0,0,0,2.19.84l3,.32a4.17,4.17,0,0,1,3.37,1.82,5,5,0,0,1-.66,6.31,4.28,4.28,0,0,1-3.68,1l-3-.32q-6.71-.7-10-3.93T1002.62,362Zm-37.4-.65a9.39,9.39,0,0,1,2.8-6.27,11.39,11.39,0,0,1,6.17-2.63,36.22,36.22,0,0,1,8.67,0l2.54.27.07-.71a6.1,6.1,0,0,0-.24-2.45,4.66,4.66,0,0,0-1.41-2.18,5.47,5.47,0,0,0-3.09-1.15,12.37,12.37,0,0,0-4.37.12,9.25,9.25,0,0,0-2.31.93,2.78,2.78,0,0,1-1.82.41,3,3,0,0,1-2.54-2.05,7.6,7.6,0,0,1-.56-3.77,3.62,3.62,0,0,1,2.25-2.76,15.77,15.77,0,0,1,4.94-1.48,22,22,0,0,1,5.47-.13,19.14,19.14,0,0,1,9.11,2.95,12.5,12.5,0,0,1,4.61,5.66,14.48,14.48,0,0,1,.92,6.91l-1.77,16.8a2.86,2.86,0,0,1-1.77,2.24,6.91,6.91,0,0,1-3.95.58,5.87,5.87,0,0,1-3.35-1.35,2.88,2.88,0,0,1-1.16-2.55l.16-1.55a22.64,22.64,0,0,1-4.86,3.45,10.93,10.93,0,0,1-6.46,1.07,9.5,9.5,0,0,1-6.11-3C965.53,367,964.89,364.55,965.22,361.35Zm-31-8.9.5-4.8a17.25,17.25,0,0,1,2.46-7.44,12.32,12.32,0,0,1,5.75-4.82,18.45,18.45,0,0,1,9.25-1,21.22,21.22,0,0,1,6.05,1.46,11.51,11.51,0,0,1,4,2.6,3.85,3.85,0,0,1,1.25,3.05,6.1,6.1,0,0,1-.77,2.21,6.48,6.48,0,0,1-1.71,2,3.13,3.13,0,0,1-2.32.68,3.57,3.57,0,0,1-1.61-.6,15.71,15.71,0,0,0-1.93-1.05,9.37,9.37,0,0,0-3.06-.75c-2.11-.23-3.67.09-4.66.93a5.65,5.65,0,0,0-1.77,3.88l-.5,4.8a5.65,5.65,0,0,0,.92,4.17q1.19,1.55,4.44,1.89a7.6,7.6,0,0,0,3.08-.17,20.65,20.65,0,0,0,2-.75,3.54,3.54,0,0,1,1.78-.28,3.92,3.92,0,0,1,2.45,1.12,5.16,5.16,0,0,1,1.37,2.24,5.76,5.76,0,0,1,.29,2.35,4.08,4.08,0,0,1-1.94,2.83,12,12,0,0,1-4.62,1.87,20.33,20.33,0,0,1-6.3.23,18.74,18.74,0,0,1-8.93-2.94,12.16,12.16,0,0,1-4.66-5.91A17.13,17.13,0,0,1,934.19,352.45ZM922,316.35a6,6,0,0,1,4.25-1.05,5.88,5.88,0,0,1,3.9,1.91,4.61,4.61,0,0,1,1.29,3.7,4.74,4.74,0,0,1-2,3.35,5.74,5.74,0,0,1-4.22,1.13,5.89,5.89,0,0,1-3.93-2,4.76,4.76,0,0,1-1.33-3.71A4.61,4.61,0,0,1,922,316.35Zm-1.51,16a7.59,7.59,0,0,1,4-.51,7.79,7.79,0,0,1,3.78,1.33,2.71,2.71,0,0,1,1.37,2.57l-2.82,26.89a2.94,2.94,0,0,1-1.87,2.16,7,7,0,0,1-4,.65,6.75,6.75,0,0,1-3.8-1.47,2.93,2.93,0,0,1-1.27-2.49l2.82-26.89A2.76,2.76,0,0,1,920.49,332.39ZM895,323.71a15.52,15.52,0,0,1,2.47-7.13,13.33,13.33,0,0,1,5-4.57,11.27,11.27,0,0,1,6.41-1.18l5.08.54a3.54,3.54,0,0,1,2.92,1.76,5.36,5.36,0,0,1,.69,3.25,5.29,5.29,0,0,1-1.36,3.07,3.56,3.56,0,0,1-3.21,1.09l-2.69-.28a4.58,4.58,0,0,0-2,.21,3.26,3.26,0,0,0-1.51,1.09,4.08,4.08,0,0,0-.72,2.1l-.65,6.21,8,.84a2.2,2.2,0,0,1,1.89,1.45,5.48,5.48,0,0,1,.39,2.72,5.56,5.56,0,0,1-1,2.61,2.21,2.21,0,0,1-2.14,1l-8-.84-2.36,22.51a2.77,2.77,0,0,1-1.92,2.23,8,8,0,0,1-4,.5,7.3,7.3,0,0,1-3.71-1.31,2.72,2.72,0,0,1-1.3-2.57Zm-16-11.89a6,6,0,0,1,4.25-1.05,6,6,0,0,1,3.9,1.91,4.62,4.62,0,0,1,1.29,3.7,4.78,4.78,0,0,1-2,3.36,6.15,6.15,0,0,1-8.16-.86,4.7,4.7,0,0,1-1.32-3.71A4.55,4.55,0,0,1,879,311.82Zm-3.28,18.28a2.75,2.75,0,0,1,1.77-2.24,7.54,7.54,0,0,1,4-.5,7.89,7.89,0,0,1,3.79,1.32,2.77,2.77,0,0,1,1.37,2.57l-2.83,26.9a2.92,2.92,0,0,1-1.87,2.15,7,7,0,0,1-4,.66,6.72,6.72,0,0,1-3.81-1.48,3,3,0,0,1-1.27-2.48Zm-28.89,15.52,3.46-33a2.74,2.74,0,0,1,2-2.21,7.92,7.92,0,0,1,3.77-.54,8.12,8.12,0,0,1,3.68,1.32,2.73,2.73,0,0,1,1.47,2.58L860,325.1l8,.84a2.19,2.19,0,0,1,1.88,1.45,5.68,5.68,0,0,1-.56,5.33,2.19,2.19,0,0,1-2.14,1l-8-.84-1.46,13.9a2.91,2.91,0,0,0,.41,2.22,3.3,3.3,0,0,0,2.19.84l3,.32a4.2,4.2,0,0,1,3.37,1.82,5,5,0,0,1,.8,3.26,5,5,0,0,1-1.46,3,4.25,4.25,0,0,1-3.68,1l-3-.32q-6.71-.71-10-3.93T846.78,345.62Zm-26.87-21.38a2.75,2.75,0,0,1,1.77-2.24,7.44,7.44,0,0,1,3.94-.51,6.18,6.18,0,0,1,3.36,1.28,2.76,2.76,0,0,1,1.16,2.55l-.27,2.61a11.92,11.92,0,0,1,2.33-2.79,12.23,12.23,0,0,1,3.21-2.09,7,7,0,0,1,3.53-.59l2,.22a3.46,3.46,0,0,1,2.57,1.69,5.1,5.1,0,0,1,.82,3.44,5.22,5.22,0,0,1-1.52,3.27,3.5,3.5,0,0,1-2.87,1.13l-2.05-.22a6.09,6.09,0,0,0-3.8.92,9.77,9.77,0,0,0-3.28,3.33,12.69,12.69,0,0,0-1.71,5.46L828,352.29a2.93,2.93,0,0,1-1.86,2.15,7.11,7.11,0,0,1-4.07.65,6.57,6.57,0,0,1-3.73-1.47,2.93,2.93,0,0,1-1.28-2.48Zm-39.09,12.09.54-5.15a13.06,13.06,0,0,1,2.95-7,16.22,16.22,0,0,1,6.42-4.71,17.72,17.72,0,0,1,15.74,1.33,14.75,14.75,0,0,1,5,5.28,11.87,11.87,0,0,1,1.37,7.24,7.83,7.83,0,0,1-1.5,4.45,4.25,4.25,0,0,1-2.79,1.42,16.7,16.7,0,0,1-3.24,0l-13.62-1.43,0,.42a5.16,5.16,0,0,0,1.54,4.41,8.11,8.11,0,0,0,5,2.13,9.31,9.31,0,0,0,3.81-.27c1.09-.34,2-.68,2.89-1a5,5,0,0,1,2.4-.39,3.13,3.13,0,0,1,2.1,1.08,5.88,5.88,0,0,1,1.42,4.14,4.1,4.1,0,0,1-1.92,2.65,13,13,0,0,1-4.82,2,21,21,0,0,1-7.06.29,21.72,21.72,0,0,1-9.05-2.84,15.2,15.2,0,0,1-5.76-5.92A13.75,13.75,0,0,1,780.82,336.33Zm-39.25-6.12,2-18.7q.63-6.08,3.31-9.5a13.21,13.21,0,0,1,6.74-4.65,21.88,21.88,0,0,1,8.64-.73,23.68,23.68,0,0,1,8.89,2.61,15,15,0,0,1,5.82,5.43,12.51,12.51,0,0,1,1.53,7.87c-.23,2.12-.82,3.47-1.79,4.06a6.87,6.87,0,0,1-4.27.58,9.26,9.26,0,0,1-3.7-1.1,2.86,2.86,0,0,1-1.45-2.79,11.58,11.58,0,0,0,0-1.79,7.19,7.19,0,0,0-.52-2.19,4.55,4.55,0,0,0-1.65-2,7.4,7.4,0,0,0-3.46-1.08,6.21,6.21,0,0,0-4.87,1.24c-1.23,1-2,2.75-2.22,5.15l-2,18.71c-.25,2.4.13,4.23,1.14,5.51a6.32,6.32,0,0,0,4.54,2.22,6.84,6.84,0,0,0,3.43-.35,4.41,4.41,0,0,0,2-1.61,8.36,8.36,0,0,0,1-2.21c.22-.79.39-1.53.52-2.23a2.85,2.85,0,0,1,2-2.47A9.63,9.63,0,0,1,771,330a7,7,0,0,1,4.13,1.47c.82.78,1.12,2.22.9,4.34a13.65,13.65,0,0,1-3.17,7.73,14.71,14.71,0,0,1-6.85,4.38,22.53,22.53,0,0,1-9.25.78,21.87,21.87,0,0,1-8.3-2.51,13.23,13.23,0,0,1-5.62-5.95Q740.94,336.29,741.57,330.21Zm-118.3,53.68a3,3,0,0,1,3.3-2.66l611.59,66.17a3,3,0,0,1-.32,6,1.83,1.83,0,0,1-.33,0L625.93,387.19A3,3,0,0,1,623.27,383.89Zm-54.16,14.28a3,3,0,0,1,3.3-2.66L1236,467.31a3,3,0,0,1-.32,6,1.77,1.77,0,0,1-.32,0L571.77,401.48A3,3,0,0,1,569.11,398.17ZM566.86,419a3,3,0,0,1,3.3-2.66l663.59,71.8a3,3,0,0,1-.32,6h-.32l-663.59-71.8A3,3,0,0,1,566.86,419Zm-9.12,82.77a3,3,0,0,1,3.3-2.67l155.35,16.48a3,3,0,0,1-.31,6,1.67,1.67,0,0,1-.32,0L560.4,505A3,3,0,0,1,557.74,501.74Zm-4.63,84.76a138.84,138.84,0,0,0,16.21-4.92q6.18-2.3,12.1-5.2a1.4,1.4,0,0,1,.19-.39,168,168,0,0,0,22.17-41.54,1.5,1.5,0,0,1,2.89.8c-1.63,8.33-3,16.72-4,25.16-.14,1.13-.27,2.26-.4,3.4a135.92,135.92,0,0,0,17.28-15,1.52,1.52,0,0,1,2.56,1.06,111.3,111.3,0,0,1-4.71,25.47h.92q31.29.07,62.59.08t62.6-.07a1.5,1.5,0,0,1,0,3l-35.42,0q-31.29,0-62.59,0-14.54,0-29.08-.07-1.18,3.45-2.6,6.83l28.18-.59,56.58-1.19c1.93,0,1.93,3,0,3l-31.91.67-54.15,1.14c-1.22,2.71-2.64,5.52-5.24,7.1s-6.45,1.54-8.45-1.09a9.08,9.08,0,0,1-1.48-5.69l-43.84.92A1.51,1.51,0,0,1,553.11,586.5Zm66.2,111.56a5,5,0,0,1,.85,2.8,5.07,5.07,0,0,1-2,4.08,5.08,5.08,0,0,0-2,4.07,4.91,4.91,0,0,0,.29,1.68,5.1,5.1,0,0,1-2.87,6.38,5.05,5.05,0,0,0-3.14,4.67c0,.15,0,.31,0,.46s0,.29,0,.44a5.08,5.08,0,0,1-4.38,5,5,5,0,0,0-2.84,1.39,5.09,5.09,0,0,0-1.47,2.8,5.07,5.07,0,0,1-5,4.24,5.44,5.44,0,0,1-.57,0,5.63,5.63,0,0,0-.58,0,5.08,5.08,0,0,0-4.64,3,5.06,5.06,0,0,1-6.45,2.68,5.16,5.16,0,0,0-1.8-.33,5.05,5.05,0,0,0-4,1.93,5.09,5.09,0,0,1-6.92,1,5.07,5.07,0,0,0-6,.11,5.08,5.08,0,0,1-7-.75A5.09,5.09,0,0,0,553,742.3a5.07,5.07,0,0,1-6.54-2.46,5.09,5.09,0,0,0-4.56-2.86,4.74,4.74,0,0,0-.75.06,4.87,4.87,0,0,1-.76.06,5.09,5.09,0,0,1-5-4.06,5.07,5.07,0,0,0-1.56-2.75,5.14,5.14,0,0,0-2.89-1.29,5.06,5.06,0,0,1-4.56-5c0-.09,0-.18,0-.27s0-.17,0-.25a5.09,5.09,0,0,0-3.32-4.77,5.08,5.08,0,0,1-3.32-4.76,4.88,4.88,0,0,1,.23-1.5,5,5,0,0,0,.23-1.51,5,5,0,0,0-2.19-4.17,5.07,5.07,0,0,1-1.43-6.84,5.07,5.07,0,0,0-.48-6,5.08,5.08,0,0,1,.31-7,5.09,5.09,0,0,0,1-5.92,5.07,5.07,0,0,1,2-6.69,5.08,5.08,0,0,0,2.58-4.41,4.94,4.94,0,0,0-.12-1.07,4.94,4.94,0,0,1-.12-1.07,5.07,5.07,0,0,1,3.76-4.89,5.11,5.11,0,0,0,3.75-4.7,5.08,5.08,0,0,1,5-4.88,5,5,0,0,0,3-1,5.07,5.07,0,0,0,1.81-2.59,5.08,5.08,0,0,1,4.86-3.63,5,5,0,0,1,1.2.15,5,5,0,0,0,1.21.15,5.07,5.07,0,0,0,4.34-2.46,5.06,5.06,0,0,1,6.73-1.86,5.07,5.07,0,0,0,5.95-.86,5.07,5.07,0,0,1,7-.12,5,5,0,0,0,3.42,1.33,5.12,5.12,0,0,0,2.55-.69,5.08,5.08,0,0,1,6.8,1.62,5.07,5.07,0,0,0,5.62,2.11,5.08,5.08,0,0,1,6.19,3.26,5.07,5.07,0,0,0,4.8,3.44H600a5.09,5.09,0,0,1,5.07,4.69,5.08,5.08,0,0,0,3.91,4.56,5.09,5.09,0,0,1,3.93,4.94,5.35,5.35,0,0,1-.08.89,5.45,5.45,0,0,0-.08.89,5.11,5.11,0,0,0,2.73,4.51,5.05,5.05,0,0,1,2.28,6.6,5.06,5.06,0,0,0,1.23,5.88,5.09,5.09,0,0,1,.57,7,5,5,0,0,0-.27,6ZM762.1,730a35.91,35.91,0,1,1-28.4-42.11A35.92,35.92,0,0,1,762.1,730Zm20.32-60.83-10.77,3.92-12.13,4.4a94.35,94.35,0,0,0-35.58-2c11.17,0,25.18,1.42,34,4.77L759,692.94a42.11,42.11,0,0,0-3.45-2.76,43.69,43.69,0,0,0-61.33,3.88c-.89.78-1.76,1.58-2.6,2.42l-.94-13.71L671,678.61,666.67,696a3.64,3.64,0,0,1-2,6.66l-.71,9.93-1,14.78-10.18-2.55,6.08-13.48,4.11-9.07a3.68,3.68,0,0,1-1.93-2.86,3.64,3.64,0,0,1,3.26-4l4.33-17.37-3.49-.73c-.91-.19-1.45-.61-1.49-1.14s.45-1,1.31-1.33l56.24-20.38a4.76,4.76,0,0,1,2.59-.19L774.35,665l7.9,1.67c.91.2,1.48.6,1.49,1.13S783.28,668.82,782.42,669.13Zm87.72-196.3a3,3,0,0,1-3,2.68l-.33,0L567.27,443.08a3,3,0,0,1,.64-6l299.57,32.41A3,3,0,0,1,870.14,472.83Zm372.86,269-8.93,6.65,3.69,10.5-10.3,4.23,1,11.09-11,1.53-1.83,11-11.06-1.26L1200,795.69l-5-1.91-5.3,49L1162.26,824l-30.8,12.45,5.3-49-5.3.8-2.22-10.9-11.08-1.14.57-11.11-10.45-3.86,3.31-10.63-9.15-6.33,5.84-9.47-7.29-8.41,8-7.71-5-10,9.68-5.48-2.34-10.89,10.75-2.9.44-11.12,11.13-.14,3.19-10.66,10.81,2.63,5.74-9.53,9.82,5.24,7.94-7.81,8.2,7.52L1189,660l6.08,9.33,10.71-3,3.57,10.54,11.13-.26.84,11.1,10.84,2.51-2,11,9.88,5.13-4.62,10.13,8.29,7.43-7,8.66Z" transform="translate(-31.74 -68.16)" style="fill:#fff"/><path d="M1049.68,358.24a1.91,1.91,0,0,0,.5-1.3,3.72,3.72,0,0,0-.5-2.44,4.41,4.41,0,0,0-1.75-1.62,7.17,7.17,0,0,0-2.46-.72,6.67,6.67,0,0,0-2.48.2,4.45,4.45,0,0,0-2.06,1.22,3.74,3.74,0,0,0-1,2.28l-.18,1.7,8.76.92A1.57,1.57,0,0,0,1049.68,358.24Z" transform="translate(-31.74 -68.16)" style="fill:#fff"/><path d="M597.51,585.53q.06-.66.09-1.29c.1-2,.23-4,.37-5.94l-13.64,0a140.66,140.66,0,0,1-19.16,8l20.24-.43Z" transform="translate(-31.74 -68.16)" style="fill:#fff"/><path d="M600.65,583.27c0,.73-.09,1.46-.13,2.19l10.1-.21c.55-1.33,1.06-2.67,1.56-4,.37-1,.73-1.94,1.07-2.92l-12.29,0C600.84,580,600.74,581.62,600.65,583.27Z" transform="translate(-31.74 -68.16)" style="fill:#fff"/><path d="M600.4,588.78a5.71,5.71,0,0,0,.9,3.75c2.08,2.42,5.46-.22,6.7-2.13a23.31,23.31,0,0,0,1.22-2.12l-8.81.18C600.4,588.57,600.4,588.67,600.4,588.78Z" transform="translate(-31.74 -68.16)" style="fill:#fff"/><path d="M802.3,332.24a1.91,1.91,0,0,0,.49-1.3,3.76,3.76,0,0,0-.49-2.45,4.49,4.49,0,0,0-1.76-1.61,6.84,6.84,0,0,0-2.45-.72,6.72,6.72,0,0,0-2.49.2,4.42,4.42,0,0,0-2.05,1.22,3.74,3.74,0,0,0-1,2.28l-.18,1.7,8.75.92A1.58,1.58,0,0,0,802.3,332.24Z" transform="translate(-31.74 -68.16)" style="fill:#fff"/><path d="M598.19,575.3c.13-1.78.29-3.56.45-5.34-2.83,1.88-5.74,3.65-8.7,5.31Z" transform="translate(-31.74 -68.16)" style="fill:#fff"/><path d="M601.37,548.16a170.54,170.54,0,0,1-14.32,25.31,134.76,134.76,0,0,0,12-7.36Q600,557.11,601.37,548.16Z" transform="translate(-31.74 -68.16)" style="fill:#fff"/><path d="M614.25,575.36c.45-1.37.86-2.74,1.24-4.13a106.8,106.8,0,0,0,3.27-17.37q-4.77,4.6-10,8.75-3.39,2.7-6.94,5.18c-.25,2.51-.48,5-.67,7.52Z" transform="translate(-31.74 -68.16)" style="fill:#fff"/><path d="M391.07,826l930,100.62,70-646.93-930-100.62Zm91.51-624.42,884.64,95.72-.22,2-65.46,605-2-.21L414.91,808.42l.22-2,65.46-605Z" transform="translate(-31.74 -68.16)" style="fill:#fff"/><path d="M572.53,649.38a43.8,43.8,0,1,0,38.83,48.26A43.8,43.8,0,0,0,572.53,649.38Zm7.07,66.82-13.33-9-14.94,5.9,4.4-15.44L545.5,685.32l16-.59,8.62-13.55,5.52,15.08,15.55,4-12.64,9.9Z" transform="translate(-31.74 -68.16)" style="fill:#fff"/><path d="M1222.8,719.16l3.69-8.09-7.89-4.1,1.56-8.75-8.66-2-.67-8.86-8.88.21-2.85-8.42-8.56,2.41-4.85-7.44-7.69,4.46-6.55-6-6.34,6.23-7.84-4.18-4.58,7.61-8.64-2.1-2.55,8.51-8.88.11-.35,8.88-8.58,2.32,1.87,8.69-7.74,4.37,4,8-6.4,6.16,5.82,6.71-4.67,7.57,7.31,5.05-2.64,8.49,8.34,3.07-.45,8.88,8.84.91.62,3,1.16,5.67,8.79-1.32,3.88,8,8.18-3.46,5.75,6.77,7.07-5.39,7.25,5.14,5.51-7,8.3,3.17,2.34-5.28,1.26-2.85,8.83,1,1.46-8.76,8.8-1.23-.76-8.85,8.22-3.37-2.95-8.39,7.13-5.31-4.94-7.39,5.58-6.92Zm-17.15-5.41-8.15,7.71-7.18,6.79-11.68,11-.09.08-2.37,2.25-13.82,13.07c-3.34,3.16-10.09,2-12.15-2.14L1143,738l-5.28-10.55c-1.23-2.45-.25-5.11,2.37-6.44a7.79,7.79,0,0,1,3.56-.82c3,0,6,1.49,7.18,3.95l4.06,8.12,3.43,6.84-.13.54.42.05.13.26.24-.22,2.38-2.26,4.28-4,3.22-3,9.44-8.94,6.09-5.75,1.9-1.81,8.22-7.77c2.56-2.42,7.39-2.4,10.43.06h0C1207.57,708.36,1207.9,711.63,1205.65,713.75Z" transform="translate(-31.74 -68.16)" style="fill:#fff"/><path d="M1803.4,505.19,1699.17,391.78a10.83,10.83,0,0,0-6.42-3.36l-153-21.55a4.83,4.83,0,0,0-5,2.56h0c0,.09-.09.18-.14.28l-9.36,17.64a4.8,4.8,0,0,0,.71,5.56l31.83,34.63-22.46,41.8c-3.82,7.21-4.24,15.79-1.25,25.49,7.38,23.84,34,50.21,69.41,68.8,26.45,13.89,53.28,20.89,74.84,20.89,14.27,0,26.23-3.07,34.25-9.25l-14.41,66.13a1.63,1.63,0,0,0,.25,1.27,1.6,1.6,0,0,0,1.11.69l21.86,3.21h.23a1.59,1.59,0,0,0,1-.36,1.61,1.61,0,0,0,.61-1.14l6.28-81.11a7.15,7.15,0,0,0-4.25-7.07l17.35-32.28,46.95,6.61a4.12,4.12,0,0,0,.7,0,4.85,4.85,0,0,0,4.3-2.6l9.51-17.93h0A4.81,4.81,0,0,0,1803.4,505.19Zm-77.12,58.53-6.13,79.37-18.39-2.7,15-69,.82-3.78,1.08-4.95a3.83,3.83,0,0,1,3.3-3,3.42,3.42,0,0,1,1,0,3.75,3.75,0,0,1,.75.19A3.86,3.86,0,0,1,1726.28,563.72Zm65.43-36.56a1.6,1.6,0,0,1-1.66.85l-45.76-6.45-1.72-.24-1.73-.25-11.73-1.64-.22,1.61-.23,1.62-3.81,28.18-.62,4.63-.14,1-.13.9a1.53,1.53,0,0,1-.26.69,1.64,1.64,0,0,1-1.27.72h-.3a1.57,1.57,0,0,1-1.1-.67.13.13,0,0,1-.06-.07,1.61,1.61,0,0,1-.24-1.1l0-.45,4.66-34.3.21-1.62.22-1.63-88.78-12.5a7.49,7.49,0,0,1-4.47-2.34l-70.84-77.07-1.17-1.27-1.16-1.27-31.07-33.8a1.54,1.54,0,0,1-.22-1.82l7.35-13.87,31.89,34.69,1.17,1.27,2.19,2.39,69,75a10.74,10.74,0,0,0,6.42,3.37L1728,503.3l.06-.5-1.17-1.3-1.68-1.9-8.77-9.8h0l-3.09-3.47-3.11-3.48-40.24-45a1.64,1.64,0,0,1,2.44-2.18l46,51.5,3.11,3.48,3.1,3.47h0l5.52,6.18.78.87a1.64,1.64,0,0,1,.42.95c0,.12,0,.24,0,.36l-.17,1.26,16.13,2.28,3.19.45h0l1.72.24,46.79,6.59Z" transform="translate(-31.74 -68.16)" style="fill:#fff"/><path d="M278.11,334.24a10,10,0,0,0,1.33,19.91,10.2,10.2,0,0,0,1.35-.09,10,10,0,0,0-2.68-19.82ZM280.5,352a7.89,7.89,0,1,1,6.77-8.87A7.89,7.89,0,0,1,280.5,352Z" transform="translate(-31.74 -68.16)" style="fill:#fff"/><path d="M1461.6,685.44a15,15,0,0,0,2,29.86,13.81,13.81,0,0,0,2-.14,15,15,0,1,0-4-29.72Zm3.59,26.59a11.83,11.83,0,1,1,10.15-13.31A11.84,11.84,0,0,1,1465.19,712Z" transform="translate(-31.74 -68.16)" style="fill:#fff"/><path d="M1048.2,1087.81a2.26,2.26,0,0,0,1.37-4.06l-8.75-6.67a2.26,2.26,0,1,0-2.74,3.59l8.75,6.67A2.21,2.21,0,0,0,1048.2,1087.81Z" transform="translate(-31.74 -68.16)" style="fill:#fff"/><path d="M1082.64,1109l-8.75-6.68a2.26,2.26,0,0,0-2.74,3.6l8.75,6.67a2.21,2.21,0,0,0,1.37.47,2.28,2.28,0,0,0,1.8-.89A2.25,2.25,0,0,0,1082.64,1109Z" transform="translate(-31.74 -68.16)" style="fill:#fff"/><path d="M1052.47,1105.17a2.25,2.25,0,0,0-3.17.42l-6.67,8.76a2.26,2.26,0,0,0,3.6,2.74l6.67-8.75A2.27,2.27,0,0,0,1052.47,1105.17Z" transform="translate(-31.74 -68.16)" style="fill:#fff"/><path d="M1071.42,1084l6.68-8.75a2.26,2.26,0,0,0-3.6-2.74l-6.67,8.75a2.26,2.26,0,0,0,.42,3.17,2.24,2.24,0,0,0,3.17-.43Z" transform="translate(-31.74 -68.16)" style="fill:#fff"/><path d="M473.85,77.2l8.75,6.67a2.26,2.26,0,0,0,2.74-3.6l-8.75-6.67a2.26,2.26,0,1,0-2.74,3.6Z" transform="translate(-31.74 -68.16)" style="fill:#fff"/><path d="M506.48,99.23a2.27,2.27,0,0,0,.43,3.17l8.75,6.67a2.23,2.23,0,0,0,1.37.47,2.27,2.27,0,0,0,1.38-4.07l-8.75-6.67A2.27,2.27,0,0,0,506.48,99.23Z" transform="translate(-31.74 -68.16)" style="fill:#fff"/><path d="M485.06,102.12l-6.67,8.75a2.28,2.28,0,0,0,.43,3.18,2.27,2.27,0,0,0,3.17-.43l6.67-8.75a2.27,2.27,0,1,0-3.6-2.75Z" transform="translate(-31.74 -68.16)" style="fill:#fff"/><path d="M504,81a2.26,2.26,0,0,0,1.37.46,2.23,2.23,0,0,0,1.8-.89l6.67-8.75a2.27,2.27,0,0,0-3.6-2.75l-6.67,8.76A2.27,2.27,0,0,0,504,81Z" transform="translate(-31.74 -68.16)" style="fill:#fff"/><path d="M860.18,1005.4,734,992.4a2.25,2.25,0,0,0-1.22,4.27,2.16,2.16,0,0,0,.76.22l126.19,13a2.26,2.26,0,0,0,.46-4.49Z" transform="translate(-31.74 -68.16)" style="fill:#fff"/><path d="M494.1,894.24l-51.53-5.31a2.26,2.26,0,0,0-1.22,4.28,2.39,2.39,0,0,0,.76.22l51.53,5.31a2.26,2.26,0,1,0,.46-4.5Z" transform="translate(-31.74 -68.16)" style="fill:#fff"/><path d="M741.94,922.06a2.26,2.26,0,0,0-2-2.48L549.73,900a2.25,2.25,0,0,0-1.22,4.27,2.16,2.16,0,0,0,.76.22l190.19,19.6A2.26,2.26,0,0,0,741.94,922.06Z" transform="translate(-31.74 -68.16)" style="fill:#fff"/><path d="M1193.76,196a2.22,2.22,0,0,0,.76.22l52.28,5.39a2.26,2.26,0,1,0,.46-4.49L1195,191.77a2.26,2.26,0,0,0-1.23,4.27Z" transform="translate(-31.74 -68.16)" style="fill:#fff"/><path d="M1219.36,996.64l-52.28-5.39a2.26,2.26,0,0,0-1.22,4.28,2.15,2.15,0,0,0,.76.21l52.28,5.39a2.26,2.26,0,1,0,.46-4.49Z" transform="translate(-31.74 -68.16)" style="fill:#fff"/><path d="M1285.75,205.52a2.16,2.16,0,0,0,.76.22l51.38,5.29a2.26,2.26,0,1,0,.46-4.49L1287,201.25a2.26,2.26,0,0,0-1.22,4.27Z" transform="translate(-31.74 -68.16)" style="fill:#fff"/><path d="M833.11,128.22a2.1,2.1,0,0,0,.75.22l97.09,10a2.26,2.26,0,0,0,.46-4.49l-97.08-10a2.25,2.25,0,0,0-1.22,4.27Z" transform="translate(-31.74 -68.16)" style="fill:#fff"/><path d="M588.87,135.48a2.16,2.16,0,0,0,.76.22l97.08,10a2.26,2.26,0,0,0,.46-4.5l-97.08-10a2.25,2.25,0,0,0-1.22,4.27Z" transform="translate(-31.74 -68.16)" style="fill:#fff"/><path d="M133.41,530.64a71.86,71.86,0,0,0-46.63,30,72.91,72.91,0,0,0-12.34,54.2c3.11,18.37,14.63,35.65,31.6,47.4a73.39,73.39,0,0,1,25.07,29.67l.26.59a29.12,29.12,0,0,0,10.09,12c-2.26,2.6-3.34,5.41-2.86,8.14A8.2,8.2,0,0,0,141,717a3.07,3.07,0,0,1,.61,3.44,8.2,8.2,0,0,0-.72,4.9c.63,3.58,3.84,6.38,8.57,8a6,6,0,0,0,.07,1.27c1,5.59,10.44,8.59,21.12,6.71s18.54-7.94,17.55-13.53a5.13,5.13,0,0,0-.37-1.21c3.88-3.2,5.94-6.92,5.31-10.51a8.25,8.25,0,0,0-2.35-4.35,3.07,3.07,0,0,1-.61-3.45,8.18,8.18,0,0,0,.72-4.89,9.36,9.36,0,0,0-4.5-6.09,29.17,29.17,0,0,0,6-15.56l0-.39a71.88,71.88,0,0,1,13.12-36.29A71.44,71.44,0,0,0,218,590.55C211,551.22,172.31,523.78,133.41,530.64Zm49,192.07c-6.79,4.76-14.87,7-20.45,8a.83.83,0,0,1-1-.66.84.84,0,0,1,.66-1c5.42-1,13.26-3.16,19.8-7.75a.82.82,0,0,1,1.15.2A.83.83,0,0,1,182.43,722.71Zm-12.23-8.94a68,68,0,0,0,6.65-2.77.82.82,0,0,1,1.1.38.83.83,0,0,1-.38,1.11,72.39,72.39,0,0,1-6.81,2.84l-.14,0a.83.83,0,0,1-.92-.53A.84.84,0,0,1,170.2,713.77Zm34-69.64a73.56,73.56,0,0,0-13.43,37.11l0,.39a27.61,27.61,0,0,1-22.72,25l-5.23.92a27.62,27.62,0,0,1-29.89-15.71l-.27-.58A75.08,75.08,0,0,0,107,660.9c-16.61-11.5-27.87-28.38-30.91-46.32C69.52,576,95.37,539,133.7,532.27c38-6.71,75.86,20.12,82.64,58.57A69.84,69.84,0,0,1,204.18,644.13Z" transform="translate(-31.74 -68.16)" style="fill:#fff"/><path d="M168.62,581.39A17.33,17.33,0,0,0,154.68,586a16.77,16.77,0,0,0-1.72-.82,17.06,17.06,0,0,0-14.76.92,16.51,16.51,0,0,0-5,4.57c-10.73-1.82-17.08,4.4-18.17,9.5a16.22,16.22,0,0,0,.15,7.33.82.82,0,0,0,1.6-.4,14.4,14.4,0,0,1-.14-6.59c.93-4.34,6.34-9.58,15.56-8.32a30.14,30.14,0,0,0-3.74,12c-.72,5.85.8,10.56,4.14,12.91a7.86,7.86,0,0,0,5.86,1.32,7.68,7.68,0,0,0,2.15-.72c3-1.53,4.85-4.77,5-8.9.14-5.81-4.47-15.45-10.62-17.68a14.63,14.63,0,0,1,4.06-3.58,15.39,15.39,0,0,1,13.3-.81,12.79,12.79,0,0,1,1.2.55,16,16,0,0,0-2.61,4.7c-3.87,10.9-.83,16.14,1.32,18.29a9,9,0,0,0,9.35,2.17,7,7,0,0,0,4.83-6c.8-7.7-4.26-15.56-10.28-19.55A15.7,15.7,0,0,1,168.39,583c5.72.78,8.37,5,9.6,8.47a.82.82,0,0,0,1.55-.56C178.16,587.07,175.15,582.28,168.62,581.39Zm-24.68,27.3c-.09,3.5-1.56,6.22-4,7.47a6.08,6.08,0,0,1-6.32-.48c-2.83-2-4.09-6.13-3.46-11.36A28.31,28.31,0,0,1,134,592.46C139.51,594,144.07,603.48,143.94,608.69Zm20.84-2.47a5.38,5.38,0,0,1-3.74,4.6,7.38,7.38,0,0,1-7.63-1.78c-1.88-1.88-4.5-6.53-.93-16.58A14.14,14.14,0,0,1,155,588C160.67,591.66,165.53,599,164.78,606.22Z" transform="translate(-31.74 -68.16)" style="fill:#fff"/><path d="M205.53,600.2a.82.82,0,0,0-.86.79,57.51,57.51,0,0,1-18.74,39.87.83.83,0,0,0,.69,1.43.93.93,0,0,0,.41-.2,59.19,59.19,0,0,0,19.29-41A.83.83,0,0,0,205.53,600.2Z" transform="translate(-31.74 -68.16)" style="fill:#fff"/><path d="M109.85,554.15a58.72,58.72,0,0,0-1.62,93.3.79.79,0,0,0,.65.17.85.85,0,0,0,.51-.3.83.83,0,0,0-.14-1.16,57.08,57.08,0,0,1,1.58-90.68.83.83,0,0,0-1-1.33Z" transform="translate(-31.74 -68.16)" style="fill:#fff"/><path d="M131.1,515.33h0a.84.84,0,0,0,.68-.94L127,483.31a.82.82,0,1,0-1.63.25l4.81,31.08A.83.83,0,0,0,131.1,515.33Z" transform="translate(-31.74 -68.16)" style="fill:#fff"/><path d="M52.2,592.61l-19.78,3.48h0a.82.82,0,0,0-.67.95.83.83,0,0,0,1,.67l19.77-3.47h0a.83.83,0,0,0,.67-1A.82.82,0,0,0,52.2,592.61Z" transform="translate(-31.74 -68.16)" style="fill:#fff"/><path d="M63.56,548.08l-24.43-8.15a.82.82,0,1,0-.53,1.56L63,549.65a1,1,0,0,0,.41,0,.85.85,0,0,0,.64-.56A.82.82,0,0,0,63.56,548.08Z" transform="translate(-31.74 -68.16)" style="fill:#fff"/><path d="M250.77,557.59h0L231,561.09a.81.81,0,0,0-.67.95.83.83,0,0,0,1,.67h0l19.77-3.5a.82.82,0,1,0-.29-1.62Z" transform="translate(-31.74 -68.16)" style="fill:#fff"/><path d="M225.26,507.11l-20.17,16a.84.84,0,0,0-.13,1.16.81.81,0,0,0,.79.3.87.87,0,0,0,.37-.16l20.17-16a.83.83,0,0,0,.13-1.16A.82.82,0,0,0,225.26,507.11Z" transform="translate(-31.74 -68.16)" style="fill:#fff"/></svg>