<svg id="Layer_1" data-name="Layer 1" xmlns="http://www.w3.org/2000/svg" viewBox="0 0 941.15 1000">
    <path
        d="M703.93,625.56a1.17,1.17,0,0,0,.66.2h4a9.06,9.06,0,0,0,4.84-1.41,8.42,8.42,0,0,0,1.52-1.21,9.17,9.17,0,0,0,2.33-3.85,8.71,8.71,0,0,0,.3-1.27l0-.22c0-.1,0-.2,0-.3s0-.31,0-.47a6.32,6.32,0,0,0,0-.87c0-.11,0-.22,0-.32s0-.35-.05-.52,0-.28-.07-.42-.05-.28-.09-.41-.12-.47-.19-.71l-.11-.32c-.05-.13-.1-.27-.16-.41s-.15-.36-.24-.54l-.15-.3c-.06-.12-.13-.24-.2-.36l-.26-.4-.27-.39-.27-.34-.21-.26a.34.34,0,0,0-.06-.06c-.11-.13-.23-.25-.35-.37l-.25-.24c-.13-.11-.25-.23-.39-.34l-.21-.17c-.2-.15-.4-.3-.61-.44l-.41-.25a6.65,6.65,0,0,0-.84-.43,8.54,8.54,0,0,0-1.79-.59,5.55,5.55,0,0,0-.8-.13,7.88,7.88,0,0,0-1.09-.07h-4a1.21,1.21,0,0,0-1.22,1.21v16A1.18,1.18,0,0,0,703.93,625.56Zm1.86-15.77H709l.64.06h0l.34.06a3.37,3.37,0,0,1,.34.09,6.74,6.74,0,0,1,4.78,5v.07a1.31,1.31,0,0,1,.06.27c0,.2.06.4.09.6s0,.19,0,.28,0,.23,0,.35,0,.31,0,.47a6.88,6.88,0,0,1-.13.91,6.75,6.75,0,0,1-4.94,5.2h-4.44Z"
        transform="translate(-6.29)" style="fill:#fff" />
    <path
        d="M665.28,531.34c2.48,4.94,4.83,9.61-2.34,20.18-2.63,3.9-3.59,7.71-2.85,11.34a14.24,14.24,0,0,0,5.79,8.47,1.2,1.2,0,0,0,.65.19,1.24,1.24,0,0,0,1-.55,1.22,1.22,0,0,0-.36-1.68,12,12,0,0,1-4.73-6.94c-.6-3,.24-6.15,2.49-9.47,7.95-11.75,5-17.53,2.49-22.63l-.19-.4a1.21,1.21,0,0,0-2.17,1.08Z"
        transform="translate(-6.29)" style="fill:#fff" />
    <path
        d="M574.7,906.41a1.22,1.22,0,0,0-2.15,1.14c.27.5,27.07,50.83,59.09,83a1.26,1.26,0,0,0,.86.36,1.2,1.2,0,0,0,.85-.35,1.22,1.22,0,0,0,0-1.72C601.6,956.93,575,906.91,574.7,906.41Z"
        transform="translate(-6.29)" style="fill:#fff" />
    <path
        d="M617.7,945.89a1.21,1.21,0,0,0,1.15.83,1.31,1.31,0,0,0,.38-.06L636,941.15a1.21,1.21,0,1,0-.76-2.3l-16.74,5.51A1.22,1.22,0,0,0,617.7,945.89Z"
        transform="translate(-6.29)" style="fill:#fff" />
    <path
        d="M606.69,928a1.21,1.21,0,0,0,1.15.83,1.19,1.19,0,0,0,.37-.06l21-6.93a1.21,1.21,0,0,0-.76-2.3l-21,6.93A1.21,1.21,0,0,0,606.69,928Z"
        transform="translate(-6.29)" style="fill:#fff" />
    <path
        d="M915.21,461.33a3,3,0,0,0-2-1.65,2.93,2.93,0,0,0-2.48.53C899,469.42,838,515.26,789.39,514.05a3,3,0,0,0-2.4,1.12,2.88,2.88,0,0,0-.51,2.56c3.2,11.71,15.25,70.46-38.55,145.13H688.58a35.82,35.82,0,0,0,6.28-4.83h32.23a24.74,24.74,0,0,0,24.71-24.71V375.14l47.6,27.22a3.64,3.64,0,0,0,4.58-.8l3-3.47,17.19,9.83a4.27,4.27,0,0,0,2.16.58,4.54,4.54,0,0,0,1.76-.36c.18-.09,1.88-.93,3.65-4.05,1.4-2.44,54.33-96.33,54.87-97.28a5.78,5.78,0,0,0,.73-2.15,3.68,3.68,0,0,0-1.59-4.53L866,288.83a9.28,9.28,0,0,1,17,4.87,1.17,1.17,0,0,0,1.25,1.17,1.22,1.22,0,0,0,1.17-1.25,11.68,11.68,0,0,0-5.91-9.8,11.53,11.53,0,0,0-8.86-1.12l-.65.2a74.17,74.17,0,0,0-58.54-119.75H764.67c-.15-.89-.32-1.78-.52-2.66L834,82.8a1.21,1.21,0,0,0,.13-1.46,1.22,1.22,0,0,0-1.36-.51l-81,23.6V24.7A24.74,24.74,0,0,0,727.09,0H213a24.74,24.74,0,0,0-24.71,24.7v97.59L162.72,83a12.2,12.2,0,0,0-16.45-3.88c-17.15,10.11-53.51,35.61-104.21,92.72a12.21,12.21,0,0,0,.66,16.92l4.56,4.41c-11.4,11.06-23.93,24.07-37.48,39.33a12.21,12.21,0,0,0,.66,16.92L58.58,296a12.12,12.12,0,0,0,8.5,3.44h.35A12,12,0,0,0,76,295.5c13.07-14.09,48.18-48.94,91.86-68.12a12.23,12.23,0,0,0,5.37-17.88l-13-20a250.21,250.21,0,0,1,28-17.07V318.13l-9.44,6.35c-26,15.61-45.45,60.16-53.89,124.66-5.75,43.95-.25,74.46,5.63,92.69a.81.81,0,0,0,0,.22,58.44,58.44,0,0,0,24.39,37.34c9.24,6.32,20.38,10.09,33.31,11.29v42.64A24.74,24.74,0,0,0,213,658h16.18a21.49,21.49,0,0,0,3,3.77,7.22,7.22,0,0,0,1.49,1.06h-96.9a1.22,1.22,0,0,0-1.21,1.22v25.75a1.21,1.21,0,0,0,1.21,1.21H444.21c4.23,13.92,8.93,33.32,12.81,59.27,9.61,64.41,20.33,151.12,36.26,172.27l71.44-15.42q-.87,2.52-1.65,5.22a1.24,1.24,0,0,0,.07.87c.29.57,28.5,57.1,59.81,84.13a10.73,10.73,0,0,0,7,2.62,11,11,0,0,0,10.49-7.86A110.3,110.3,0,0,0,643.69,976c2.64-19.65-9.68-62.05-16.13-82.39l4.32-.92S613.4,781.78,591.74,691H746.55a207.56,207.56,0,0,0,36.15,14.55L707.8,817.1a7.44,7.44,0,0,0,2.46,10.71L789,873.43a8.24,8.24,0,0,0,4.13,1.09,8.54,8.54,0,0,0,7.08-3.69l98.92-147.29a7.44,7.44,0,0,0-2.46-10.71L889,708.36a213.34,213.34,0,0,0,39.35-14.23,2.87,2.87,0,0,0,1.38-1.37c2.2-4.55,13.37-29.3,16.76-69.44C950.88,570.8,940.37,516.31,915.21,461.33ZM641.29,975.64a107.82,107.82,0,0,1-3.15,15.81,8.5,8.5,0,0,1-5.78,5.78,8.22,8.22,0,0,1-7.83-1.68c-29.52-25.49-56.36-77.73-59-82.95.61-2.1,1.27-4.11,2-6l57.68-12.46C631.52,914.21,643.84,956.64,641.29,975.64ZM944.05,623.11c-3.35,39.72-14.36,64.11-16.53,68.6a.49.49,0,0,1-.24.23,209.42,209.42,0,0,1-41.34,14.66l-68-39.39a8.55,8.55,0,0,0-11.21,2.6l-22.61,33.67A207.25,207.25,0,0,1,751.93,691c-.85-.41-1.65-.82-2.44-1.21l-2.35-1.21c-5.07-2.66-8.7-4.88-10.67-6.14a.5.5,0,0,1-.23-.36.52.52,0,0,1,.12-.42q6.95-8.33,12.81-16.42l.87-1.2c.29-.41.58-.81.86-1.22C804.18,588,792.05,528.93,788.82,517.1a.44.44,0,0,1,.08-.43.47.47,0,0,1,.41-.2h0c.64,0,1.27,0,1.92,0,49,0,109.27-45.2,121-54.37a.45.45,0,0,1,.41-.09.55.55,0,0,1,.37.31C938,516.93,948.44,571,944.05,623.11Zm-46.89,99.08L798.24,869.48a6.09,6.09,0,0,1-8,1.85l-78.77-45.61a5,5,0,0,1-1.67-7.27L785.13,706.3l.71-1,.71-1.06,22.18-33a6.09,6.09,0,0,1,5-2.64,5.84,5.84,0,0,1,2.94.79l16.47,9.53L831.75,681a6.71,6.71,0,0,0,2.23,9.69l33.11,19.18.4.21h0a7.37,7.37,0,0,0,2.8.77,7.8,7.8,0,0,0,3.75-.61,7.42,7.42,0,0,0,2.43-1.61h0a7.36,7.36,0,0,0,1-1.17l1.44-2.13,3.59,2.08,1.51.87,1.59.92,9.91,5.74a5,5,0,0,1,1.67,7.27Zm-40.95-25.64a2.88,2.88,0,0,1-3.77.87,2.43,2.43,0,0,1-.8-3.52,2.86,2.86,0,0,1,3.76-.88A2.45,2.45,0,0,1,856.21,696.55ZM138,688.62V665.28H241c25,5.34,92.16,2.76,139.94,0h53.62a171.61,171.61,0,0,1,8.94,23.34Zm75-33a22.32,22.32,0,0,1-22.29-22.29V590.86q3.41.24,7,.24a127.41,127.41,0,0,0,13.9-.8c2.52,18.57,7.78,50,16.15,65.31Zm-71.19-92.85c-.23-.33-.45-.67-.67-1A57.27,57.27,0,0,1,133,542.21l.11-.13c11.5-14.62,31.5-26,55.11-35.81l1.21-.5,1.21-.5c7.45-3,15.23-5.91,23.2-8.71l2.37-.82,3.18-1.1,1.22-.41c.39-.14.8-.27,1.2-.4,10.06-3.41,20.34-6.7,30.55-10,27.75-8.86,54.48-17.39,75.05-27.69l1.17-.59,1.16-.6c9.06-4.7,16.83-9.78,22.85-15.43,5.8-5.43,21.75-10.45,36.65-5.75.68.22,1.35.41,2,.58q.61.17,1.23.3c.42.1.84.2,1.26.27,8.83,1.77,17.79.94,23.4,0l1.62-.27c.6-.11,1.15-.22,1.64-.33l1-.2a29.12,29.12,0,0,1-.29,4.32,22.84,22.84,0,0,1-5.36,3.17c-.6.27-1.25.54-2,.81s-1.21.45-1.87.66a64.18,64.18,0,0,1-16.71,2.92c-2.44.13-5.09.18-7.94.1l-1.74-.06a1.21,1.21,0,0,0-1,.5,1.24,1.24,0,0,0-.22.66,1.21,1.21,0,0,0,1.16,1.26c1.6.07,3.12.09,4.6.09,1.77,0,3.47,0,5.07-.12h0c1.94-.1,3.75-.25,5.46-.46,1.51-.17,2.94-.38,4.28-.62h0c1.84-.32,3.51-.7,5-1.1l1.76-.51c.63-.19,1.24-.39,1.81-.59h0a35.17,35.17,0,0,0,6.9-3.2,31.17,31.17,0,0,1-4.25,9.12c-1.29,1.24-9.38,8.08-30.63,7.7a1.21,1.21,0,1,0,0,2.42l1.8,0a78.39,78.39,0,0,0,11.35-.78h0A47.91,47.91,0,0,0,411.26,457c-14.65,14.65-39.95,20.27-40.32,20.34a1.21,1.21,0,0,0-.8.59c-.28.5-17.36,30.38-50.05,59l-4.48-.2c-16-.73-25.88-1-25.88-1l-79.94,39.83s.47,4.84,1.44,12.25h0a114.19,114.19,0,0,1-20.56.55l-1.21-.09-1.21-.11q-18.62-1.77-31.91-10.82A54.78,54.78,0,0,1,141.77,562.76Zm10.06-202.4c7.81-15.25,17-26.44,26.88-32.92a111.13,111.13,0,0,0,9.54,6.41l1.21.72,1.21.7a112.37,112.37,0,0,0,26.73,10.89l2,.52,1.22.29,1.2.27a112.42,112.42,0,0,0,24.41,2.69,113.72,113.72,0,0,0,15.6-1.08,1.23,1.23,0,0,0,.86-.55,1.26,1.26,0,0,0,.12-1,37.09,37.09,0,0,0-4.68-9.64c-.63-.94-1.32-1.84-2-2.71,3.56,1.88,7.13,4,10.65,6.29,24.56,16.21,54.53,48.76,60.44,112.37-20.49,10.39-47.49,19-75.56,28-10,3.18-20,6.38-29.81,9.69l-1.2.42-1.22.41-3.36,1.15-4.29-60.67a1.21,1.21,0,1,0-2.41.17l4.34,61.32c-7.9,2.75-15.62,5.61-23,8.6l-1.21.49-1.21.5c-23.67,9.77-43.9,21.09-56,35.67-5.55-18.06-10.47-47.62-4.94-89.87C132.13,412.67,140.38,382.69,151.83,360.36ZM172.41,219a9.86,9.86,0,0,1-5.49,6.2c-44.1,19.36-79.49,54.49-92.66,68.69a9.79,9.79,0,0,1-14,.37l-48.12-46.5a9.79,9.79,0,0,1-.53-13.57c13.53-15.25,26-28.23,37.41-39.25l.88-.85.87-.84c30.17-29,52.24-44.1,64.47-51.31A9.79,9.79,0,0,1,128.43,145l28.51,43.83.65,1,.67,1,13,19.94A9.79,9.79,0,0,1,172.41,219ZM130.46,143.7A12.22,12.22,0,0,0,114,139.81c-12.34,7.28-34.59,22.5-65,51.72l-4.63-4.47a9.79,9.79,0,0,1-.53-13.57c50.48-56.87,86.6-82.21,103.63-92.25a9.77,9.77,0,0,1,13.18,3.13l27.57,42.37,1.21,1.86,1.21,1.86,12.82,19.7a9.81,9.81,0,0,1-4.31,14.34q-4.31,1.89-8.51,4l-1.21.61-1.21.61a252.57,252.57,0,0,0-29.33,17.76Zm60.21,27.49c3.11-1.57,6.28-3.06,9.48-4.47a12.24,12.24,0,0,0,5.38-17.87L190.67,126V24.7A22.31,22.31,0,0,1,213,2.42H727.09A22.31,22.31,0,0,1,749.38,24.7v80.44l-22.61,6.59-3.31,1-2.84.82V33.67a1.21,1.21,0,0,0-1.21-1.21H538.31a1.21,1.21,0,0,0-1.21,1.21V381.76a1.21,1.21,0,1,0,2.42,0V311.55H711.36L690.9,335.26a3.7,3.7,0,0,0-.84,3,3.66,3.66,0,0,0,1.79,2.56l26.35,15.07v243a18.26,18.26,0,0,0-2.71-1.16,19.26,19.26,0,0,0-6.17-1h-3.53V584.56a1.21,1.21,0,0,0-1.2-1.21h-82.2a1.21,1.21,0,0,0-1.21,1.21v38.58H580c34.55-58.09,96.93-170,81.29-196.24C640,391,616.59,391.17,553.83,405.28c-4.36,1-9.16,2.21-14.31,3.66l-1.21.34-1.21.34c-8.33,2.4-17.53,5.3-27.27,8.58V33.67a1.21,1.21,0,0,0-1.21-1.21h-288a1.22,1.22,0,0,0-1.22,1.21v220c-3.6,8.4-6.36,13.2-3.6,17.29a6.94,6.94,0,0,0,3.6,2.71V275c-8.3,14.21-20,34.19-21.4,36.61l-7.35,4.93ZM674.83,154l1.77-.75,41.6-17.54,1.21-.51,1.21-.51,10.72-4.51,10.91-4.6,2.29-1,4.84-2,1.21-.51,1.21-.51L783.93,108,751.8,125.85l-1.21.67-1.21.68-1.55.86-2.06,1.14-9.61,5.35-15.54,8.64-1.21.68-1.21.67-24.53,13.65-.44.24,0,0a1.49,1.49,0,0,0-.2.15l-.11.12a.66.66,0,0,0-.12.17.41.41,0,0,0,0,.09l-.05.12a.11.11,0,0,0,0,.05h0a.47.47,0,0,0,0,.16h0s0,0,0,0l-.11,1-2.67,23.12a1.22,1.22,0,0,0,1.06,1.34H691a1.22,1.22,0,0,0,1.21-1.07l2.61-22.72,21.47,6.25L690,194.48l-15-39.21-.45-1.18.29-.12ZM539.52,47.72V34.88H718.2V108a71.33,71.33,0,0,0-48.85.41A105.8,105.8,0,0,0,539.52,61.7Zm0,16.58a103.37,103.37,0,0,1,128.23,46.24,1.21,1.21,0,0,0,1.5.54,68.53,68.53,0,0,1,25.09-4.73,69.4,69.4,0,0,1,23.86,4.19v3.69l-10.38,3-77.68,22.65a1.21,1.21,0,0,0,0,2.32l41.93,12.2,16.33,42.68a1.19,1.19,0,0,0,.88.76,1,1,0,0,0,.25,0,1.22,1.22,0,0,0,.87-.38l27.8-28.69V303.62l-4.75,5.51H539.52Zm181.1,104.25,28,8.15a1.4,1.4,0,0,0,.34.05,1.07,1.07,0,0,0,.39-.07V267.5l-28.76,33.32Zm40.91-8.77-6.87,7.64-2.86,3.18L750.59,172l-1.21,1.35-.78.86-28-8.13-1.21-.36-.48-.13-.73-.22-21.26-6.18,21.26-11.83,1.21-.68,1.21-.67,17.28-9.61,9.48-5.27,2-1.12,0,0,1.17-.65,1.21-.67,52.74-29.35a1.2,1.2,0,0,0,.5-1.58,1.21,1.21,0,0,0-1.56-.59L751.8,118.89l-1.21.51-1.21.51-6.76,2.84-2.32,1-11.12,4.69-8.56,3.6-1.21.52-1.21.5-45.29,19.1-38.1-11.08,76.92-22.44,6.47-1.88,1.21-.35,1.21-.36,6-1.76,3.14-.91,19.58-5.71,1.21-.35,1.21-.35,77.56-22.62-65.88,73.27ZM749.38,633.32a22.32,22.32,0,0,1-22.29,22.29H697.16a35.32,35.32,0,0,0,8.41-19.2h3.75c10.44,0,18.93-9,18.93-20.15v-.14c0-.27,0-.54,0-.8s0-.53,0-.79l-.06-.61c0-.24,0-.48-.08-.72s-.07-.46-.11-.68a.09.09,0,0,0,0,0c0-.23-.08-.46-.13-.68s-.1-.47-.16-.7a18.72,18.72,0,0,0-7-10.71V357.31l28.76,16.44ZM691.24,658a33.62,33.62,0,0,1-7.9,4.83,34.53,34.53,0,0,1-3.26,1.22,32.08,32.08,0,0,1-5.45,1.2,31.08,31.08,0,0,1-4.33.29H656.68a31.55,31.55,0,0,1-4.37-.29,31.88,31.88,0,0,1-5.47-1.2,30.3,30.3,0,0,1-3.26-1.22,32.89,32.89,0,0,1-7.9-4.83c-.48-.39-.94-.8-1.39-1.22s-.85-.79-1.24-1.2a33,33,0,0,1-9.45-23.12V585.77h79.77v12.16a1.21,1.21,0,0,0,1.22,1.21h4.73a17.06,17.06,0,0,1,5.4.86,15.49,15.49,0,0,1,3.48,1.66,14.48,14.48,0,0,1,1.21.84,13.38,13.38,0,0,1,1.21,1,15.26,15.26,0,0,1,2.44,2.93,15.92,15.92,0,0,1,1.23,2.26c.08.18.17.37.24.57s.15.38.22.58a5.84,5.84,0,0,1,.2.59,5.94,5.94,0,0,1,.18.6,3.76,3.76,0,0,1,.13.48c0,.1,0,.18.07.27a3.56,3.56,0,0,1,.1.47,6.18,6.18,0,0,1,.12.62,14.6,14.6,0,0,1,.19,1.48c0,.14,0,.28,0,.43,0,.42.05.86.05,1.29v.14c0,9.94-7.25,17.73-16.51,17.73h-4.85a1.22,1.22,0,0,0-1.21,1.11,32.94,32.94,0,0,1-9.38,20.51c-.4.41-.82.81-1.24,1.2S691.71,657.64,691.24,658ZM509.74,517.7l-.81,1.28-.31.5c-.41.63-.81,1.27-1.21,1.92a357.18,357.18,0,0,0-18.3,33.1c-.08.16-.16.31-.23.48,3.32.64,6.53,1.28,9.62,1.94l.91.19,2.26.49,2,.44,3.73.85,1.21.28,1.21.29q8.58,2.07,15.63,4.22h0q6.43,2,11.6,4l.6.24.61.25q12,4.92,16.59,10.25c4.87,5.73,10.34,17.25,16.25,34.23a1.22,1.22,0,0,1-.74,1.54h0a1.11,1.11,0,0,1-.39.07,1.18,1.18,0,0,1-1.14-.82c-5.81-16.7-11.14-28-15.82-33.45-2.52-3-7-5.86-13.53-8.68l-1.21-.52-1.21-.49A201.3,201.3,0,0,0,509.83,562l-1.21-.29-1.21-.28q-9-2.11-19.63-4.15l-2.46-.46c-19.69-3.68-43.36-7.13-70.82-10.29a1.21,1.21,0,0,1,.28-2.41q41.89,4.83,71.63,10.4l.24-.49a361.56,361.56,0,0,1,20.76-37.17c.41-.63.8-1.26,1.21-1.88s.81-1.25,1.21-1.87a432.6,432.6,0,0,1,28.48-38.72,335.09,335.09,0,0,1,23.45-26,1.21,1.21,0,0,1,1.67,1.75,339.5,339.5,0,0,0-25.12,28,426.12,426.12,0,0,0-28.48,39.36Zm65.91,112.77,2.94-4.91h42.59v6.93a35.34,35.34,0,0,0,8.58,23.12h-47C580.42,646.74,578,638.31,575.65,630.47ZM423.8,432.6a1.2,1.2,0,0,0-.49-.92,1.17,1.17,0,0,0-1-.19L470,357.12a11.87,11.87,0,0,0-3-16,11.85,11.85,0,0,0-16.91,3.06c-21.07,32.13-45.09,68.82-57.44,88-.9-.21-1.79-.46-2.67-.74-14.95-4.71-31.9-.4-39,6.3-5.66,5.3-12.94,10.11-21.43,14.58-6.22-63.91-36.55-96.76-61.43-113.18a128.39,128.39,0,0,0-17.41-9.61c-.93-.75-1.9-1.45-2.91-2.11l1.67-2.87c6.23,2.68,14.34,4.91,24.72,6.21,1.58-4.59,5.37-13.66,7.84-22.54.53-1.91,1-3.74,1.43-5.49l1.07-.78,7.76,1.59.19,0a.86.86,0,0,0,.86-.85c0-3.94.25-7.93.55-11.89s.74-7.91,1.3-11.83,1.31-7.82,2.21-11.67c.18-.72.37-1.45.56-2.17,9.32.62,19.35,11.71,25.95,7.44,8.22-5.32,7.29-32-6.54-43.37-13.48-11.07-29.36.49-45.1-13.08-7.2-6.22-7.86-12.09-16.52-15.49-5.73-2.26-15.92-3.8-22.71,1.38-8.65,6.59-2.29,16.87-9.3,39.92-.6,2-1.24,3.86-1.89,5.6V34.88H507.41V81.16a106.45,106.45,0,0,0-19.23,22.39h0a105.17,105.17,0,0,0-16.69,57c0,.87,0,1.74.06,2.61h-3.6q-1.45,0-2.88.06a74.16,74.16,0,0,0-50.17,126c-2.95,2-5.81,4.12-8.52,6.36l-1.1.91a1.21,1.21,0,0,0,.79,2.14,1.24,1.24,0,0,0,.78-.29l1.2-1a105.32,105.32,0,0,1,8.61-6.38,74,74,0,0,0,51.29,20.62h39.47V419c-28,9.5-60.21,21.86-89.11,33.49A32.1,32.1,0,0,0,423.8,432.6Zm28.34-87.07a9.43,9.43,0,0,1,13.46-2.44A9.46,9.46,0,0,1,468,355.81l-49,76.4c-4.87.92-14.41,2.21-23.76.56C405.72,416.44,425.48,386.17,452.14,345.53ZM292.69,302l-.2.16v-.22ZM253,287.29h0c.06-.29,0-.5.12-.87l.13-.6.11-.47c.07-.31.15-.61.23-.91,1.38-5.41,3.33-10.8,5.26-16.13,2.07-5.63,4.23-11.25,6.48-16.81a1.19,1.19,0,0,0,0-.83,72.55,72.55,0,0,0-2.81-7.16c.78.06,1.47.14,2.12.14s1.21-.13,2.14-.12a39.57,39.57,0,0,1,5.11.06,37.91,37.91,0,0,1,10,2,39.5,39.5,0,0,1,9.2,4.4,38.28,38.28,0,0,1,7.3,6,86.35,86.35,0,0,0-2.82,9.34c-.13.53-.26,1.05-.38,1.57-.86,3.94-1.54,7.92-2.07,11.89s-.88,8-1.13,12c-.22,3.63-.36,7.25-.37,10.9l-7.12-2.11a1.06,1.06,0,0,0-.31-.05,1.07,1.07,0,0,0-.63.2l-.08.05-4.16,3.09a105.82,105.82,0,0,1-14.17-5.2l-1.11-.51-.83-.4c-.62-.31-1.23-.63-1.83-1a30.76,30.76,0,0,1-5.5-3.7,9.85,9.85,0,0,1-2.49-3.1A4.29,4.29,0,0,1,253,287.29Zm38.66,15.28.21.05-.21.17Zm-51-50c1.05-2.38,2.78-3.83,4.74-4h.33a3.32,3.32,0,0,1,2.55,1.09c2.76,2.94,2.54,11,2.14,14.8-4.11.59-7.21-.29-9-2.56C239.25,259.2,239.48,255.27,240.66,252.58Zm266.75,56.55H467.94a71.54,71.54,0,0,1-49.26-19.61,1.21,1.21,0,0,0-1.6-1.77l-.12.08a71.63,71.63,0,0,1-1.55-99.35v0a71.61,71.61,0,0,1,49.52-22.82c1,0,2-.07,3-.07h4.85a1.21,1.21,0,0,0,1.21-1.25V164c0-1.16-.09-2.33-.09-3.49a103,103,0,0,1,29.58-72.32c1.28-1.3,2.59-2.58,3.93-3.81ZM188.25,321l1.21-.81.81-.54.4-.27,8.93-6A1.15,1.15,0,0,0,200,313c.71-1.23,11.11-19,19.45-33.27l1.22-2.08,1.2-2.06.73-1.25c3.82.57,8.07.57,10.83,4.07,6.09,7.7-5,19.76-1.56,30.65,1.41,4.42,6,10,15.4,14.51l-2.1,3.62,0,0a1.22,1.22,0,0,0,0,1.24,1.21,1.21,0,0,0,.41.4,37,37,0,0,1,3.87,2.75,34.65,34.65,0,0,1,10.66,15,109.39,109.39,0,0,1-38.22-1.89l-1.2-.27-1.22-.3-1.4-.36a110.33,110.33,0,0,1-27.35-11.34l-1.21-.73-1.21-.73q-3.75-2.32-7.32-4.95l-.08-.05L187,321.9Zm395.2,337h48.6a35.42,35.42,0,0,0,6.26,4.83H584.72Q584.09,660.43,583.45,658Zm1.9,7.25h57.73a35.22,35.22,0,0,0,13.6,2.71H670.3a35,35,0,0,0,13.52-2.71h62.35q-5.4,7.34-11.67,14.87a3,3,0,0,0-.65,2.34,2.92,2.92,0,0,0,1.31,2c1.45.93,3.78,2.37,6.91,4.11H591.16C589.25,680.65,587.31,672.84,585.35,665.28ZM802.14,400a1.21,1.21,0,0,1-1.54.27l-48.8-27.91-1.21-.69-1.21-.69-28.76-16.44-1.21-.69-1.21-.7-25.15-14.38a1.24,1.24,0,0,1-.61-.87,1.31,1.31,0,0,1,.29-1l21.83-25.29,2.09-2.42,1.55-1.8,1.21-1.4,1.21-1.41,28.76-33.31,1.21-1.4,1.21-1.41L775.46,241a1.24,1.24,0,0,1,1.54-.27l3.73,2.14a11.81,11.81,0,0,0,5.1,14.5,1.31,1.31,0,0,0,.6.16,1.21,1.21,0,0,0,.6-2.26,9.36,9.36,0,0,1-4.16-11.18l11.67,6.67a11.79,11.79,0,0,0,5.1,14.5,1.18,1.18,0,0,0,1.65-.45,1.21,1.21,0,0,0-.45-1.65A9.36,9.36,0,0,1,796.67,252l11.68,6.68a11.8,11.8,0,0,0,5.09,14.5,1.24,1.24,0,0,0,.61.16,1.21,1.21,0,0,0,.6-2.26,9.36,9.36,0,0,1-4.17-11.18l11.67,6.67a11.79,11.79,0,0,0,5.1,14.5,1.2,1.2,0,0,0,.6.16,1.2,1.2,0,0,0,.6-2.25,9.39,9.39,0,0,1-4.17-11.19L836,274.44a11.79,11.79,0,0,0-.23,7.92l.06.18a11.7,11.7,0,0,0,5.27,6.4,1.17,1.17,0,0,0,.6.16,1.21,1.21,0,0,0,.6-2.26,9.36,9.36,0,0,1-4.23-11l11.67,6.67a11.81,11.81,0,0,0,3.51,13.17,11.64,11.64,0,0,0,1.66,1.15,1.13,1.13,0,0,0,.59.15h.09a1.23,1.23,0,0,0,1-.6,1.54,1.54,0,0,0,.08-.19,1.21,1.21,0,0,0-.53-1.47,6.56,6.56,0,0,1-.83-.54,9.35,9.35,0,0,1-3.4-10.45l9.33,5.34,1.55.88a9.76,9.76,0,0,0-.41,1.37h0a11.8,11.8,0,0,0,5.59,12.95,1.14,1.14,0,0,0,.59.16,1.23,1.23,0,0,0,1.06-.61,1.21,1.21,0,0,0-.46-1.65,9.36,9.36,0,0,1-4.22-11l19,10.85a2.17,2.17,0,0,1,1.12,2,1.1,1.1,0,0,1-.09.14L862.2,330.43A1.21,1.21,0,1,0,864,332l16.13-18.72c-12.74,22.62-49.37,87.58-50.52,89.61a8,8,0,0,1-2.54,3,1.94,1.94,0,0,1-1.74-.1l-16.78-9.6,49.94-57.87a1.2,1.2,0,0,0-.12-1.7h0a1.22,1.22,0,0,0-1.71.13l-49.87,57.78h0l-.51.58a1.22,1.22,0,0,0-1,.6,1.2,1.2,0,0,0-.14.74Zm-39.7-235.43a1.22,1.22,0,0,0,1.2,1h47.81a71.74,71.74,0,0,1,54.87,118c-1,1.23-2.12,2.43-3.24,3.58L853,281.39a9.3,9.3,0,0,1,5.27-3.81,9.18,9.18,0,0,1,7,.9c.17.09.33.19.49.29a1.21,1.21,0,1,0,1.32-2c-.19-.13-.39-.26-.6-.38a11.69,11.69,0,0,0-15.61,3.81l-11.71-6.69a9.27,9.27,0,0,1,5.27-3.8,9.17,9.17,0,0,1,7,.89c.17.09.32.2.48.3a1.21,1.21,0,0,0,1.68-.36,1.2,1.2,0,0,0-.35-1.67l-.61-.37a11.69,11.69,0,0,0-15.61,3.81l-11.7-6.69a9.25,9.25,0,0,1,12.3-2.92l.48.3a1.21,1.21,0,1,0,1.33-2c-.19-.13-.4-.26-.61-.38a11.7,11.7,0,0,0-15.61,3.81l-11.7-6.69a9.27,9.27,0,0,1,12.31-2.91c.16.1.32.19.48.3a1.21,1.21,0,0,0,1.32-2c-.19-.13-.39-.25-.6-.37a11.66,11.66,0,0,0-15.61,3.81l-11.7-6.7a9.26,9.26,0,0,1,12.3-2.91l.48.3a1.21,1.21,0,0,0,1.33-2l-.61-.37a11.7,11.7,0,0,0-15.61,3.81L784,241.91a9.28,9.28,0,0,1,12.3-2.92,5.66,5.66,0,0,1,.48.31,1.23,1.23,0,0,0,1.68-.35,1.21,1.21,0,0,0-.35-1.68c-.19-.13-.4-.25-.6-.37a11.69,11.69,0,0,0-15.62,3.8l-3.64-2.08a3.66,3.66,0,0,0-4.58.8L751.8,264.7V174.22l3.51-3.9,6.82-7.59C762.25,163.33,762.35,163.93,762.44,164.55ZM432.7,661.8s.21.34.59,1.06H418.42C427.36,662.22,432.7,661.8,432.7,661.8Z"
        transform="translate(-6.29)" style="fill:#fff" />
    <path
        d="M807.55,537.88a1.07,1.07,0,0,0,.25,0c.53-.11,53.53-11.47,92.2-40.16a1.22,1.22,0,1,0-1.45-1.95c-38.23,28.37-90.72,39.63-91.25,39.74a1.21,1.21,0,0,0,.25,2.4Z"
        transform="translate(-6.29)" style="fill:#fff" />
    <path
        d="M844.14,550.59a1.22,1.22,0,0,0,1.18.94l.27,0c25.29-5.75,47.54-15.13,66.12-27.88a1.21,1.21,0,1,0-1.37-2c-18.32,12.58-40.29,21.84-65.29,27.52A1.21,1.21,0,0,0,844.14,550.59Z"
        transform="translate(-6.29)" style="fill:#fff" />
    <path
        d="M807.09,556.77h0a175.92,175.92,0,0,0,20.68-1.95,1.21,1.21,0,1,0-.35-2.4,173,173,0,0,1-20.36,1.93,1.22,1.22,0,0,0-1.2,1.23A1.21,1.21,0,0,0,807.09,556.77Z"
        transform="translate(-6.29)" style="fill:#fff" />
    <path
        d="M806.09,574.82a1.21,1.21,0,1,0-.29,2.4,123.43,123.43,0,0,0,12.92.55,229.15,229.15,0,0,0,97.47-22.57,1.21,1.21,0,1,0-1.05-2.18C857.79,580.63,806.6,574.88,806.09,574.82Z"
        transform="translate(-6.29)" style="fill:#fff" />
    <path
        d="M800.92,594.5a1.21,1.21,0,0,0-.53,2.36c.26.06,13.24,2.87,34,2.87A239.94,239.94,0,0,0,920,583.8a1.21,1.21,0,0,0-.87-2.26C855,606.2,801.46,594.62,800.92,594.5Z"
        transform="translate(-6.29)" style="fill:#fff" />
    <path
        d="M918.24,613.12a161,161,0,0,1-36.53,9.45,1.21,1.21,0,0,0,.17,2.41h.17a163.66,163.66,0,0,0,37.08-9.6,1.21,1.21,0,1,0-.89-2.25Z"
        transform="translate(-6.29)" style="fill:#fff" />
    <path
        d="M860.47,624.34A217.55,217.55,0,0,1,794.65,616a1.21,1.21,0,1,0-.75,2.3,218.9,218.9,0,0,0,60.86,8.53c1.9,0,3.83,0,5.78-.08a1.21,1.21,0,0,0,1.17-1.25A1.18,1.18,0,0,0,860.47,624.34Z"
        transform="translate(-6.29)" style="fill:#fff" />
    <path
        d="M124,154.7a1.21,1.21,0,0,0-1.53.77l-19.67,59a27.56,27.56,0,0,1-13.57,15.86c-.38.2-.77.39-1.16.57s-.8.35-1.2.51a27.84,27.84,0,0,1-6.38,1.74l-59.17,8.94a1.19,1.19,0,0,0-1,1.37,1.21,1.21,0,0,0,1.19,1l.19,0,59.17-8.93a30.77,30.77,0,0,0,7.9-2.3l1.17-.55h0c.38-.19.75-.39,1.12-.6a30,30,0,0,0,14-16.87l19.66-59A1.2,1.2,0,0,0,124,154.7Z"
        transform="translate(-6.29)" style="fill:#fff" />
    <path
        d="M852.73,712.68h0l-1.82-1.07L808,686.76l-4.35,6.47,32,18.55,2.1,1.21,2.21,1.28h0l38,22,4.35-6.48-27.6-16Zm21.07,16.69a2,2,0,0,1,2.67-.62,1.74,1.74,0,0,1,.57,2.5,2,2,0,0,1-2.67.62A1.74,1.74,0,0,1,873.8,729.37Z"
        transform="translate(-6.29)" style="fill:#fff" />
    <path
        d="M875.39,740l-44.86-26-2.41-1.4-2.34-1.36-24.72-14.31a1.19,1.19,0,0,0-1.6.37L793.59,706l-.72,1.07-.72,1.07-21.64,32.22a1.17,1.17,0,0,0-.17.94,1.19,1.19,0,0,0,.57.78l74.33,43a1.19,1.19,0,0,0,1.61-.37l28.94-43.09a1.22,1.22,0,0,0,.17-1A1.18,1.18,0,0,0,875.39,740Zm-29.92,42.52-72.23-41.83,21.42-31.88.72-1.08.72-1.07,4.73-7L820,710.68l2.51,1.46h0l2.53,1.47,48,27.8Z"
        transform="translate(-6.29)" style="fill:#fff" />
    <path
        d="M844.46,786l-74.33-43a1.22,1.22,0,0,0-1.61.37l-18,26.87a1.21,1.21,0,0,0-.18.94,1.24,1.24,0,0,0,.58.78l74.32,43a1.24,1.24,0,0,0,.6.17,1.23,1.23,0,0,0,1-.54l18-26.86a1.15,1.15,0,0,0,.18-1A1.19,1.19,0,0,0,844.46,786Zm-19,26.3-72.22-41.83,16.69-24.85,72.23,41.83Z"
        transform="translate(-6.29)" style="fill:#fff" />
    <path
        d="M823.78,816.81l-74.32-43a1.22,1.22,0,0,0-1.62.37L729.8,801a1.22,1.22,0,0,0-.18,1,1.25,1.25,0,0,0,.58.77l74.33,43a1.08,1.08,0,0,0,.6.16,1.18,1.18,0,0,0,1-.53l18-26.86a1.23,1.23,0,0,0-.4-1.73Zm-19,26.3-72.23-41.83,16.69-24.85,72.23,41.83Z"
        transform="translate(-6.29)" style="fill:#fff" />
    <path
        d="M803.1,847.6l-74.33-43a1.18,1.18,0,0,0-1.6.37L715.23,822.7a1.18,1.18,0,0,0-.17.95,1.16,1.16,0,0,0,.56.77L790,867.47a1.21,1.21,0,0,0,.61.16,1.19,1.19,0,0,0,1-.54l11.94-17.77a1.22,1.22,0,0,0-.4-1.72Zm-12.91,17.2L718,823l10.58-15.76,72.23,41.83Z"
        transform="translate(-6.29)" style="fill:#fff" />
    <path d="M751.8,319.16h0Z" transform="translate(-6.29)" style="fill:#fff" />
    <path
        d="M741.65,292.62l7.73,4.42,1.21.69,1.21.69,10.34,5.92a1.23,1.23,0,0,0,.6.16,1.19,1.19,0,0,0,.92-.42l14.8-17.15a1.19,1.19,0,0,0,.28-1,1.2,1.2,0,0,0-.6-.85l-20.49-11.72a1.21,1.21,0,0,0-1.52.26l-4.33,5-1.21,1.4-1.21,1.4-8,9.33a1.19,1.19,0,0,0-.28,1A1.23,1.23,0,0,0,741.65,292.62Zm7.73-7.46,1.21-1.4,1.21-1.4,5.51-6.39,18.36,10.49-13.19,15.28-10.68-6.11-1.21-.69-1.21-.69-5.26-3Z"
        transform="translate(-6.29)" style="fill:#fff" />
    <path
        d="M749.44,320.48l1.15-1.32h0l.4-.46.81-.95,5.35-6.2,2.1-2.42,1.16-1.34a1.25,1.25,0,0,0,.27-1,1.22,1.22,0,0,0-.59-.84l-8.29-4.74-1.21-.7-1.21-.69-9.79-5.6a1.21,1.21,0,0,0-1.52.26l-12.64,14.65-2.09,2.42-.07.08a1.22,1.22,0,0,0,.32,1.84l9.95,5.69,10.55,6a1.17,1.17,0,0,0,1.51-.26l3.78-4.37Zm-11-1.32-12.34-7.06.47-.55,2.09-2.42,10.62-12.31,10.13,5.79,1.21.69,1.21.69,5.81,3.33-1.56,1.81L754,311.55l-2.16,2.5-1.21,1.41-1.21,1.39-2,2.31-3,3.44Z"
        transform="translate(-6.29)" style="fill:#fff" />
    <path
        d="M765.71,305.87a1.22,1.22,0,0,0,.59.85l4.23,2.41,4.23,2.42,12,6.89a1.2,1.2,0,0,0,.6.16,1.24,1.24,0,0,0,.92-.42l5.72-6.63,2.09-2.42,7-8.1a1.19,1.19,0,0,0,.28-1,1.25,1.25,0,0,0-.59-.85L782.3,287.47a1.21,1.21,0,0,0-1.51.26L766,304.87A1.22,1.22,0,0,0,765.71,305.87Zm34.61-5.31-7.39,8.57-2.09,2.42-3.7,4.3-7.51-4.3-4.23-2.42-6.62-3.79L782,290.07Z"
        transform="translate(-6.29)" style="fill:#fff" />
    <path
        d="M785.34,320.89a1.27,1.27,0,0,0-.59-.85l-1.55-.88-13.31-7.61-4.23-2.42-1.41-.81a1.23,1.23,0,0,0-1.52.26l-.47.55-2.09,2.42-6.57,7.61-.6.69-1.2,1.4-.42.48-.79.92-1.21,1.4-1.45,1.68a1.25,1.25,0,0,0-.28,1,1.2,1.2,0,0,0,.6.84l1.13.64,1.21.7,1.21.69,16.94,9.7a1.31,1.31,0,0,0,.61.15,1.2,1.2,0,0,0,.91-.42l14.8-17.14A1.22,1.22,0,0,0,785.34,320.89Zm-33.54,5.92-1.08-.61L751.8,325l1.75-2,1.63-1.89,1.62-1.87,6.56-7.61.55-.63,1.11.63,13.3,7.61,3.95,2.26L769.08,336.7Z"
        transform="translate(-6.29)" style="fill:#fff" />
    <path
        d="M797.05,311.55,790.64,319a.57.57,0,0,0-.12.18,1.15,1.15,0,0,0-.15.81,1.22,1.22,0,0,0,.59.85l20.5,11.72a1.2,1.2,0,0,0,1.51-.26l14.11-16.34.11-.13.58-.67.07-.09a1.18,1.18,0,0,0,.21-.91,1.29,1.29,0,0,0-.28-.59s0,0-.06-.06a1.69,1.69,0,0,0-.25-.2l-4.58-2.62-3.47-2L807,301.57a1.21,1.21,0,0,0-1.52.26l-6.3,7.3ZM815.14,309l3.75,2.14,6.09,3.49-1.52,1.76L811.79,330l-18.36-10.5.25-.29,6.57-7.61,2.09-2.42,4.28-5Z"
        transform="translate(-6.29)" style="fill:#fff" />
    <path
        d="M810,335a1.21,1.21,0,0,0-.6-.84l-20.5-11.73a1.24,1.24,0,0,0-1.52.26l-14.79,17.15a1.21,1.21,0,0,0,.31,1.84l20.5,11.72a1.17,1.17,0,0,0,.6.16,1.22,1.22,0,0,0,.92-.41L809.72,336A1.24,1.24,0,0,0,810,335Zm-34.62,5.31L788.57,325l18.36,10.5L793.74,350.8Z"
        transform="translate(-6.29)" style="fill:#fff" />
    <path
        d="M825.8,320.91l-10.5,12.17a1.19,1.19,0,0,0-.28,1,1.22,1.22,0,0,0,.59.85l5.74,3.28,0,0,14.72,8.42a1.14,1.14,0,0,0,.59.16,1.18,1.18,0,0,0,.92-.42l14.8-17.15a1.19,1.19,0,0,0,.28-1,1.24,1.24,0,0,0-.59-.85l-20.5-11.72a1.21,1.21,0,0,0-1.52.26l-4.2,4.87Zm23.84,7.85L836.45,344,822,335.79l0,0-3.88-2.22,6.35-7.35h0l.09-.11,6.75-7.82Z"
        transform="translate(-6.29)" style="fill:#fff" />
    <path
        d="M814.37,365.38l3.69,2.11a1.19,1.19,0,0,0,.6.17,1.22,1.22,0,0,0,.92-.43l14.79-17.14a1.21,1.21,0,0,0-.31-1.84l-13.29-7.61,0,0-7.16-4.1a1.19,1.19,0,0,0-1.51.26l-14.81,17.15a1.2,1.2,0,0,0,.32,1.84l16.79,9.6Zm5.72-22.33,0,0,11.44,6.54L818.4,364.9,815,363l0,0L800,354.4l13.2-15.28Z"
        transform="translate(-6.29)" style="fill:#fff" />
    <path
        d="M396,893.42H372.54c6-15,29.77-81.52,2.82-137.49a1.21,1.21,0,0,0-2.15-.06,341.13,341.13,0,0,0-19.87,45c-3.11-25.65-8.91-45.48-14.76-60.05-13.25-33-29.18-46.63-29.85-47.19a1.2,1.2,0,0,0-1.18-.21,1.19,1.19,0,0,0-.79.9A373.3,373.3,0,0,0,299.94,748H85.13A27.58,27.58,0,0,0,57.58,775.6v3.76a27.61,27.61,0,0,0,21.08,26.78A19.19,19.19,0,0,0,65,824.5v28.22a19.18,19.18,0,0,0,10.53,17.11H64.4a6.82,6.82,0,1,0,0,13.63h1.88c6.39,12.62,6.39,25.37,0,38.94H64.4a6.82,6.82,0,1,0,0,13.63H282.63V943a28.17,28.17,0,0,0,28.17,28.19h64.73a23,23,0,0,0,23-24.14ZM60,775.6a25.16,25.16,0,0,1,25.13-25.14H299.81c0,.81-.08,1.62-.1,2.42,0,.4,0,.81,0,1.21s0,.81-.05,1.22c0,.89-.06,1.77-.08,2.65h-87.8a15.51,15.51,0,0,0-15.49,15.5v8A15.5,15.5,0,0,0,210.82,797c.3,0,.61,0,.91,0h52.62c0,.2.06.4.08.59.07.41.13.81.19,1.22s.13.81.2,1.21c.25,1.5.52,3,.8,4.48H85.13A25.15,25.15,0,0,1,60,779.36ZM302.36,748a371.59,371.59,0,0,1,6.35-51.16c4.34,4.28,17,18.33,27.7,45,6.13,15.32,12.2,36.52,15.09,64.26-.43,1.3-.86,2.62-1.29,4-8,25.15-10.72,46.08-8.14,62.56.07.49.15,1,.23,1.44h0c.1.5.19,1,.29,1.51a52.46,52.46,0,0,0,6.91,17.83H337.34c.25-6.09.21-12.82-.06-20,0-.85-.08-1.7-.11-2.55-.8-17.35-2.9-37.13-5.52-56.76q-.54-4-1.09-7.92c-2.34-16.55-5-32.74-7.48-47-.08-.45-.17-.91-.25-1.36s-.17-1-.27-1.52c-.3-1.76-.61-3.49-.91-5.18h0c-.09-.52-.18-1-.27-1.53h0c-.07-.46-.16-.91-.24-1.36h0c-4.09-22.45-7.35-37.9-7.44-38.34a1.21,1.21,0,1,0-2.37.51c.1.43,3.29,15.56,7.31,37.6.08.4.15.81.22,1.22s.15.8.22,1.2c.43,2.39.87,4.86,1.32,7.39l.21,1.2.21,1.18c2.4,13.73,4.94,29.23,7.2,45.11.12.83.23,1.67.35,2.5q.38,2.64.73,5.29l.33,2.49c2.52,18.93,4.52,37.94,5.31,54.7,0,.84.07,1.66.11,2.49.3,7.42.35,14.36.1,20.61h-7.59c-1.56-7.61-3.32-14.65-5.22-21.17,0-.12-.07-.24-.11-.36l-.25-.85c0-.12-.07-.24-.11-.36-.09-.29-.17-.57-.25-.85,0-.12-.08-.24-.11-.36-.44-1.44-.89-2.86-1.35-4.25-.13-.41-.26-.81-.4-1.21l-.1-.29c-.09-.31-.2-.62-.3-.92,0-.1-.07-.19-.11-.29-.13-.41-.27-.81-.41-1.21-1.78-5.13-3.65-9.87-5.57-14.26-.35-.82-.71-1.62-1.08-2.42-1.44-3.17-2.91-6.16-4.38-9-.18-1-.36-2-.53-3.07l-.39-2.42c-.24-1.48-.47-3-.7-4.5-.11-.8-.23-1.61-.34-2.42q-.51-3.6-1-7.34c-.05-.4-.1-.8-.14-1.21l-.15-1.21s0-.09,0-.14c-.05-.4-.1-.8-.14-1.21s-.09-.81-.13-1.21c-.12-1.05-.23-2.12-.33-3.19,0-.29-.06-.56-.09-.85,0-.12,0-.24,0-.36,0-.28-.05-.56-.08-.85l0-.36c0-.28-.06-.56-.08-.85-.13-1.34-.24-2.68-.35-4,0-.41-.07-.81-.1-1.22s-.06-.8-.09-1.2-.06-.69-.08-1l-.09-1.2c0-.4-.06-.81-.08-1.22-.15-2.26-.29-4.54-.4-6.86,0-.8-.07-1.61-.11-2.42-.12-2.72-.2-5.49-.26-8.29,0-.8,0-1.61,0-2.42q-.12-7,0-14.19l0-1.21,0-1.21.09-2.73c0-.4,0-.81,0-1.21l.06-1.22c0-.78.06-1.55.1-2.34l.06-1.2C302.31,748.85,302.33,748.45,302.36,748Zm71.84,11.12c25.47,55.89.87,121.75-4.27,134.26H362c-.35-41.85,12.06-122.15,12.19-123a1.21,1.21,0,0,0-2.39-.37c-.13.84-12.57,81.27-12.22,123.36H352.4a.66.66,0,0,1-.12-.17q-.52-.78-1-1.59c-.36-.57-.69-1.16-1-1.75a49.81,49.81,0,0,1-4.71-12.51c-.14-.57-.27-1.15-.39-1.73s-.21-1-.3-1.59c-3.37-18.66.92-41.29,7.24-61.65.33-1.06.67-2.11,1-3.16h0c.29-.9.58-1.79.89-2.68A345.27,345.27,0,0,1,374.2,759.16ZM293.15,871.89l-.45-.85c-.06-.12-.13-.24-.2-.36l-.44-.85-.19-.36c-.73-1.38-1.45-2.79-2.19-4.25-.2-.4-.41-.8-.6-1.21-.06-.1-.1-.2-.15-.29-.15-.3-.31-.61-.45-.92-.05-.1-.1-.19-.14-.29-.21-.4-.4-.81-.6-1.21-2.18-4.48-4.35-9.25-6.44-14.26-.34-.79-.68-1.6-1-2.42-1.58-3.88-3.11-7.89-4.54-12-.28-.8-.56-1.61-.82-2.42-1.56-4.63-3-9.39-4.25-14.26-.11-.4-.21-.81-.31-1.21s-.21-.8-.31-1.21l0-.14c-.1-.4-.2-.8-.29-1.21s-.2-.81-.29-1.21c-.25-1.06-.48-2.12-.7-3.19-.07-.29-.13-.56-.18-.85,0-.12-.06-.24-.08-.36-.06-.28-.12-.56-.17-.85,0-.12-.05-.24-.08-.36-.06-.28-.11-.56-.17-.85-.29-1.47-.55-3-.8-4.45-.07-.41-.14-.81-.2-1.22s-.13-.8-.19-1.21c0-.2-.06-.41-.09-.62-.07-.4-.12-.8-.18-1.2s-.11-.81-.16-1.22a2.51,2.51,0,0,1,0-.27l.55.27c.63.33,1.39.72,2.24,1.22.62.35,1.28.75,2,1.2l1.06.68c.57.38,1.16.79,1.79,1.23h0c.54.39,1.08.79,1.66,1.23,1.63,1.23,3.4,2.67,5.26,4.35.31.27.61.56.92.85l.4.36.89.85.38.36.85.85c1,1,2,2.06,3.05,3.19l1.09,1.21,1.05,1.21.12.14,1,1.21,1,1.21c1.79,2.23,3.62,4.67,5.45,7.34.54.78,1.08,1.59,1.62,2.42.94,1.43,1.88,2.94,2.82,4.5.48.79,1,1.6,1.42,2.42q1.13,2,2.23,4h0c.56,1.06,1.13,2.14,1.69,3.25h0c.74,1.49,1.49,3,2.23,4.6,0,0,0,.08,0,.12h0c.36.8.73,1.6,1.09,2.42,2,4.4,3.87,9.14,5.68,14.26.14.39.28.8.42,1.21,0,.1.07.19.1.29.1.3.21.61.31.92,0,.09.07.19.11.29.13.41.26.81.4,1.21.46,1.39.91,2.81,1.36,4.25,0,.12.07.24.11.36.09.28.18.56.26.85,0,.12.07.24.11.36l.25.85c0,.12.07.24.11.36,1.93,6.53,3.7,13.56,5.27,21.17H318a156.94,156.94,0,0,0-6-21.17c0-.12-.08-.24-.13-.36-.14-.4-.28-.81-.43-1.21s-.21-.57-.32-.85a2.6,2.6,0,0,0-.13-.36c-.52-1.43-1.07-2.84-1.62-4.25L308.9,864a2.52,2.52,0,0,0-.12-.29c-.12-.31-.24-.62-.37-.92l-.12-.29c-.17-.41-.33-.82-.5-1.21-2.09-5-4.31-9.78-6.52-14.26-.41-.82-.81-1.62-1.22-2.42-2.21-4.36-4.41-8.4-6.47-12-.47-.83-.94-1.63-1.4-2.42-3.83-6.57-7.07-11.55-8.89-14.26-.33-.47-.6-.88-.83-1.21-.47-.68-.74-1.06-.76-1.1l-.1-.11-.15-.14a1.23,1.23,0,0,0-1.45,0l0,0a.67.67,0,0,0-.15.14,1.23,1.23,0,0,0-.26,1.21,1.34,1.34,0,0,0,.17.31l.63.9c1.35,2,4.77,7.05,9,14.26l1.41,2.42c2.07,3.6,4.3,7.64,6.55,12,.41.8.82,1.6,1.23,2.42,2.23,4.47,4.48,9.25,6.6,14.26l.51,1.21.12.29c.13.3.25.61.37.92,0,.09.09.19.13.29l.48,1.21c.57,1.4,1.12,2.82,1.66,4.25,0,.12.09.24.14.36.1.28.2.56.31.85l.44,1.21.13.36a159.42,159.42,0,0,1,6.06,21.17h-9.64c-3.16-4.83-7.67-12.11-12.53-21.17C293.28,872.13,293.21,872,293.15,871.89Zm6.27-97.32h-58a1.21,1.21,0,1,0,0,2.42h58.06c.06,2.8.15,5.57.27,8.29H255.16a1.21,1.21,0,1,0,0,2.42h44.68c.11,2.32.24,4.6.39,6.86H272a37.75,37.75,0,0,0-6.68-3.37,1.2,1.2,0,0,0-1.15.2,1.24,1.24,0,0,0-.44,1.09c.08.69.17,1.39.26,2.08H211.73a13.09,13.09,0,0,1-13.07-13.07v-8a13.1,13.1,0,0,1,13.07-13.08h87.74Q299.31,767.61,299.42,774.57ZM300.48,798c0,.4,0,.81.09,1.21l.09,1.21c.11,1.37.23,2.72.35,4.07h-16.3c-1.69-1.61-3.31-3-4.85-4.31-.52-.42-1-.8-1.51-1.22h0c-.56-.43-1.1-.84-1.62-1.22l-1-.74H300.4C300.42,797.32,300.45,797.66,300.48,798Zm1.18,13c0,.4.09.81.13,1.21l.15,1.21a.61.61,0,0,0,0,.14h-8.9l-.11-.14-1-1.21-1-1.18,0,0q-1.47-1.7-2.91-3.19h13.36C301.44,808.82,301.55,809.89,301.66,810.94Zm1.53,12.32h-2.95q-2.67-4-5.26-7.34h7.25C302.54,818.41,302.85,820.86,303.19,823.26Zm.92,6.19q-1.14-2-2.31-3.77h1.74C303.73,827,303.92,828.21,304.11,829.45Zm-35.92-13.53c1.25,4.86,2.66,9.63,4.2,14.26H225.55a1.21,1.21,0,1,0,0,2.42H273.2c1.42,4.13,2.93,8.14,4.5,12H239a1.21,1.21,0,1,0,0,2.42h39.69c2.07,5,4.22,9.77,6.38,14.26H140a11.49,11.49,0,0,1-11.47-11.48V827.4A11.49,11.49,0,0,1,140,815.92ZM67.42,852.72V824.5a16.76,16.76,0,0,1,16.75-16.75H266.28c.22,1.07.45,2.13.7,3.19.09.4.19.81.28,1.21s.19.81.29,1.21a1,1,0,0,0,0,.14H140a13.91,13.91,0,0,0-13.89,13.9v22.42A13.92,13.92,0,0,0,140,863.72H286.24l.14.29.6,1.21q1.08,2.17,2.16,4.25h-205A16.76,16.76,0,0,1,67.42,852.72Zm1.52,69.68a54,54,0,0,0,2.9-8.07h79.75a1.21,1.21,0,1,0,0-2.42H72.42a43.28,43.28,0,0,0,1-9.68h64.15a1.21,1.21,0,0,0,0-2.42H73.35A44.5,44.5,0,0,0,69,883.46H186.14a15,15,0,0,1,14.93,14.93v9.08a15,15,0,0,1-14.93,14.93ZM64.4,933.61a4.4,4.4,0,1,1,0-8.79H186.14a17.37,17.37,0,0,0,17.35-17.35v-9.08A17.37,17.37,0,0,0,186.14,881H64.4a4.4,4.4,0,1,1,0-8.79H290.6c4.72,8.86,9.13,16.11,12.4,21.17H282.67l0,40.19Z"
        transform="translate(-6.29)" style="fill:#fff" />
    <path
        d="M569.67,956.66A438.93,438.93,0,0,1,447,974.07c-8.07,0-16.23-.23-24.26-.66a1.21,1.21,0,1,0-.13,2.41c8.07.44,16.27.67,24.39.67A441.16,441.16,0,0,0,570.35,959a1.21,1.21,0,0,0-.68-2.32Z"
        transform="translate(-6.29)" style="fill:#fff" />
    <path
        d="M732.59,868.22c-11,9.47-22.62,18.49-34.52,26.82a1.21,1.21,0,0,0,.7,2.2,1.24,1.24,0,0,0,.69-.21c12-8.38,23.64-17.45,34.71-27a1.21,1.21,0,1,0-1.58-1.83Z"
        transform="translate(-6.29)" style="fill:#fff" />
    <path
        d="M470.62,98.18a1.21,1.21,0,1,0,.12-2.41c-7.86-.43-15.86-.64-23.77-.64A440,440,0,0,0,306.46,118a1.21,1.21,0,0,0,.38,2.36,1.76,1.76,0,0,0,.39-.06A437.48,437.48,0,0,1,447,97.55C454.83,97.55,462.79,97.76,470.62,98.18Z"
        transform="translate(-6.29)" style="fill:#fff" />
    <path
        d="M285.41,125.69c-5.17,2-10.38,4.21-15.47,6.44a1.21,1.21,0,0,0,.49,2.32,1.15,1.15,0,0,0,.48-.1c5.07-2.22,10.24-4.38,15.39-6.41a1.21,1.21,0,1,0-.89-2.25Z"
        transform="translate(-6.29)" style="fill:#fff" />
    <path
        d="M60.34,326.71a1.21,1.21,0,0,0-1.64.49,438.2,438.2,0,0,0-38.42,98.05,1.2,1.2,0,0,0,.86,1.47,1.15,1.15,0,0,0,.31,0,1.2,1.2,0,0,0,1.17-.91,435.9,435.9,0,0,1,38.21-97.5A1.2,1.2,0,0,0,60.34,326.71Z"
        transform="translate(-6.29)" style="fill:#fff" />
    <path
        d="M8.71,535.81a441.25,441.25,0,0,1,9.92-93.15,1.21,1.21,0,1,0-2.36-.52,443.54,443.54,0,0,0-10,93.67A436.13,436.13,0,0,0,52.6,732.67a1.2,1.2,0,0,0,1.08.67,1.16,1.16,0,0,0,.54-.13,1.2,1.2,0,0,0,.54-1.62A433.9,433.9,0,0,1,8.71,535.81Z"
        transform="translate(-6.29)" style="fill:#fff" />
    <path
        d="M96.51,345.09a1.21,1.21,0,0,0,1-.59,396.25,396.25,0,0,1,52.86-69.23,1.21,1.21,0,1,0-1.75-1.67,398.34,398.34,0,0,0-53.18,69.65,1.22,1.22,0,0,0,.41,1.67A1.29,1.29,0,0,0,96.51,345.09Z"
        transform="translate(-6.29)" style="fill:#fff" />
    <path
        d="M84.48,365.37a1.2,1.2,0,0,0-1.63.52,397.33,397.33,0,0,0-8.76,344.79,1.2,1.2,0,0,0,1.11.71,1.2,1.2,0,0,0,1.1-1.71A395,395,0,0,1,85,367,1.2,1.2,0,0,0,84.48,365.37Z"
        transform="translate(-6.29)" style="fill:#fff" />
    <path
        d="M674.5,900.56a1.22,1.22,0,0,0,.88-.38l4.45-4.65a1.21,1.21,0,0,0,0-1.71,1.23,1.23,0,0,0-1.72,0l-4.45,4.65a1.22,1.22,0,0,0,.87,2Z"
        transform="translate(-6.29)" style="fill:#fff" />
    <path
        d="M662.5,910.13,658,914.78a1.21,1.21,0,0,0,0,1.71,1.25,1.25,0,0,0,.84.34,1.18,1.18,0,0,0,.87-.38l4.46-4.65a1.21,1.21,0,1,0-1.75-1.67Z"
        transform="translate(-6.29)" style="fill:#fff" />
    <path
        d="M662.44,900.46a1.19,1.19,0,0,0,.85.34,1.21,1.21,0,0,0,.85-2.07l-4.52-4.45a1.21,1.21,0,1,0-1.7,1.73Z"
        transform="translate(-6.29)" style="fill:#fff" />
    <path
        d="M675.44,909.86a1.21,1.21,0,1,0-1.7,1.72l4.52,4.45a1.22,1.22,0,0,0,.85.35A1.2,1.2,0,0,0,680,916a1.23,1.23,0,0,0,0-1.72Z"
        transform="translate(-6.29)" style="fill:#fff" />
    <path
        d="M863.08,452.66l4.46-4.65a1.21,1.21,0,0,0-1.75-1.68L861.34,451a1.21,1.21,0,1,0,1.74,1.68Z"
        transform="translate(-6.29)" style="fill:#fff" />
    <path
        d="M846.62,469.3a1.25,1.25,0,0,0,.88-.37l4.45-4.65a1.21,1.21,0,0,0-1.75-1.68l-4.45,4.65a1.2,1.2,0,0,0,0,1.71A1.16,1.16,0,0,0,846.62,469.3Z"
        transform="translate(-6.29)" style="fill:#fff" />
    <path
        d="M851,453.28a1.21,1.21,0,0,0,.85-2.08l-4.52-4.44a1.21,1.21,0,0,0-1.7,1.72l4.52,4.45A1.24,1.24,0,0,0,851,453.28Z"
        transform="translate(-6.29)" style="fill:#fff" />
    <path
        d="M866,468.5a1.16,1.16,0,0,0,.84.35,1.22,1.22,0,0,0,.87-.36,1.2,1.2,0,0,0,0-1.71l-4.52-4.45a1.21,1.21,0,0,0-1.7,1.72Z"
        transform="translate(-6.29)" style="fill:#fff" />
    <path
        d="M367.47,372.79a75.39,75.39,0,0,1,2.36-14.08,1.21,1.21,0,0,0-2.35-.61,79.42,79.42,0,0,0-2.42,14.54,1.2,1.2,0,0,0,1.13,1.28h.07A1.21,1.21,0,0,0,367.47,372.79Z"
        transform="translate(-6.29)" style="fill:#fff" />
    <path
        d="M379.92,330.38a1.22,1.22,0,0,0-1.64.51,144.78,144.78,0,0,0-6.17,13.28,1.23,1.23,0,0,0,.67,1.58,1.21,1.21,0,0,0,1.58-.67A141.32,141.32,0,0,1,380.42,332,1.22,1.22,0,0,0,379.92,330.38Z"
        transform="translate(-6.29)" style="fill:#fff" />
    <path
        d="M368.59,386.83a1.21,1.21,0,0,0-2.35.6,31.45,31.45,0,0,0,6.89,13.27,1.2,1.2,0,0,0,.91.4,1.18,1.18,0,0,0,.8-.3,1.21,1.21,0,0,0,.1-1.71A29,29,0,0,1,368.59,386.83Z"
        transform="translate(-6.29)" style="fill:#fff" />
    <path
        d="M616.78,263.09c-4.53.4-9.26.67-14.43.82a1.21,1.21,0,0,0,0,2.42h0c5.22-.16,10-.42,14.58-.83a1.21,1.21,0,0,0,1.09-1.31A1.19,1.19,0,0,0,616.78,263.09Z"
        transform="translate(-6.29)" style="fill:#fff" />
    <path
        d="M645.07,257.93a114,114,0,0,1-14,3.31,1.21,1.21,0,0,0,.21,2.4h.21a117.33,117.33,0,0,0,14.27-3.39,1.21,1.21,0,0,0-.71-2.31Z"
        transform="translate(-6.29)" style="fill:#fff" />
    <path
        d="M669.82,244.37a52.74,52.74,0,0,1-11.54,8.17,1.2,1.2,0,0,0-.5,1.63,1.22,1.22,0,0,0,1.07.65,1.3,1.3,0,0,0,.57-.14,55.76,55.76,0,0,0,12.07-8.55,1.21,1.21,0,0,0-1.67-1.76Z"
        transform="translate(-6.29)" style="fill:#fff" />
    <path
        d="M558.85,263.28c-3.79-.09-6.78-.14-9.41-.14h-5.15a1.21,1.21,0,0,0,0,2.42h4.91v-1.21l.23,1.21c2.61,0,5.57.05,9.34.14h0a1.21,1.21,0,0,0,0-2.42Z"
        transform="translate(-6.29)" style="fill:#fff" />
    <path
        d="M394.75,306.67q-1.2,1.33-2.37,2.73a101.81,101.81,0,0,0-6.62,8.89,1.2,1.2,0,0,0,1,1.88,1.19,1.19,0,0,0,1-.54,100.31,100.31,0,0,1,6.46-8.67c.76-.91,1.54-1.8,2.32-2.66a1.21,1.21,0,1,0-1.8-1.63Z"
        transform="translate(-6.29)" style="fill:#fff" />
    <path
        d="M587.87,264c-5.43,0-10.6-.18-14.5-.3a1.19,1.19,0,0,0-1.24,1.17,1.21,1.21,0,0,0,1.17,1.25c3.91.11,9.1.25,14.54.3h0a1.21,1.21,0,0,0,1.22-1.19A1.23,1.23,0,0,0,587.87,264Z"
        transform="translate(-6.29)" style="fill:#fff" />
    <path
        d="M684.32,218.93a1.21,1.21,0,0,0-1.42,1,47.26,47.26,0,0,1-4.58,13.31,1.22,1.22,0,0,0,.51,1.64,1.26,1.26,0,0,0,.57.14,1.22,1.22,0,0,0,1.07-.65,50.27,50.27,0,0,0,4.81-14A1.2,1.2,0,0,0,684.32,218.93Z"
        transform="translate(-6.29)" style="fill:#fff" />
    <path
        d="M515.24,266h0c4.47-.16,9.21-.27,14.49-.34a1.21,1.21,0,0,0,0-2.42h0c-5.29.07-10,.18-14.55.34a1.21,1.21,0,0,0,0,2.42Z"
        transform="translate(-6.29)" style="fill:#fff" />
    <path
        d="M443.41,275a136,136,0,0,0-13.52,5.59,1.21,1.21,0,0,0,.52,2.3,1.11,1.11,0,0,0,.53-.12,136,136,0,0,1,13.28-5.49,1.21,1.21,0,0,0,.74-1.54A1.22,1.22,0,0,0,443.41,275Z"
        transform="translate(-6.29)" style="fill:#fff" />
    <path
        d="M500.65,264.34c-5,.35-9.94.8-14.52,1.34a1.21,1.21,0,0,0,.13,2.41h.15c4.54-.53,9.39-1,14.41-1.32a1.21,1.21,0,0,0-.17-2.42Z"
        transform="translate(-6.29)" style="fill:#fff" />
    <path
        d="M471.68,267.77c-4.94.87-9.74,1.9-14.27,3.06a1.2,1.2,0,0,0-.88,1.46,1.23,1.23,0,0,0,1.18.92,1.55,1.55,0,0,0,.29,0c4.48-1.14,9.23-2.15,14.11-3a1.21,1.21,0,1,0-.43-2.38Z"
        transform="translate(-6.29)" style="fill:#fff" />
</svg>