<svg id="Layer_1" data-name="Layer 1" xmlns="http://www.w3.org/2000/svg" viewBox="0 0 210.82 184.16"><path d="M214.46,5.75c-.19-.93-1.34-1.43-3-1.47L197,4.05,104.37,2.54a8.66,8.66,0,0,0-4.49,1.22L8,58.81c-1.4.84-2.09,1.87-1.84,2.78s1.34,1.46,3,1.49l6.39.1-1.68,32a6.51,6.51,0,0,0,0,12.47L9.75,125,3.67,150.77l18.76,1-3.27-26.31L17,107.76a6.51,6.51,0,0,0,1.34-12.4L20,63.27l36,.59,6.35,23.77Q64.13,85,66.09,82.5A78.24,78.24,0,0,1,172.57,54.73c2.4,1.1,4.74,2.33,7,3.67l-6.22-22c-16.63-2.87-41.75-.59-61.38,3.24A168.64,168.64,0,0,1,175.19,31L195,19.11l17.6-10.56C214,7.71,214.65,6.68,214.46,5.75Z" transform="translate(-3.67 -2.54)" style="fill:#fff"/><path d="M133.36,58.1a64.3,64.3,0,1,0,64.3,64.3A64.3,64.3,0,0,0,133.36,58.1Zm25.23,66.43L116,149.14a2.46,2.46,0,0,1-3.69-2.13V97.79A2.46,2.46,0,0,1,116,95.66l42.62,24.61A2.46,2.46,0,0,1,158.59,124.53Z" transform="translate(-3.67 -2.54)" style="fill:#fff"/></svg>