<svg id="Layer_1" data-name="Layer 1" xmlns="http://www.w3.org/2000/svg" viewBox="0 0 210.82 184.16"><path d="M210.79,3.21c-.19-.93-1.34-1.43-3-1.47l-14.46-.23L100.7,0a8.66,8.66,0,0,0-4.49,1.22L4.33,56.27c-1.4.84-2.09,1.87-1.84,2.78s1.34,1.46,3,1.49l6.39.1-1.68,32a6.51,6.51,0,0,0,0,12.47L6.08,122.46,0,148.23l18.76,1-3.27-26.31-2.16-17.7a6.51,6.51,0,0,0,1.34-12.4l1.66-32.09,36,.59,6.35,23.77c1.19-1.75,2.43-3.46,3.74-5.13A78.24,78.24,0,0,1,168.9,52.19a75.07,75.07,0,0,1,7,3.67l-6.22-22c-16.63-2.87-41.75-.59-61.38,3.24a168.56,168.56,0,0,1,63.22-8.64l19.81-11.89L208.93,6C210.33,5.17,211,4.14,210.79,3.21Z" transform="translate(0 0)" style="fill:#fff"/><path d="M129.69,55.56a64.3,64.3,0,1,0,64.3,64.3,64.3,64.3,0,0,0-64.3-64.3ZM154.92,122,112.33,146.6a2.46,2.46,0,0,1-3.36-.9,2.41,2.41,0,0,1-.33-1.23V95.25a2.46,2.46,0,0,1,2.46-2.46,2.41,2.41,0,0,1,1.23.33L155,117.73a2.47,2.47,0,0,1,.88,3.37A2.5,2.5,0,0,1,154.92,122Z" transform="translate(0 0)" style="fill:#fff"/></svg>