<svg id="Illustration" xmlns="http://www.w3.org/2000/svg" viewBox="0 0 1786.98 1877.82"><path d="M2076.14,1535.64a8.15,8.15,0,0,0-15.77-1.64c-15.2,42.73-37.45,112.09-44.91,170.5a308.32,308.32,0,0,0-20-54.56,309.44,309.44,0,0,1-8-248.26l27.55-68.85c3.49-8.7-7.6-15.77-13.89-8.85l-38.7,42.57A364.67,364.67,0,0,0,1891.84,1481L1726,781.32A197.22,197.22,0,0,0,1750.33,771l37.94,31.55a2.23,2.23,0,0,0,2.79.05L1828,774.23a2.24,2.24,0,0,0,.67-2.71l-20.69-44.72a198,198,0,0,0,18.1-23.71l48.62,8.35a2.23,2.23,0,0,0,2.44-1.35l17.78-43a2.25,2.25,0,0,0-.78-2.69L1853.76,636a196.87,196.87,0,0,0,3.93-29.57l46.22-17.06a2.23,2.23,0,0,0,1.45-2.39l-6.11-46.12a2.23,2.23,0,0,0-2-1.93l-49.14-4.45A199.58,199.58,0,0,0,1836.67,507L1868.22,469a2.24,2.24,0,0,0,.06-2.79l-28.35-36.89a2.24,2.24,0,0,0-2.71-.67l-44.72,20.69a197.18,197.18,0,0,0-23.71-18.1l8.35-48.62a2.22,2.22,0,0,0-1.35-2.44l-43-17.78a2.25,2.25,0,0,0-2.68.78l-28.42,40.33a195.22,195.22,0,0,0-29.57-3.92l-17.05-46.23a2.24,2.24,0,0,0-2.39-1.44l-46.12,6.1a2.24,2.24,0,0,0-1.94,2l-4.44,49.14a199.19,199.19,0,0,0-27.52,11.42l-37.94-31.55a2.24,2.24,0,0,0-2.79-.06l-36.89,28.35a2.23,2.23,0,0,0-.66,2.71l20.69,44.72a195.13,195.13,0,0,0-18.1,23.71l-48.63-8.35a2.22,2.22,0,0,0-2.44,1.35l-6.07,14.7A215.82,215.82,0,0,0,1394.17,473c-47.52-15.82-94.61-16-140.7,4.6A149.9,149.9,0,0,0,1181,553H446.33c-14.08,0-28,6.11-38.28,16.58l-1.85,0S378.63,601,369.12,611.68c-9.87,11.08-14.95,25.88-11.57,40.13l176.38,739.64a73.23,73.23,0,0,0-40.88-2.67c-87.64,18.8-129.7,176.63-131.57,282.7-3,170.4,101.06,341.46,259,425.67,75.64,40.34,165.85,61.68,256.41,61.67a565.38,565.38,0,0,0,82.95-6.07q10.49-1.56,20.71-3.51,1.35,3.28,3,6.68a2.73,2.73,0,0,0,1.42,1.34c.77.32,77.66,31.65,132.84,31.65H1119a15.37,15.37,0,0,0,12.91-7.2,15.58,15.58,0,0,0,1-15,147.69,147.69,0,0,0-11-19.15c-6.46-9.7-19.65-21.24-34.49-32.38q6.24-2.94,12.3-6.07h770.16a77.59,77.59,0,0,0,62.75,32h74.62a77.76,77.76,0,0,0,77.67-77.68V1925.46a2.24,2.24,0,0,0-2.23-2.24h-29c8.64-14.74,17.77-31.3,27.36-49.9C2147.5,1744.08,2088.12,1619.18,2076.14,1535.64ZM2015.73,1715a2.25,2.25,0,0,1,1.67-2.68h0a2.24,2.24,0,0,1,2.68,1.69,311.07,311.07,0,0,1,5.33,108.43l-8.89,70.29a2.24,2.24,0,0,1-2.22,2H2014a2.24,2.24,0,0,1-1.94-2.5l8.89-70.3A306.54,306.54,0,0,0,2015.73,1715Zm64.61,348.46a73.29,73.29,0,0,1-73.2,73.21h-74.62a73.33,73.33,0,0,1-73-67.86c0-.74-.09-1.48-.12-2.23s-.06-1.49-.06-2.24c0-.29,0-.59,0-.88V1927.7h221Zm-953,115.4a9.86,9.86,0,0,1-8.39,4.69h-1.22c-50.76,0-120.76-27.25-129.8-30.85q-1-2.26-2-4.48-.56-1.29-1.05-2.55c-.35-.86-.68-1.71-1-2.56a132.11,132.11,0,0,1-5.66-19.47l67-14.47,8.35-1.8-1.06,1.8-10.94,18.6-1.33,2.26a2.74,2.74,0,0,0-.37,1.22,2.67,2.67,0,0,0,1.2,2.39,1,1,0,0,0,.13.09,2.61,2.61,0,0,0,1.36.37,2.68,2.68,0,0,0,2.33-1.33l.31-.52,2.06-3.51,2.19-3.72,9.33-15.85,1.06-1.8a2.68,2.68,0,0,0,.38-1.44l3.49-.75q2.91,2,5.84,4,3.56,2.48,7.09,5l2.65,1.91,1,.75a2.6,2.6,0,0,0-1.47,1.19l-.85,1.44-11,18.78a2.7,2.7,0,0,0,4.66,2.74l11.89-20.22a2.83,2.83,0,0,0,.38-1.28c14.49,10.84,27.29,22,33.4,31.14A144.45,144.45,0,0,1,1128,2169,10.22,10.22,0,0,1,1127.32,2178.81ZM959,2147.4c-115.74,17.21-238.21-2.85-336-55C466.83,2009.1,363.91,1840,366.88,1671.57c1.79-101.28,43.49-259.53,127.3-277.51a68.44,68.44,0,0,1,41.29,3.86c18.46,7.51,36,22.29,54.23,41.15q1.53,1.58,3.06,3.2l3.06,3.24q2.92,3.13,5.89,6.4l-3.11,5.31L597,1460h0l-1.64,2.79-.32.55-6.44,4.32a45.35,45.35,0,0,0-10.7,2.13c-7.75,2.74-15,7.6-21.82,14.42-22.78,22.89-39.63,67.87-47.6,128.78-6.52,49.88-.28,83.86,6.37,103.94a66.39,66.39,0,0,0,27.41,41.42c12.85,8.78,28.92,13.18,48,13.18a143,143,0,0,0,16-1c3.56,14.55,12,36.27,31.83,57.74q2.26,2.45,4.73,4.89c10.8,10.67,26.87,17.38,45.37,21.36l2.42.5c.8.16,1.6.32,2.41.46,24.26,4.52,52.12,4.7,77.59,3.14h0q2.26-.14,4.5-.3h0a612.78,612.78,0,0,0,75-10s16.27,26.65,26.9,97.88c1.47,9.87,3,20.2,4.5,30.76,0,.08,0,.16,0,.25.2,1.4.41,2.81.61,4.22,0,.08,0,.16,0,.25,4,27.85,8.35,56.93,13.14,82.55l.42,2.24c.14.75.28,1.49.43,2.23,2.9,15.14,6,28.93,9.29,40.37,3.59,12.44,7.45,22.09,11.63,27.65l55.78-12a135.73,135.73,0,0,0,5.57,19.37Q968.89,2145.94,959,2147.4ZM446.33,557.46h732.81c-11.12,27.39-14.89,57.94-11.77,88.2H542.16c-14.21,0-28.24,7-37.53,18.77-8.38,10.6-11.59,23.39-8.81,35.11l154,649.58a28.51,28.51,0,0,1-17.35,2.68c-9.22-1.42-12.81-6-21.77-4.29-5.93,1.1-15.21,5.11-18.16,12.93-3.76,10,6.86,15.21,13,38,4.31,16,2.3,25.41,8.43,28.14a6.55,6.55,0,0,0,2.2.56c-3.42,5.87-7.58,13-11.61,19.87-3.77-4.13-7.51-8.13-11.22-12l-195-822.33c-2.81-11.87.51-24.91,9.1-35.78a52.54,52.54,0,0,1,7-7.25A49.27,49.27,0,0,1,446.33,557.46Zm1051.35-64.29a2.23,2.23,0,0,0,2.26-1,190.48,190.48,0,0,1,19.44-25.46,2.25,2.25,0,0,0,.37-2.45l-20.56-44.43,34.06-26.17L1571,425a2.24,2.24,0,0,0,2.46.27A194.14,194.14,0,0,1,1603,413a2.24,2.24,0,0,0,1.55-1.92l4.41-48.84,42.58-5.64,17,45.94a2.26,2.26,0,0,0,2,1.46,190.79,190.79,0,0,1,31.76,4.21,2.22,2.22,0,0,0,2.3-.9l28.24-40.07,39.69,16.41-8.3,48.31a2.23,2.23,0,0,0,1,2.26,191.09,191.09,0,0,1,25.47,19.45,2.23,2.23,0,0,0,2.44.37l44.43-20.56,26.17,34.05-31.35,37.71a2.24,2.24,0,0,0-.27,2.45,194.25,194.25,0,0,1,12.27,29.56,2.23,2.23,0,0,0,1.93,1.54l48.83,4.42,5.64,42.58-45.94,17a2.24,2.24,0,0,0-1.46,2,190,190,0,0,1-4.21,31.76,2.23,2.23,0,0,0,.9,2.3L1890.05,667l-16.41,39.69-48.31-8.3a2.23,2.23,0,0,0-2.26,1,192,192,0,0,1-19.44,25.46,2.22,2.22,0,0,0-.38,2.44l20.56,44.44-34,26.17-37.7-31.35a2.24,2.24,0,0,0-2.46-.27,193.54,193.54,0,0,1-24.68,10.62l-16.29-68.68a122,122,0,1,0-159.87-159.07c-.52,1.26-1,2.53-1.49,3.8h-49a224.51,224.51,0,0,0-54.71-54.22l5.75-13.9ZM1166.29,2064.29c23.1-20.15,42.18-43.09,56.52-68.39q3.92-6.9,7.44-14.16h624.59v81.67c0,.29,0,.59,0,.88ZM958.4,1658.43c-.7.92-1.4,1.86-2.11,2.81a426.57,426.57,0,0,0-42,68c35,6.87,63,15.47,72.05,26.06,5.58,6.55,11.54,19.08,18.22,38.29a2.7,2.7,0,0,1-1.66,3.44h0a2.69,2.69,0,0,1-3.43-1.67c-6.37-18.31-12.17-30.61-17.23-36.56-7.89-9.27-34.35-17.47-70.4-24.41q-2.7-.53-5.48-1c-46.6-8.6-107.73-15.19-165.43-19.41h0l-4.65-.34h0l-1-.07a2.69,2.69,0,0,1-2.5-2.83v0a2.68,2.68,0,0,1,2.2-2.46h0a2.35,2.35,0,0,1,.65,0l4,.28h0c41.55,3,113.24,9.27,169.19,19.75a427.08,427.08,0,0,1,40.72-66.92c.68-.94,1.37-1.86,2-2.76h0c.67-.9,1.33-1.79,2-2.66,20.84-27.51,38.07-44.15,38.37-44.44a2.7,2.7,0,1,1,3.74,3.9c-.29.28-15.87,15.33-35.22,40.42q-1,1.32-2.07,2.7ZM1552.05,553c.27-.7.55-1.39.84-2.09a117.53,117.53,0,1,1,154.7,153l-28.86-121.72C1674.6,564.7,1659,553,1639.87,553Zm-259.94,39.44c-1-5.87,4.34-9.88,9.91-7.52q59.79,24.76,119.58,49.49l2.38,1h0l.35.14a9.48,9.48,0,0,1,2.08,1.22h0a8.66,8.66,0,0,1,3.3,8.9,6.4,6.4,0,0,1-1.51,2.74,6.77,6.77,0,0,1-1.39,1.14l-.89.55-.08,0-1.91,1.19q-49.61,30.74-99.18,61.55c-4.54,2.89-11.36-.44-12.39-6.3l-10-56.44c-.26-1.49-.52-3-.79-4.48Q1296.83,619.05,1292.11,592.43Zm-99,133.32c25.66,44.71,66.89,80,115.49,97.41,14,4.61,28.11,8.68,42.56,10.28a183.51,183.51,0,0,0,97.93-15.6,150.53,150.53,0,0,0,70.14-70.41c.51-1,1-2.09,1.48-3.15s.94-2.06,1.38-3.1c12.15-28.1,16.38-59.72,13.14-91h58.51c15.08,0,26.92,8.8,30.15,22.44l8.81,37.18.59,2.45.57,2.42,17.28,72.89.54,2.26,3,12.56,224.13,945.36a149.73,149.73,0,0,0-51.1-27.16l-40.59-12.29c-9.85-3-16.46,10-8.32,16.37l25,19.4a114.07,114.07,0,0,1,43.87,87.71,114.59,114.59,0,0,0,16.68,57.22l20.89,34.27h-28.12a2.24,2.24,0,0,0-2.24,2.24v51.81H1232.38c19.1-41,29.28-89.47,29-138.06h297.31c14.82,0,23.7-12.8,19.85-28.55l-14.47-59.16c-3.82-15.61-18.83-28.23-33.53-28.23H1237.64c-11.75-25.46-27.53-46.59-46.58-61.74-29.85-23.74-59.57-27.53-93-24.37,7.44-22.07,10.18-39.71,4.91-48.56-23.61-39.67-49.47-39.52-118.87-23.91-35.11,7.89-95.92,30.56-147.74,51.36a36.44,36.44,0,0,0,4.9-13.43,2.34,2.34,0,0,0,0-.26,36.52,36.52,0,0,0,.36-7.53,2.7,2.7,0,0,0-3.4-2.47l-.43.11,58.42-91.1-18.95-13.85s-47.87,72.89-69.25,106.06a43.06,43.06,0,0,1-4.73-1.19c-15.94-5-34-1-42.87,5.88-10.77-7-21-14.4-30.68-22.09-8.62-29.48-22.51-50.74-37.21-66h0l-13.86-58.47a105.12,105.12,0,0,0,14.82-5.65c-1.07-4.63-2.62-14.15-5.18-22.8-.31-1-.62-2-.93-3h0l.95-2.38,6.4-2.79.13-.06.21-.11a1.93,1.93,0,0,0,.67-2.64,180.87,180.87,0,0,1-10.5-20.63,120,120,0,0,1-4.74-13h0c8.2-3.32,21-.07,24.11-6.68,4.07-8.69-10.55-30.39-27.95-32.65-9.29-1.2-15.65,3.62-22.82,7.71L500.17,698.5c-2.46-10.37.44-21.78,8-31.3,8.45-10.68,21.16-17.06,34-17.06h625.72A202.68,202.68,0,0,0,1193.15,725.75ZM1887.66,1602a2.25,2.25,0,0,1,2.71,1.63c.11.44,11.35,44.4,36.59,76.82a2.24,2.24,0,0,1-.39,3.14,2.21,2.21,0,0,1-1.37.47,2.25,2.25,0,0,1-1.77-.86c-25.83-33.19-37.29-78-37.4-78.48A2.25,2.25,0,0,1,1887.66,1602Zm22.1,177.9a2.23,2.23,0,0,1,3.14.32,296.32,296.32,0,0,1,25.13,35.46,154.62,154.62,0,0,1,14,29.64,2.23,2.23,0,0,1-1.42,2.82,2.15,2.15,0,0,1-.7.12,2.24,2.24,0,0,1-2.12-1.54,121.57,121.57,0,0,0-5.15-12.9c-7.57-16.36-18.66-32.37-28.48-44.93l0,0q-2.4-3-4.65-5.81a2.24,2.24,0,0,1,.32-3.14Zm4.53,117.4h0s0,0,0,0a.13.13,0,0,1,0,.06q.17,3.88.21,7.87a2.23,2.23,0,0,1-2.21,2.26h0a2.24,2.24,0,0,1-2.24-2.21c-1.15-119.31-96.51-171.81-97.47-172.33a2.23,2.23,0,1,1,2.1-3.94c.72.39,52.89,29,81.52,91.89h0A204.54,204.54,0,0,1,1914.29,1897.31ZM594.75,1470l2-1.33,1.81-1.21a.48.48,0,0,0,.11-.09h.08v-.05a2.71,2.71,0,0,0,.65-.74l1-1.79c1.15-1.95,3-5,5.1-8.72l1.44-2.45c.46-.79.93-1.61,1.42-2.44,5.1-8.72,11.23-19.2,15.42-26.38,2.19-1,4.45-1.87,6.91-1.56a7.59,7.59,0,0,1,1.79.42c3.39,1.21,5.09,4.18,6.35,7.8,2.1,6.06,2.93,13.94,8.27,18.48a18.76,18.76,0,0,0,8.61,3.76l-13.39,23L641,1479v0a2.69,2.69,0,0,0,.22,3,2.48,2.48,0,0,0,.71.65,32.5,32.5,0,0,1,10,9.46,32.06,32.06,0,0,1,2.94,5.36c-1.79.19-3.58.34-5.36.44-1.17.07-2.33.11-3.49.13s-2.38.05-3.57,0a105.85,105.85,0,0,1-26.24-3.56q-4.77-1.26-9.38-3-1.28-.45-2.52-1c-.86-.33-1.71-.68-2.55-1a105.78,105.78,0,0,1-19.71-11l8.55-5.74Zm137.39,114.83c7.72,5.91,15.74,11.64,24.11,17.12a111.27,111.27,0,0,1-19,12.65A223.52,223.52,0,0,0,732.14,1584.86Zm-76.06-212.19a34,34,0,0,1,3.75-.72,37.62,37.62,0,0,1,5.81-.35,36.46,36.46,0,0,1,7.94.92,83.35,83.35,0,0,0,2.65,9.09c1.43,4.07,3.11,8,4.9,11.88A189.19,189.19,0,0,0,691.2,1412l-5.75,1.26a1.73,1.73,0,0,0-.32.11,2.2,2.2,0,0,0-1.27,1.25l-.09.23-1.57,4a104.34,104.34,0,0,1-10.68,2.39c-1.49.25-3,.45-4.45.61l-.45.05a32.36,32.36,0,0,1-8.12,0,8.17,8.17,0,0,1-3.08-1,3.09,3.09,0,0,1-.78-.73c0-.2-.11-.16-.23-.52l-.34-1a168.25,168.25,0,0,1-4.23-16.83c-1.2-5.73-2.31-11.52-3.32-17.28a2.73,2.73,0,0,0-.9-1.59l0,0a25.62,25.62,0,0,0-5.5-3.35c.68-.11,1.23-.08,1.6-.15s.46-.24,1.31-.77a36.82,36.82,0,0,1,4.12-2.51,35.4,35.4,0,0,1,8.34-3.25Zm-25,31.73c-2.23-.8-4.07-3.33-4.48-6.17-.28-1.92.19-3.54,1.27-4.32a1.81,1.81,0,0,1,1.67-.36c2.58.69,5.88,5.37,7.94,9.3C635.61,1404.2,633.32,1405.19,631.08,1404.4Zm37.82,86.07a141.49,141.49,0,0,0-21.54-11.66l14.26-24.48a53,53,0,0,0,12.8-1.48l12.2,51.5A139.31,139.31,0,0,0,668.9,1490.47Zm23.93-76.76-.2.56-.26-.41Zm.62-1.7-.27-.44.46-.1Zm-117.81,68.67A111.2,111.2,0,0,0,603.2,1496c.84.33,1.68.64,2.53.94s1.65.59,2.49.85q3.22,1.08,6.52,2a111.59,111.59,0,0,0,28.66,3.75c1.24,0,2.47,0,3.71-.07s2.3-.09,3.46-.16,2.26-.16,3.39-.27c1.64-.15,3.29-.34,4.93-.57a2.71,2.71,0,0,0,2.2-3.5,37.81,37.81,0,0,0-4.7-9.72q4.8,2.63,9.53,5.74a133.74,133.74,0,0,1,23,19.23q3.16,3.29,6.25,7h0a151.61,151.61,0,0,1,27,48.8q.81,2.34,1.55,4.77c.48,1.5.93,3,1.36,4.58a214.63,214.63,0,0,1,7,38q-6,3-12.69,5.87c-1.37.59-2.76,1.18-4.17,1.76-19.46,8-42.23,15.32-65.67,22.81l-5.37,1.72-2.13.68-2.14.68c-9.43,3-18.85,6.09-28.08,9.26l-4.62-65.32a2.67,2.67,0,0,0-2.88-2.51,2.71,2.71,0,0,0-2.51,2.89l4.72,66.78q-3.76,1.3-7.48,2.66c-33.53,12.19-63.41,26.25-80.54,45.53-5.78-20-10.55-51.77-4.71-96.42,7.44-56.87,23.15-100.27,43.76-123.11a58.87,58.87,0,0,1,17.64-13.82,2.7,2.7,0,0,0,.43,3.9Zm-46.74,256.4a62.29,62.29,0,0,1-8.67-20.61l.2-.25c15.8-19.61,45.82-33.91,79.9-46.33q3.28-1.2,6.61-2.37,2.63-.93,5.28-1.84c9.49-3.28,19.21-6.44,28.93-9.57l2.14-.69,2.14-.68,5.76-1.84c23.22-7.41,45.79-14.62,65.29-22.63,1.41-.58,2.81-1.16,4.18-1.75,4.13-1.76,8.11-3.57,11.91-5.43.88-.43,1.75-.86,2.61-1.3s1.75-.89,2.6-1.34A117,117,0,0,0,761,1605c.54-.48,1.07-1,1.59-1.45l.51-.45a17.43,17.43,0,0,1,2.37-1.71c7.63-4.8,22.37-8.28,36.31-3.89,1.07.34,2.14.63,3.22.89,10.87,2.61,22.19,1.49,28.85.37.93-.16,1.77-.31,2.5-.46,0,.82-.11,1.63-.22,2.42a25.36,25.36,0,0,1-5.57,3.17c-5.68,2.47-15.71,5.16-31.92,4.58l-.51,0a2.63,2.63,0,0,0-2.81,2.59,2.69,2.69,0,0,0,2.59,2.8c1.76.07,3.46.11,5.09.11a96.48,96.48,0,0,0,16.53-1.33c2.34-.42,4.45-.9,6.35-1.43a48.25,48.25,0,0,0,8.36-3.09,33.74,33.74,0,0,1-3.34,6.35h0c-1.37,1.27-8.8,7.29-26.93,8-1.85.07-3.81.09-5.89,0h-.26a2.71,2.71,0,0,0-2.49,2.64,2.7,2.7,0,0,0,2.65,2.75l2,0c1,0,1.9,0,2.81,0,1.82,0,3.54-.15,5.18-.28h0l.53-.05c1.86-.17,3.6-.39,5.24-.66h0a62.53,62.53,0,0,0,6.62-1.44c-1.21.94-2.45,1.85-3.72,2.71-.9.61-1.82,1.2-2.74,1.77s-1.91,1.15-2.88,1.7a119.26,119.26,0,0,1-29.43,11.4,2.71,2.71,0,0,0-1.79,1.32c-.28.49-14.81,25.89-42.7,53.42l0,0q-1.82,1.8-3.71,3.61h0c-3.08,2.93-6.31,5.88-9.68,8.81-1.52,1.32-3.07,2.63-4.65,4h0a242.29,242.29,0,0,1-51.64,33.1c-.69.32-1.37.64-2.07,1s-1.38.64-2.08.94a204.88,204.88,0,0,1-35.45,12c-1.81.43-3.61.84-5.38,1.21a174.82,174.82,0,0,1-17.29,2.83c-24.63,2.73-44.66-1-59.76-11.33a59.12,59.12,0,0,1-14.92-14.63C529.9,1738.58,529.38,1737.83,528.9,1737.08ZM1889,1488.56a367.83,367.83,0,0,0-4.29,236.09l13.31,41.72a154.76,154.76,0,0,0-13.47-13.75h0l-217-915.43-4.29-18.08L1659,801l-20.24-85.37-.56-2.38-.58-2.41-9.32-39.33c-3.67-15.48-17.54-25.88-34.5-25.88h-59a201.11,201.11,0,0,0-25.09-75q-3.9-6.76-8.25-13.22h138.46c17.26,0,30.81,10.09,34.51,25.7l29,122.38.54,2.25.5,2.14,16.23,68.45.52,2.18,1.31,5.51L1889,1488.55Zm-810,620.57c-2.88-2.06-5.79-4.09-8.68-6.08-.49-2.9-2.62-15.49-6-34.29-.13-.73-.26-1.48-.4-2.23s-.26-1.48-.39-2.24c-3.92-21.81-9.31-50.89-15.62-82.55q-.45-2.22-.9-4.47c-11.17-55.65-25.06-118.47-38.78-163.54,3.21-5.35,6.73-11.26,10.46-17.6,12.31-21,26.92-46.64,40.61-72.86,14.59-27.93,28.15-56.45,36.79-80.46,33.2-3.43,62.52-.15,91.57,23,17.83,14.18,32.72,33.84,44,57.51,12.52,26.26,20.59,57.44,23.3,91.52q1,12.18,1,24.42c.26,48.72-10.12,97.26-29.59,138.06q-1.07,2.25-2.19,4.47c-1.94,3.91-4,7.74-6.11,11.49-15,26.48-35.34,50.34-60.13,71.06-.9.76-1.8,1.5-2.71,2.24s-1.84,1.5-2.77,2.23a339.86,339.86,0,0,1-65,40.37c-1.7.82-3.4,1.62-5.12,2.41Zm866.23-433.27c-8-25.49-15.46-49.56-19.92-75.45-21-122.18,50.72-228.21,51.45-229.27a2.24,2.24,0,0,1,3.69,2.54c-.72,1-71.47,105.62-50.73,226,4.41,25.6,11.88,49.53,19.78,74.88,14.86,47.62,31.4,100.68,30.06,176.58v0q-.08,4.32-.23,8.75v0c-.1,2.67-.21,5.37-.35,8.1a0,0,0,0,0,0,0q-.57,11.15-1.67,22.94a2.24,2.24,0,0,1-2.23,2h-.21a2.24,2.24,0,0,1-2-2.43c1.28-13.67,2-26.64,2.22-39q.09-4.71.09-9.3,0-5.14-.11-10.15a.06.06,0,0,1,0,0C1973.62,1766.77,1958.73,1719.05,1945.26,1675.86Zm111.33,150.39a2.23,2.23,0,0,1-2.2,1.86,2.31,2.31,0,0,1-.37,0,2.25,2.25,0,0,1-1.84-2.58c16.22-95.87,10.6-243.46,10.55-244.94a2.23,2.23,0,1,1,4.46-.18C2067.25,1581.87,2072.89,1729.92,2056.59,1826.25Z" transform="translate(-356.51 -311.09)" style="fill:#4b2dd1"/><path d="M2005.61,1960.89H1879.17a2.24,2.24,0,0,0,0,4.47h181.29a2.24,2.24,0,1,0,0-4.47h-54.85Z" transform="translate(-356.51 -311.09)" style="fill:#4b2dd1"/><path d="M2135,1173.85c8.87,70.46,7.26,180.82-50.78,306.42a2.24,2.24,0,1,0,4.06,1.88c58.48-126.57,60.1-237.82,51.16-308.86-9.7-77-33.6-124.84-33.84-125.31a2.24,2.24,0,0,0-4,2C2101.88,1050.47,2125.43,1097.57,2135,1173.85Z" transform="translate(-356.51 -311.09)" style="fill:#4b2dd1"/><path d="M2089.59,1208.21a2.25,2.25,0,0,0-1.3,2.89c.26.67,25.07,69.66-32.74,224.63a2.24,2.24,0,0,0,1.31,2.87,2.2,2.2,0,0,0,.79.14,2.23,2.23,0,0,0,2.09-1.45c58.39-156.54,33.81-224.94,32.73-227.78A2.24,2.24,0,0,0,2089.59,1208.21Z" transform="translate(-356.51 -311.09)" style="fill:#4b2dd1"/><path d="M2076.57,1152.81h0l15.22-.27a2.24,2.24,0,0,0,2.2-2.28,2.2,2.2,0,0,0-2.28-2.19l-15.22.27a2.24,2.24,0,0,0,0,4.47Z" transform="translate(-356.51 -311.09)" style="fill:#4b2dd1"/><path d="M2023.3,1153.75h0l15.22-.27a2.23,2.23,0,0,0,2.2-2.27,2.21,2.21,0,0,0-2.28-2.2l-15.22.27a2.24,2.24,0,0,0,0,4.47Z" transform="translate(-356.51 -311.09)" style="fill:#4b2dd1"/><path d="M2057.49,1134.4h0a2.24,2.24,0,0,0,2.23-2.24l-.05-15a2.23,2.23,0,0,0-2.23-2.23h0a2.24,2.24,0,0,0-2.23,2.24l.05,15A2.23,2.23,0,0,0,2057.49,1134.4Z" transform="translate(-356.51 -311.09)" style="fill:#4b2dd1"/><path d="M2057.6,1167.42h0a2.24,2.24,0,0,0-2.23,2.25l0,15a2.23,2.23,0,0,0,2.24,2.23h0a2.22,2.22,0,0,0,2.23-2.24l0-15A2.25,2.25,0,0,0,2057.6,1167.42Z" transform="translate(-356.51 -311.09)" style="fill:#4b2dd1"/><path d="M772.09,469.58a2.25,2.25,0,0,0,1.75.83,2.3,2.3,0,0,0,1.4-.48c52.73-42.17,157.82-116,269.1-137a2.24,2.24,0,1,0-.83-4.4c-112.23,21.13-218,95.45-271.07,137.87A2.25,2.25,0,0,0,772.09,469.58Z" transform="translate(-356.51 -311.09)" style="fill:#4b2dd1"/><path d="M683.88,505a2.22,2.22,0,0,0,1.58-.65c96.07-95.72,184.8-130.95,185.69-131.3a2.23,2.23,0,0,0-1.62-4.16c-.9.35-90.45,35.86-187.23,132.29a2.24,2.24,0,0,0,1.58,3.82Z" transform="translate(-356.51 -311.09)" style="fill:#4b2dd1"/><path d="M1094.7,349.78a19.67,19.67,0,1,0-14-24A19.69,19.69,0,0,0,1094.7,349.78ZM1085,326.89a15.2,15.2,0,1,1,10.82,18.56A15.22,15.22,0,0,1,1085,326.89Z" transform="translate(-356.51 -311.09)" style="fill:#4b2dd1"/><path d="M439.4,1320.34l14,5.93a2.24,2.24,0,0,0,1.74-4.12l-14-5.92a2.23,2.23,0,0,0-1.74,4.11Z" transform="translate(-356.51 -311.09)" style="fill:#4b2dd1"/><path d="M406.09,1301.41l-14-5.93a2.24,2.24,0,1,0-1.74,4.12l14,5.93a2.22,2.22,0,0,0,.87.18,2.24,2.24,0,0,0,.87-4.3Z" transform="translate(-356.51 -311.09)" style="fill:#4b2dd1"/><path d="M437.24,1277.94a2.24,2.24,0,0,0-2.94,1.15l-6.05,13.73a2.23,2.23,0,0,0,1.15,2.94,2.23,2.23,0,0,0,2.94-1.14l6.05-13.73A2.24,2.24,0,0,0,437.24,1277.94Z" transform="translate(-356.51 -311.09)" style="fill:#4b2dd1"/><path d="M408.25,1343.81a2.21,2.21,0,0,0,.9.19,2.25,2.25,0,0,0,2.05-1.33l6-13.73a2.23,2.23,0,1,0-4.09-1.8l-6,13.72A2.25,2.25,0,0,0,408.25,1343.81Z" transform="translate(-356.51 -311.09)" style="fill:#4b2dd1"/><path d="M406.07,1153.24h0a17,17,0,0,0-19,25,17,17,0,0,0,14.66,8.43,17,17,0,0,0,4.33-33.4Zm7.77,19.6a12.5,12.5,0,1,1-8.91-15.28A12.51,12.51,0,0,1,413.84,1172.84Z" transform="translate(-356.51 -311.09)" style="fill:#4b2dd1"/><path d="M1001.68,2142c-1.83-.62-3.44-1.19-4.82-1.67-3.53-1.25-5.52-2-5.64-2.05a2.69,2.69,0,0,0-3.48,1.57,2.65,2.65,0,0,0,.26,2.41,2.61,2.61,0,0,0,1.3,1.07c.07,0,.92.35,2.45.9,1.2.44,2.81,1,4.8,1.71,19.69,6.89,75.9,25.23,125,28.51h.18a2.7,2.7,0,0,0,.18-5.39c-42.9-2.86-91.41-17.41-115.48-25.45Q1003.87,2142.73,1001.68,2142Z" transform="translate(-356.51 -311.09)" style="fill:#4b2dd1"/><path d="M626.76,1856.64a2.71,2.71,0,0,0-3-2.33c-2.8.37-68.81,9.62-89.28,59.09a2.7,2.7,0,1,0,5,2.06c19.27-46.56,84.35-55.71,85-55.79A2.7,2.7,0,0,0,626.76,1856.64Z" transform="translate(-356.51 -311.09)" style="fill:#4b2dd1"/><path d="M649.68,1865.34c-.18.19-1,1.07-2.13,2.57h0a108.06,108.06,0,0,0-21.2,76.9,2.7,2.7,0,0,0,2.68,2.42,1.42,1.42,0,0,0,.29,0,2.69,2.69,0,0,0,2.4-3,104.47,104.47,0,0,1,17.49-69.37,63.37,63.37,0,0,1,4.47-5.91,2.7,2.7,0,0,0-4-3.63Z" transform="translate(-356.51 -311.09)" style="fill:#4b2dd1"/><circle cx="1224.25" cy="1414.57" r="43.34" transform="matrix(0.36, -0.93, 0.93, 0.36, -889.8, 1744.46)" style="fill:#4b2dd1"/><path d="M1122.63,1093.17,1167,1301.71a36.83,36.83,0,0,0,72.49-12.78l-29.68-211.13a36.84,36.84,0,0,0-41.6-31.34l-1.26.2-14.64,2.59a36.82,36.82,0,0,0-29.88,42.65C1122.46,1092.33,1122.54,1092.75,1122.63,1093.17Z" transform="translate(-356.51 -311.09)" style="fill:#4b2dd1"/></svg>