<svg id="Illustration" xmlns="http://www.w3.org/2000/svg" viewBox="0 0 1786.96 1877.82"><path d="M1719.63,1224.55a8.15,8.15,0,0,0-15.77-1.64c-15.2,42.73-37.45,112.09-44.91,170.5a307.93,307.93,0,0,0-20-54.56,309.45,309.45,0,0,1-8-248.26l27.55-68.85c3.49-8.7-7.6-15.77-13.89-8.85l-38.7,42.57a364.64,364.64,0,0,0-70.58,114.45L1375.55,495.8l-24.46-103h0l-3.85-16.23-.44-1.85h0L1322.22,271.1c-4.13-17.49-19.73-29.19-38.86-29.19h-87.82l-4.73,0h-55.54l-7.22-30.46a7.25,7.25,0,0,0-7.36-5.5H881.2a10.66,10.66,0,0,0-9,5.4c-6.09,5.06-27.09,22.47-37.08,30.61H89.82c-14.08,0-28,6.11-38.28,16.58H49.69s-27.57,31.42-37.08,42.1C2.74,311.67-2.34,326.47,1,340.72l176.38,739.64a73.22,73.22,0,0,0-40.88-2.67C48.9,1096.49,6.84,1254.32,5,1360.39,2,1530.79,106,1701.85,264,1786.06c75.64,40.34,165.85,61.68,256.41,61.67a564.4,564.4,0,0,0,83-6.07q10.49-1.56,20.71-3.51c.9,2.19,1.9,4.41,3,6.68a2.73,2.73,0,0,0,1.42,1.34c.77.32,77.66,31.65,132.84,31.65h1.19a15.37,15.37,0,0,0,12.91-7.2,15.59,15.59,0,0,0,1-15,147.15,147.15,0,0,0-11-19.15c-6.46-9.7-19.65-21.24-34.49-32.38q6.24-2.94,12.3-6.07h770.16a77.6,77.6,0,0,0,62.75,32h74.62a77.76,77.76,0,0,0,77.67-77.68v-138a2.25,2.25,0,0,0-2.23-2.24h-29c8.64-14.74,17.77-31.3,27.36-49.9C1791,1433,1731.61,1308.09,1719.63,1224.55Zm-64.08,356.59,8.89-70.3a306.41,306.41,0,0,0-5.22-106.93,2.23,2.23,0,1,1,4.35-1h0a311.09,311.09,0,0,1,5.33,108.43l-8.89,70.29a2.24,2.24,0,0,1-2.22,2h-.3A2.24,2.24,0,0,1,1655.55,1581.14Zm-35.3-521.09a2.24,2.24,0,0,1,3.69,2.54c-.72,1-71.47,105.62-50.73,226,4.41,25.6,11.88,49.53,19.78,74.88,14.86,47.62,31.4,100.68,30.06,176.58q-.08,4.32-.23,8.75c-.1,2.67-.21,5.37-.35,8.1q-.57,11.14-1.67,22.94a2.23,2.23,0,0,1-2.23,2h-.21a2.24,2.24,0,0,1-2-2.43c1.28-13.67,2-26.64,2.22-39q.09-4.71.09-9.3,0-5.14-.11-10.15c-1.45-65.28-16.34-113-29.81-156.19h0c-8-25.49-15.46-49.56-19.92-75.45C1547.8,1167.14,1619.52,1061.11,1620.25,1060.05ZM1558,1594.14a2.23,2.23,0,0,1-2.2,2.26h0a2.24,2.24,0,0,1-2.24-2.21c-1.15-119.31-96.51-171.81-97.47-172.33a2.23,2.23,0,1,1,2.1-3.94c.72.39,52.89,29,81.52,91.89a204.52,204.52,0,0,1,18.09,76.41v0Q1557.95,1590.15,1558,1594.14Zm-.34-116.34L1553,1472a2.24,2.24,0,0,1,.32-3.14l-.07,0a2.23,2.23,0,0,1,3.14.32h0a297,297,0,0,1,25.13,35.46,154.71,154.71,0,0,1,14,29.64,2.23,2.23,0,0,1-1.42,2.82h0a2.1,2.1,0,0,1-.7.12,2.23,2.23,0,0,1-2.12-1.54,122.47,122.47,0,0,0-5.15-12.9C1578.56,1506.37,1567.47,1490.36,1557.65,1477.8Zm-23.79-185.26c.11.44,11.35,44.4,36.59,76.82a2.24,2.24,0,0,1-.39,3.14,2.19,2.19,0,0,1-1.37.47,2.27,2.27,0,0,1-1.77-.86c-25.83-33.19-37.29-78-37.4-78.48a2.24,2.24,0,1,1,4.34-1.09ZM1145,246.32h138.46c17.26,0,30.81,10.09,34.51,25.7l29,122.38.54,2.25.5,2.14,16.23,68.45.52,2.18,1.31,5.51,166.47,702.53h0a367.85,367.85,0,0,0-4.29,236.09l13.31,41.72a154.71,154.71,0,0,0-13.47-13.75L1311,526.1,1306.75,508l-4.26-18.11-20.24-85.37-.56-2.38-.58-2.41-9.32-39.33c-3.67-15.48-17.54-25.88-34.5-25.88h-80l-20.91-88.22ZM41.83,301.59c-2.81-11.87.51-24.91,9.1-35.78a52.73,52.73,0,0,1,7-7.25,49.29,49.29,0,0,1,31.89-12.19H878l2.37,10,18.55,78.21H185.65c-14.21,0-28.24,7-37.53,18.77-8.38,10.6-11.59,23.39-8.81,35.11l154,649.58a28.51,28.51,0,0,1-17.35,2.68c-9.22-1.42-12.81-6-21.77-4.29-5.93,1.1-15.21,5.11-18.16,12.93-3.76,10,6.86,15.21,13,38,4.31,16,2.3,25.41,8.43,28.14a6.73,6.73,0,0,0,2.2.56c-3.42,5.87-7.58,13-11.61,19.87q-5.66-6.2-11.22-12ZM376.06,1312c.88-.43,1.75-.86,2.61-1.3s1.75-.89,2.6-1.34a117,117,0,0,0,23.22-15.42c.54-.48,1.07-1,1.59-1.45l.51-.45a16.58,16.58,0,0,1,2.37-1.71c7.63-4.8,22.37-8.28,36.31-3.89,1.07.34,2.14.63,3.22.89,10.87,2.61,22.19,1.49,28.85.37.93-.16,1.77-.31,2.5-.46a17.55,17.55,0,0,1-.22,2.42,25.59,25.59,0,0,1-5.57,3.17c-5.68,2.47-15.71,5.16-31.92,4.58h-.51a2.62,2.62,0,0,0-2.8,2.44.76.76,0,0,0,0,.15,2.69,2.69,0,0,0,2.58,2.8h0c1.76.07,3.46.11,5.09.11a96.33,96.33,0,0,0,16.53-1.33c2.34-.42,4.45-.9,6.35-1.43a47.93,47.93,0,0,0,8.36-3.09,33.17,33.17,0,0,1-3.34,6.35c-1.37,1.27-8.8,7.29-26.93,8-1.85.07-3.81.09-5.89,0h-.26a2.7,2.7,0,0,0,.16,5.39h4.81c1.82,0,3.54-.15,5.18-.28l.53,0c1.86-.17,3.6-.39,5.24-.66a62.46,62.46,0,0,0,6.62-1.44c-1.21.94-2.45,1.85-3.72,2.71-.9.61-1.82,1.2-2.74,1.77s-1.91,1.15-2.88,1.7a119.17,119.17,0,0,1-29.43,11.4,2.68,2.68,0,0,0-1.79,1.32c-.28.49-14.81,25.89-42.7,53.42q-1.81,1.8-3.71,3.61c-3.08,2.93-6.31,5.88-9.68,8.81-1.52,1.32-3.07,2.63-4.65,4a242,242,0,0,1-51.64,33.1c-.69.32-1.37.64-2.07,1s-1.38.64-2.08.94a205.21,205.21,0,0,1-35.45,12c-1.81.43-3.61.84-5.38,1.21a174,174,0,0,1-17.29,2.83c-24.63,2.73-44.66-1-59.76-11.33A59.27,59.27,0,0,1,174,1428.2a25.39,25.39,0,0,1-1.57-2.21v0a62.17,62.17,0,0,1-8.67-20.61l.2-.25c15.8-19.61,45.82-33.91,79.9-46.33q3.28-1.2,6.61-2.37,2.63-.93,5.28-1.84c9.49-3.28,19.21-6.44,28.93-9.57l2.14-.69,2.14-.68,5.76-1.84c23.22-7.41,45.79-14.62,65.29-22.63,1.41-.58,2.81-1.16,4.18-1.75C368.28,1315.64,372.26,1313.83,376.06,1312Zm-.43-38.2v0c7.72,5.91,15.74,11.64,24.11,17.12a110.73,110.73,0,0,1-19,12.65A223.5,223.5,0,0,0,375.63,1273.77Zm224.15,76.38a426.26,426.26,0,0,0-42,68c35,6.87,63,15.47,72.05,26.06,5.58,6.55,11.54,19.08,18.22,38.29a2.7,2.7,0,0,1-1.66,3.44h0a2.69,2.69,0,0,1-3.43-1.66h0c-6.37-18.31-12.17-30.61-17.23-36.56-7.89-9.27-34.35-17.47-70.4-24.41-1.8-.35-3.63-.69-5.48-1-46.6-8.6-107.73-15.19-165.43-19.41l-4.65-.34-1-.07a2.67,2.67,0,0,1-.3-5.29,2.36,2.36,0,0,1,.65,0l4,.28c41.55,3,113.24,9.27,169.19,19.75A426.85,426.85,0,0,1,593,1350.3c.68-.94,1.37-1.86,2-2.76s1.33-1.79,2-2.66c20.84-27.51,38.07-44.15,38.37-44.44a2.7,2.7,0,1,1,3.74,3.9c-.29.28-15.87,15.33-35.22,40.42l-2.07,2.7,0-.12C601.19,1348.26,600.49,1349.2,599.78,1350.15Zm-236.9-38c-1.37.59-2.76,1.18-4.17,1.76-19.46,8-42.23,15.32-65.67,22.81l-5.37,1.72-2.13.68-2.14.68c-9.43,3-18.85,6.09-28.08,9.26l-4.62-65.32a2.66,2.66,0,0,0-2.82-2.51h-.06a2.71,2.71,0,0,0-2.51,2.89L250,1350.9c-2.51.87-5,1.75-7.48,2.66-33.53,12.19-63.41,26.25-80.54,45.53-5.78-20-10.55-51.77-4.71-96.42,7.44-56.87,23.15-100.27,43.76-123.11a58.85,58.85,0,0,1,17.64-13.82,2.72,2.72,0,0,0,.31,3.81l.12.09v-.08a111.16,111.16,0,0,0,27.56,15.35c.84.33,1.68.64,2.53.94s1.65.59,2.49.85q3.22,1.08,6.52,2a111.34,111.34,0,0,0,28.66,3.75c1.24,0,2.47,0,3.71-.07s2.3-.09,3.46-.16,2.26-.16,3.39-.27c1.64-.15,3.29-.34,4.93-.57a2.71,2.71,0,0,0,2.3-3.07,3.34,3.34,0,0,0-.1-.43,37.8,37.8,0,0,0-4.7-9.72q4.8,2.63,9.53,5.74a134,134,0,0,1,23,19.23q3.16,3.28,6.25,7a151.51,151.51,0,0,1,27,48.8q.81,2.34,1.55,4.77c.48,1.5.93,3,1.36,4.58a215.1,215.1,0,0,1,7,38Q369.57,1309.28,362.88,1312.15Zm-92.79-225c-.28-1.92.19-3.54,1.27-4.32a1.81,1.81,0,0,1,1.67-.36c2.58.69,5.88,5.37,7.94,9.3-1.87,1.38-4.16,2.37-6.4,1.58v0C272.34,1092.48,270.5,1090,270.09,1087.11Zm4.09,25a7.9,7.9,0,0,1,1.79.42c3.39,1.21,5.09,4.18,6.35,7.8,2.1,6.06,2.93,13.94,8.27,18.48a18.76,18.76,0,0,0,8.61,3.76l-13.39,23-1.32,2.3a2.69,2.69,0,0,0,.22,3,2.45,2.45,0,0,0,.71.65,32.49,32.49,0,0,1,10,9.46,32.06,32.06,0,0,1,2.94,5.36c-1.79.19-3.58.34-5.36.44-1.17.07-2.33.11-3.49.13s-2.38,0-3.57,0a105.69,105.69,0,0,1-26.24-3.56,95.62,95.62,0,0,1-9.38-3c-.85-.3-1.69-.63-2.52-1l-2.55-1a105.7,105.7,0,0,1-19.71-11l8.55-5.74,4.15-2.74,2-1.33,1.81-1.21a.31.31,0,0,0,.11-.09h.08v0a2.71,2.71,0,0,0,.65-.74l1-1.79c1.15-2,3-5,5.1-8.72l1.44-2.45c.46-.79.93-1.61,1.42-2.44,5.1-8.72,11.23-19.2,15.42-26.38C269.46,1112.71,271.72,1111.84,274.18,1112.15Zm38.21,67.23v0a142.15,142.15,0,0,0-21.54-11.66l14.26-24.48a53.06,53.06,0,0,0,12.8-1.48l12.2,51.5A138.63,138.63,0,0,0,312.39,1179.38Zm2.62-69.23c-1.49.25-3,.45-4.45.61l-.45,0a32.45,32.45,0,0,1-8.12,0,8,8,0,0,1-3.08-1,3.18,3.18,0,0,1-.78-.73c0-.2-.11-.16-.23-.52l-.34-1a167.67,167.67,0,0,1-4.23-16.83c-1.2-5.73-2.31-11.52-3.32-17.28a2.75,2.75,0,0,0-.9-1.59,25.77,25.77,0,0,0-5.5-3.35c.68-.11,1.23-.08,1.6-.15s.46-.24,1.31-.77a36.82,36.82,0,0,1,4.12-2.51,35.57,35.57,0,0,1,8.34-3.25l.59-.28a34.43,34.43,0,0,1,3.75-.72,37.62,37.62,0,0,1,5.81-.35,36,36,0,0,1,7.94.92,84.39,84.39,0,0,0,2.65,9.09c1.43,4.07,3.11,8,4.9,11.88a189.66,189.66,0,0,0,10.07,18.54l-5.75,1.26a1.73,1.73,0,0,0-.32.11,2.2,2.2,0,0,0-1.27,1.25l-.09.23-1.57,4A105.54,105.54,0,0,1,315,1110.15Zm287.48,726.16c-115.74,17.21-238.21-2.85-336-55C110.32,1698,7.4,1528.91,10.37,1360.48,12.16,1259.2,53.86,1101,137.67,1083a68.44,68.44,0,0,1,41.29,3.86c18.46,7.51,36,22.29,54.23,41.15q1.53,1.57,3.06,3.2l3.06,3.24q2.92,3.13,5.89,6.4l-3.11,5.31-1.6,2.78-1.64,2.79-.32.55-6.44,4.32a45.42,45.42,0,0,0-10.7,2.13c-7.75,2.74-15,7.6-21.82,14.42C176.79,1196,159.94,1241,152,1301.9c-6.52,49.88-.28,83.86,6.37,103.94a66.39,66.39,0,0,0,27.41,41.42c12.85,8.78,28.92,13.18,48,13.18a142.58,142.58,0,0,0,16-1c3.56,14.55,12,36.27,31.83,57.74,1.51,1.63,3.08,3.26,4.73,4.89,10.8,10.67,26.87,17.38,45.37,21.36l2.42.5c.8.16,1.6.32,2.41.46,24.26,4.52,52.12,4.7,77.59,3.14q2.26-.13,4.5-.3a612.8,612.8,0,0,0,75-10s16.27,26.65,26.9,97.88c1.47,9.87,3,20.2,4.5,30.76v.25c.2,1.4.41,2.81.61,4.22v.25c4,27.85,8.35,56.93,13.14,82.55l.42,2.24c.14.75.28,1.49.43,2.23,2.9,15.14,6,28.93,9.29,40.37,3.59,12.44,7.45,22.09,11.63,27.65l55.78-12a135.6,135.6,0,0,0,5.57,19.37Q612.38,1834.85,602.49,1836.31Zm158.3,3.23a144.43,144.43,0,0,1,10.7,18.37,10.23,10.23,0,0,1-.68,9.81l0,0a9.86,9.86,0,0,1-8.39,4.69h-1.22c-50.76,0-120.76-27.25-129.8-30.85-.67-1.51-1.33-3-2-4.48q-.55-1.29-1-2.55c-.35-.86-.68-1.71-1-2.56a133,133,0,0,1-5.66-19.47l67-14.47,8.35-1.8-1.06,1.8-10.94,18.6-1.33,2.26a2.76,2.76,0,0,0-.37,1.22,2.66,2.66,0,0,0,1.2,2.39l.13.09a2.6,2.6,0,0,0,1.36.37,2.66,2.66,0,0,0,2.33-1.33l.31-.52,2.06-3.51,2.19-3.72,9.33-15.85,1.06-1.8a2.68,2.68,0,0,0,.38-1.44l3.49-.75,5.84,4q3.56,2.48,7.09,5l2.65,1.91,1,.75a2.59,2.59,0,0,0-1.47,1.19l-.85,1.44-11,18.78a2.7,2.7,0,0,0,4.66,2.74L727,1809.68a2.76,2.76,0,0,0,.38-1.28C741.88,1819.24,754.68,1830.4,760.79,1839.54Zm37.93-84c-.91.74-1.84,1.5-2.77,2.23a340,340,0,0,1-65,40.37c-1.7.82-3.4,1.62-5.12,2.41l-3.34-2.46c-2.88-2.06-5.79-4.09-8.68-6.08-.49-2.9-2.62-15.49-6-34.29-.13-.73-.26-1.48-.4-2.23s-.26-1.48-.39-2.24c-3.92-21.81-9.31-50.89-15.62-82.55q-.45-2.22-.9-4.47c-11.17-55.65-25.06-118.47-38.78-163.54,3.21-5.35,6.73-11.26,10.46-17.6,12.31-21,26.92-46.64,40.61-72.86,14.59-27.93,28.15-56.45,36.79-80.46,33.2-3.43,62.52-.15,91.57,23,17.83,14.18,32.72,33.84,44,57.51,12.52,26.26,20.59,57.44,23.3,91.52q1,12.18,1,24.42c.26,48.72-10.12,97.26-29.59,138.06q-1.07,2.25-2.19,4.47c-1.94,3.91-4,7.74-6.11,11.49-15,26.48-35.34,50.34-60.13,71.06C800.53,1754,799.63,1754.75,798.72,1755.49Zm699.61-3.17v.88H809.78c23.1-20.15,42.18-43.09,56.52-68.39q3.91-6.9,7.44-14.16h624.59Zm0-137.9v51.81H875.87c19.1-41,29.28-89.47,29-138.06h297.31c14.82,0,23.7-12.8,19.85-28.55l-14.47-59.16c-3.82-15.61-18.83-28.23-33.53-28.23H881.13c-11.75-25.46-27.53-46.59-46.58-61.74-29.85-23.74-59.57-27.53-93-24.37,7.44-22.07,10.18-39.71,4.91-48.56-23.61-39.67-49.47-39.52-118.87-23.91-35.11,7.89-95.92,30.56-147.74,51.36a36.48,36.48,0,0,0,4.9-13.43v-.26a36.47,36.47,0,0,0,.36-7.53,2.7,2.7,0,0,0-2.83-2.56,2.82,2.82,0,0,0-.57.09l-.43.11,58.42-91.1-19-13.85s-47.87,72.89-69.25,106.06a42.49,42.49,0,0,1-4.73-1.19c-15.94-5-34-1-42.87,5.88-10.77-7-21-14.4-30.68-22.09-8.62-29.48-22.51-50.74-37.21-66l-13.86-58.47A105.65,105.65,0,0,0,337,1135c-1.07-4.63-2.62-14.15-5.18-22.8l-.93-3,.95-2.38,6.4-2.79.13-.06.21-.11a1.94,1.94,0,0,0,.67-2.64,181.73,181.73,0,0,1-10.5-20.63,120.2,120.2,0,0,1-4.74-13c4.1-1.66,9.35-1.68,14-2.11s8.6-1.26,10.15-4.57c4.07-8.69-10.55-30.39-27.95-32.65-9.29-1.2-15.65,3.62-22.82,7.71L143.66,387.41c-2.46-10.37.44-21.78,8-31.3,8.45-10.68,21.16-17.06,34-17.06H900l39,164.59a7.26,7.26,0,0,0,7.36,5.5l116.16-79.39,123.33,79.39c6.18,0,11.39-6,10.05-11.64L1158.32,339.1h78.91c15.08,0,26.92,8.8,30.15,22.44l8.81,37.18.59,2.45.57,2.42,17.28,72.89.54,2.26,3,12.56,224.13,945.36a149.59,149.59,0,0,0-51.1-27.16l-40.59-12.29c-9.85-3-16.46,10-8.32,16.37l25,19.4a114.07,114.07,0,0,1,43.87,87.71,114.64,114.64,0,0,0,16.68,57.22l20.89,34.27h-28.12A2.24,2.24,0,0,0,1498.37,1614.42ZM335.86,1102.74l.46-.15-.2.56Zm.81-2.29.46-.1-.19.54Zm1387.16,516.16v135.76a73.29,73.29,0,0,1-73.2,73.21H1576a73.33,73.33,0,0,1-73-67.86c0-.74-.09-1.48-.12-2.23s-.06-1.49-.06-2.24V1616.61Zm-23.75-101.45h0a2.23,2.23,0,0,1-2.2,1.86h-.37a2.25,2.25,0,0,1-1.84-2.58c16.22-95.87,10.6-243.46,10.55-244.94a2.23,2.23,0,0,1,4.46-.18C1710.74,1270.78,1716.38,1418.83,1700.08,1515.16Z" transform="translate(0 0)" style="fill:#2563eb"/><path d="M1522.66,1654.27H1704a2.24,2.24,0,0,0,.3-4.47H1522.66a2.24,2.24,0,0,0,0,4.47Z" transform="translate(0 0)" style="fill:#2563eb"/><path d="M1778.49,862.76c8.87,70.46,7.26,180.82-50.78,306.42a2.24,2.24,0,1,0,4,2.09,2,2,0,0,0,.1-.21c58.48-126.57,60.1-237.82,51.16-308.86-9.7-77-33.6-124.84-33.84-125.31a2.24,2.24,0,0,0-4,2C1745.37,739.38,1768.92,786.48,1778.49,862.76Z" transform="translate(0 0)" style="fill:#2563eb"/><path d="M1733.08,897.12a2.25,2.25,0,0,0-1.3,2.89c.26.67,25.07,69.66-32.74,224.63a2.24,2.24,0,0,0,1.31,2.87,2.35,2.35,0,0,0,.79.14,2.24,2.24,0,0,0,2.09-1.45C1761.62,969.66,1737,901.26,1736,898.42A2.25,2.25,0,0,0,1733.08,897.12Z" transform="translate(0 0)" style="fill:#2563eb"/><path d="M1720,841.72h.08l15.22-.27a2.24,2.24,0,0,0,2.2-2.28h0a2.19,2.19,0,0,0-2.21-2.19h-.07l-15.22.27a2.24,2.24,0,0,0,0,4.47Z" transform="translate(0 0)" style="fill:#2563eb"/><path d="M1666.71,842.66h.08l15.22-.27a2.23,2.23,0,0,0,2.2-2.26h0a2.2,2.2,0,0,0-2.22-2.2h-.06l-15.22.27a2.24,2.24,0,0,0,0,4.47Z" transform="translate(0 0)" style="fill:#2563eb"/><path d="M1701,823.31a2.25,2.25,0,0,0,2.23-2.24l0-15a2.23,2.23,0,1,0-4.46,0l0,15A2.23,2.23,0,0,0,1701,823.31Z" transform="translate(0 0)" style="fill:#2563eb"/><path d="M1701.09,856.33a2.24,2.24,0,0,0-2.23,2.25v15a2.23,2.23,0,0,0,2.23,2.23h0a2.21,2.21,0,0,0,2.23-2.21v-15A2.26,2.26,0,0,0,1701.09,856.33Z" transform="translate(0 0)" style="fill:#2563eb"/><path d="M415.56,158.47l0,0a2.24,2.24,0,0,0,1.75.83,2.28,2.28,0,0,0,1.4-.48c52.73-42.17,157.82-116,269.1-137a2.24,2.24,0,1,0-.69-4.43l-.14,0C574.77,38.57,469,112.89,415.93,155.31A2.25,2.25,0,0,0,415.56,158.47Z" transform="translate(0 0)" style="fill:#2563eb"/><path d="M327.37,193.91a2.23,2.23,0,0,0,1.58-.65C425,97.54,513.75,62.31,514.64,62A2.23,2.23,0,1,0,513,57.8c-.9.35-90.45,35.86-187.23,132.29a2.24,2.24,0,0,0,1.58,3.82Z" transform="translate(0 0)" style="fill:#2563eb"/><path d="M738.19,38.69a19.67,19.67,0,1,0-14-24v0A19.68,19.68,0,0,0,738.19,38.69Zm-9.7-22.89a15.2,15.2,0,1,1,10.84,18.56h0A15.22,15.22,0,0,1,728.49,15.8Z" transform="translate(0 0)" style="fill:#2563eb"/><path d="M1489.45,249.48l14,5.93a2.24,2.24,0,0,0,1.74-4.12l-14-5.92a2.23,2.23,0,1,0-1.74,4.11Z" transform="translate(0 0)" style="fill:#2563eb"/><path d="M1440.16,228.64l.24.1,14,5.93a2.15,2.15,0,0,0,.87.18,2.24,2.24,0,0,0,.87-4.3l-14-5.93a2.24,2.24,0,1,0-2,4Z" transform="translate(0 0)" style="fill:#2563eb"/><path d="M1479.44,224.9h0a2.22,2.22,0,0,0,2.94-1.14l6-13.73a2.23,2.23,0,1,0-4.09-1.8l-6,13.73A2.23,2.23,0,0,0,1479.44,224.9Z" transform="translate(0 0)" style="fill:#2563eb"/><path d="M1458.3,273a2.14,2.14,0,0,0,.9.19,2.25,2.25,0,0,0,2-1.33l6-13.73a2.23,2.23,0,0,0-4.09-1.8l-6,13.72A2.25,2.25,0,0,0,1458.3,273Z" transform="translate(0 0)" style="fill:#2563eb"/><path d="M28.89,949.82a16.9,16.9,0,1,0,20.74-12.11v0A17,17,0,0,0,28.89,949.82Zm28.52,7.46A12.5,12.5,0,1,1,48.5,942,12.5,12.5,0,0,1,57.41,957.28Z" transform="translate(0 0)" style="fill:#2563eb"/><path d="M645.17,1830.91c-1.83-.62-3.44-1.19-4.82-1.67-3.53-1.25-5.52-2-5.64-2a2.68,2.68,0,0,0-3.47,1.55v0a2.64,2.64,0,0,0,.26,2.41,2.58,2.58,0,0,0,1.3,1.07c.07,0,.92.35,2.45.9,1.2.44,2.81,1,4.8,1.71,19.69,6.89,75.9,25.23,125,28.51h.18a2.7,2.7,0,0,0,.18-5.39c-42.9-2.86-91.41-17.41-115.48-25.45C648.21,1831.93,646.63,1831.4,645.17,1830.91Z" transform="translate(0 0)" style="fill:#2563eb"/><path d="M270.25,1545.55a2.72,2.72,0,0,0-3-2.33c-2.8.37-68.81,9.62-89.28,59.09a2.7,2.7,0,0,0,5,2.06c19.27-46.56,84.35-55.71,85-55.79A2.7,2.7,0,0,0,270.25,1545.55Z" transform="translate(0 0)" style="fill:#2563eb"/><path d="M293.17,1554.23v0a30.89,30.89,0,0,0-2.13,2.57,108,108,0,0,0-21.2,76.9,2.7,2.7,0,0,0,2.68,2.42h.29a2.69,2.69,0,0,0,2.41-3v0a104.46,104.46,0,0,1,17.49-69.37,62.73,62.73,0,0,1,4.47-5.91,2.7,2.7,0,1,0-4-3.63Z" transform="translate(0 0)" style="fill:#2563eb"/><circle cx="866.48" cy="1115.15" r="43.22" transform="translate(-323.28 1875.96) rotate(-84.75)" style="fill:#2563eb"/><path d="M854.25,1018.87a36.83,36.83,0,0,0,28.73-41L853.3,766.71a36.84,36.84,0,0,0-41.6-31.34l-1.26.2-14.64,2.59a36.81,36.81,0,0,0-29.88,42.64h0a9.07,9.07,0,0,0,.2,1.27l44.37,208.54A36.83,36.83,0,0,0,854.25,1018.87Z" transform="translate(0 0)" style="fill:#2563eb"/></svg>