<svg xmlns="http://www.w3.org/2000/svg" viewBox="0 0 2008.48 1883.79">
    <g id="Illustration">
        <path
            d="M2196.08,638l-40.69,0H2155a48.24,48.24,0,0,0-17.74-3.39l-188.61-.17a2.21,2.21,0,0,0-1.59,3.74h0a2.16,2.16,0,0,0,1.58.68l188.6.17a44,44,0,0,1,43.61,49.73L2085,1433.53a2.19,2.19,0,0,0,1.07,2.18L2058.85,1645c-11.25-20.65-32.46-29.6-45.13-25.24a23.89,23.89,0,0,0-4.1,1.88l22.8-170.33A285.87,285.87,0,0,0,2045,1425.2c47.63-112.18,38.84-158.8,13.72-170.7l70.14-524c1.71-12.91-2.6-26.36-11.83-36.89-9-10.29-21.5-16.19-34.25-16.19H1912.5L1782.92,445.85a48.72,48.72,0,0,0-85,0L1568.32,677.46H616.26c-14.79,0-25.47,14-27.26,27.45L549.68,998.69l-.13,1L464.92,1632a27.15,27.15,0,0,0,1.2,12.25h0a27.53,27.53,0,0,0,5.4,9.38,28.85,28.85,0,0,0,21.71,9.76l200,.06c-2.49,12.24-5,26.83-7.28,44.51-.29,2.29-.58,4.62-.86,7-4.6,38.74-7.93,91.49-7.39,165.11.3,41.38,2,122.9,9.69,204a1.61,1.61,0,0,0,1,1.35,33.17,33.17,0,0,0,4.91,1.3l.41,23.46-.79-1.13a1.61,1.61,0,0,0-1.21-.68,1.64,1.64,0,0,0-1.29.53c-13.42,15.18-21.75,48.38-24.55,65.6a13.47,13.47,0,0,0,2.65,10.42,13.06,13.06,0,0,0,9.28,5.06c9.49.84,17.62,1.14,24.44,1.14a176.22,176.22,0,0,0,18.67-.9c2.27-.24,4.7-1.68,7-4.17a23.73,23.73,0,0,0,5.64-21.08l-2.41-11.66a49.63,49.63,0,0,1-1-10.74l.51-33.71a1.6,1.6,0,0,0-2.79-1.08l-4.69,5.26,3.61-25.36c5.35-.31,9.11-.68,9.56-.73a1.59,1.59,0,0,0,1.43-1.52c2.7-72.44,68.45-328.38,77.82-364.54,28.09,63.57,81.4,373.26,82,376.46a1.59,1.59,0,0,0,1.49,1.32l7.42.37,3.12,28.4-2.56-.91a1.59,1.59,0,0,0-1.85.6c-8.55,12.46-8.59,37.85-7.85,51.88a11.74,11.74,0,0,0,11.38,11.16c37.22,1.27,64.78,1.64,84.27,1.64,13.46,0,23.08-.17,29.38-.36a11.82,11.82,0,0,0,9.18-4.86,11,11,0,0,0,1.69-9.66c-5.66-19-41-35.59-60-44.5-2.49-1.17-4.67-2.19-6.42-3.05a33.4,33.4,0,0,0-16.67-3.43l-3.51.2L946,2098l5.52-.55a1.6,1.6,0,0,0,1.43-1.51c5.48-117.74-6.29-268.82-18-380.79q-.35-3.3-.69-6.55c-1.68-15.91-3.36-31-5-45l225.95.07h40.24l338.85.1h93.91c-8.47,11.77-14.45,28.9-16.24,46.26l-33.78-.08-39.47-.08h-4.42v140.87c0,30.61-20.11,58.85-51.22,72l-129.4,54.48a106.1,106.1,0,0,1-40.87,8.17H992c-3.33,0-5.24-2-5.66-4.06a4.23,4.23,0,0,1,.54-3.1,5.29,5.29,0,0,1,2.56-2.08l116.78-49.84c32.49-13.87,53.48-43.64,53.48-75.84V1715.86l35.82-.07,189.91-.34a2.13,2.13,0,0,0,.94-.22h0a2.21,2.21,0,0,0-1-4.2l-189.9.35-35.82.06h-4.42l-154.14.28a2.21,2.21,0,0,0-2.21,2.21,2.08,2.08,0,0,0,.36,1.18,2.17,2.17,0,0,0,1.85,1h0l154.13-.28V1850.4c0,30.43-19.94,58.6-50.79,71.77L987.73,1972a9.09,9.09,0,0,0-5.81,7.38c-1.1.2-1.73.2-1.83,0l-.26,33.82c0,6.29,5.52,11.88,12.58,11.88h319.66a110,110,0,0,0,42.27-8.81l173.13-72.9c31.17-13.12,50.82-41.3,50.82-72.05v-156h33.37c-.86,15.93,2,31.64,9.77,43.15,21.09,31.12,127.07,60.13,121.8,105.49-1.66,14.32,5,26.81,14.83,37.18h-26.69a2.25,2.25,0,0,0-2.26,2.25v105.46a94.3,94.3,0,0,0,94.2,94.19h71.18a94.3,94.3,0,0,0,94.2-94.19V1903.37a2.25,2.25,0,0,0-2.26-2.25h-41.72c54.62-36.46,40-67,49.23-93.09,9.49-26.9,50.62-68,50.62-68a161.43,161.43,0,0,0,14.84-29l19.42,0c14.17,0,25.81-11,27.61-24.94L2235.54,685.29C2238.68,660.94,2220.79,638,2196.08,638ZM1958.35,1710.72s0,0,0,0l-.77,1.46a7.41,7.41,0,0,1-3.15,3.17h0a7.6,7.6,0,0,1-6.93,0,7.32,7.32,0,0,1-3.76-4.67,2.85,2.85,0,0,1-.11-.39c-3.55-15.81-5.94-31.67-2.71-46.49h26.76l11.32-.42h.32C1970.86,1681.22,1963.91,1700,1958.35,1710.72Zm51.41-189.88c-1.51-25.28,8-45.49,15.16-56.8q.87-1.38,1.71-2.76l-21.93,163.81c-8.68,7.3-16.4,20-23.2,33.79a25.25,25.25,0,0,1-2.62.14l-11.32.42H1942c3-9.92,8.74-19.31,18.71-27.83C2004.23,1594.42,2012.13,1560.4,2009.76,1520.84Zm-123.64-19.26c1.05,18.47,17.4,45.89-19,81.76-23.87,23.53-32.53,49.33-31.79,76.06l-134.47,0c-21.64-10.8-46-15.4-59.41-8a36.83,36.83,0,0,0-9.63,8H1534.4l-338.85-.1h-40.24l-226.46-.07c-1.34-11.61-2.64-22.44-3.87-32.38,12.15,1.43,24.08-3.63,23.79-20.72l-2.16-33.19h43a12.1,12.1,0,0,0,11.76-9.2l8.43-34,.86,0a20.54,20.54,0,0,0,14.08-5.37c7.67-6.91,11.51-20,11.82-32a35.37,35.37,0,0,0,5.67-35.5c-2.69-6.86-5.61-14.4-8.8-22.38h0l6.45-26a12.12,12.12,0,0,0-11.76-15h-12.47c-15.18-31.67-35.06-64.12-62.17-86.2-10-8.15-30-15.09-42.81-16.54-8.4-.95-19.37-2.1-31.81-3.19a13.35,13.35,0,0,1-5.25-9.09l-.52-7.29a95.31,95.31,0,0,0,11.82.42,8.09,8.09,0,0,0,7.76-6.77c.81-4.9,1.79-11.1,2.24-17.09.25-3.34.38-6.41.43-9.25a1.53,1.53,0,0,0,1-.51l3.35-3.72,2.8.11a5.33,5.33,0,0,0,2.81-.58,5.4,5.4,0,0,0,2.86-5.7,177.28,177.28,0,0,1-2.38-25.5c8.45.84,18,6.82,22.89,2.06,6.95-6.83,9.55-31.5-6.1-39.78-11.43-6-2.22,12.79-39.82-19.75-15-13-15.5,11.23-19.4,7.88-14.37-12.37-13.87-12-22.94-13.54-6-1-14,7.24-16.43,15.08-3.15,10.36,3.73,16.55,1.38,40.39-1.65,16.75-6.91,25-2.09,29.73a7.36,7.36,0,0,0,5,2l-6.91,47.39a13.5,13.5,0,0,1-7.43,9.8,432.33,432.33,0,0,0-46.28,1.27c-13.77,1.26-33.64,9.67-44.11,18.7-30.83,26.61-89,85.22-98.73,155.54a19.85,19.85,0,0,0,6.55,17.62c-2.57,8.43-1.19,20,6,39.67,3.45,9.45,9,14.69,16.46,15.57a18.62,18.62,0,0,0,2.25.13c9.25,0,20.48-6.27,32.26-15.88-6.22,26.12-15.21,66.33-14.07,76,.87,7.33,12.5,17.23,30.9,22.7-2.75,9.6-5.32,19.27-7.67,28.94-1.12,4.59-2.28,9.61-3.45,15.13L493.23,1659a24.43,24.43,0,0,1-18.39-8.25,22.68,22.68,0,0,1-5.54-18.15L593.38,705.49c1.51-11.36,10.68-23.61,22.88-23.61h949.59l-64.17,114.7a48.71,48.71,0,0,0,42.51,72.5h392.44a48.71,48.71,0,0,0,42.51-72.5L1915,681.88h167.85c11.48,0,22.76,5.35,30.93,14.68,8.39,9.58,12.32,21.75,10.77,33.39l-70,522.91c-30.6-9.41-79.69,24.31-87.47,55.15-10.67,42.33,5.54,68-31.37,97.58C1888.86,1443.06,1885.06,1483.12,1886.12,1501.58ZM931.81,1715.1c11.64,111.46,23.38,261.8,18.06,379.27l-3.9.39-1.59.16-1.59.15-6.2.62a155.87,155.87,0,0,1-23.47.58l-3.76-.19-1.61-.08-1.62-.08-5.63-.28c-4.35-25.27-56.41-325.51-83.64-379.54l.28-1,1.86-6.77,2.9-10.54a19.42,19.42,0,0,1,14.87-13.94l7.31-1.51a1.59,1.59,0,1,0-.65-3.12l-7.31,1.51a22.61,22.61,0,0,0-17.29,16.22l-3.13,11.38-1.86,6.77L811,1725.35a1.59,1.59,0,0,0,0,.78h0c-13.37,51.9-73,286.54-76.31,357.86-1.5.13-4.12.34-7.41.54l-1.62.09-1.62.09c-8.29.4-19.27.57-27.57-.62l-1.6-.25-1.61-.31q-1.51-.32-2.82-.72c-7.63-80.65-9.28-161.55-9.58-202.7-.55-73.73,2.79-126.45,7.4-165.09q.43-3.58.87-7c2.28-17.72,4.82-32.31,7.33-44.52.15-.75.3-1.48.46-2.21s.31-1.48.46-2.21c1.12-5.23,2.23-10,3.29-14.38q3.51-14.46,7.64-28.83c17.91,4.65,41.57,5.07,67.69-4.51,42.72-15.66,102.92-28.16,141.89-15.34,2.15,16.57,4.84,38,7.75,63.12.09.73.17,1.47.25,2.21s.18,1.47.26,2.21c1.62,14,3.29,29.07,5,45Q931.47,1711.81,931.81,1715.1Zm33.62,417.23c1.77.86,4,1.9,6.48,3.08,17.21,8.07,53,24.87,58.28,42.52a7.83,7.83,0,0,1-1.22,6.89,8.61,8.61,0,0,1-6.68,3.54c-15.41.44-50.64.86-113.45-1.29a8.56,8.56,0,0,1-8.31-8.14c-.69-13.24-.72-36.84,6.64-48.89l2.83,1,1.67.59,1.67.6,18.85,6.71a1.59,1.59,0,0,0,2.12-1.5v-5.6a1.69,1.69,0,0,1,1.43-1.79l7.81-.45,1.58-.09,1.6-.09,3.62-.21A30.33,30.33,0,0,1,965.43,2132.33Zm-237.35,21.72,2.41,11.65a20.58,20.58,0,0,1-4.85,18.26,13.71,13.71,0,0,1-2.64,2.25,5.78,5.78,0,0,1-2.41.94c-8.16.87-22.14,1.54-42.49-.25a9.94,9.94,0,0,1-7.05-3.85,10.26,10.26,0,0,1-2-7.94c2.66-16.31,10.31-47.17,22.5-62.45l2.3,3.29,1.63,2.33h0l1.29,1.82a1.71,1.71,0,0,0,.35.36,1.59,1.59,0,0,0,2.43-.68l3.58-8.87c2.5-.64,11.95-.84,14.33-.12l.91,8.56a1.54,1.54,0,0,0,.6,1.09,1.64,1.64,0,0,0,.49.26,1.57,1.57,0,0,0,1.09,0,1.7,1.7,0,0,0,.59-.41l1.28-1.43,5-5.65-.44,29.44A52.85,52.85,0,0,0,728.08,2154.05Zm122.81-965.64c8.42-2.37,9.54,16.41,9.54,16.41C844.22,1211.42,842.47,1190.78,850.89,1188.41ZM634.13,1478.85c2-7.9,7.9-12.89,16.21-20l1.57-1.34c13.77-11.77,69.51-43.93,92.83-57.21a87.45,87.45,0,0,0,19.19-14.81l4.87-5a17.67,17.67,0,0,1,12.64-5.33,17.21,17.21,0,0,1,3.11.28l45.74,8.52a4.65,4.65,0,0,1,4.24,4.07,4.84,4.84,0,0,1-2.66,5.14c-5.28,2.29-18,.62-22.51-.22a1.6,1.6,0,0,0-1.84,1.17c-6.67,26-35.81,21.13-37,20.9a1.6,1.6,0,0,0-1.61.69c-.58.87-42.64,63.84-79.25,95.51-12.34,10.67-24,17.79-33.35,17.78a18.66,18.66,0,0,1-2-.11c-6.27-.75-10.8-5.16-13.85-13.51C633.78,1497.23,632.11,1486.63,634.13,1478.85ZM866.41,1225c0-6.67.8-18.72,1.31-25.31a83,83,0,0,0,.1-11.26l-.41-6.63a40.34,40.34,0,0,1,36.31,4.41,91.24,91.24,0,0,0-1.1,16.16,177,177,0,0,0,2.44,26.07,2.24,2.24,0,0,1-1.2,2.35,2.39,2.39,0,0,1-1.19.22l-3.56-.15a1.55,1.55,0,0,0-1.25.53l-2.5,2.75v0l-.83.93C883.35,1234.32,866.44,1231,866.41,1225Zm-24.55,3.26c7.41,6.28-1.05,20.24,4.42,30.14,2.62,4.74,9.8,10.13,23.57,12.18l.58,8a16.69,16.69,0,0,0,12.42,14.2l13.53,3.52-8.23,6.27a65.82,65.82,0,0,1-79.42.07l-14.41-10.93,17.39-3.88a16.75,16.75,0,0,0,12.86-13.45l7-48C835.09,1226.17,838.79,1225.69,841.86,1228.29Zm161.83,297.13-1.22-.36a116.5,116.5,0,0,1-23.16-9.45,23.36,23.36,0,0,1-7.85-9.23A30.08,30.08,0,0,1,968,1490c.2-3.79,1-6.2,3.24-11a5.87,5.87,0,0,1,5.19-3.61c1.61,0,5.45,2.17,6.88,3l4.44,2.7c6.77,4.11,7.25,3.35,14.77,5.85l13.45,4.49a1.63,1.63,0,0,0,1.28-.12,1.54,1.54,0,0,0,.5-.45h0a1.62,1.62,0,0,0,.27-.56l3.32-13.91.09-.38v0l.38-1.54v0a3.46,3.46,0,0,1,2.2-2.24l.06,0a3.48,3.48,0,0,1,3.37.6,14.41,14.41,0,0,1,5.16,9,54,54,0,0,1,.56,14c-.85,10.15-4.29,20.46-10.59,26.12a17.25,17.25,0,0,1-12,4.56c-.53,0-1.07,0-1.62-.08s-1.06-.1-1.6-.18A27.24,27.24,0,0,1,1003.69,1525.42Zm17.58-55.33a6.8,6.8,0,0,0-2.6,3.82v0l-3.34,14-11.81-3.93a103.13,103.13,0,0,1-20.89-9.67l-2.42-1.47-.05,0a8.46,8.46,0,0,0-5-1.16l-.25,0a5.09,5.09,0,0,0-1.87.56c-1.37.71-2.85,2.2-5.09,5.26s-3.31,9.82-3.29,13.41a43.34,43.34,0,0,0,3.29,15.91c.15.37.31.73.48,1.09a21.42,21.42,0,0,0,2,3.3c.25.35.5.69.74,1a25,25,0,0,0,3,3.27c1.35,1.16,2.57,2.14,3.74,3,4.23,3,7.94,4.47,15.29,6.88l.07,0q4.51,1.65,9.54,3.12a24.13,24.13,0,0,0,3.78.86l-8.32,33.55a8.91,8.91,0,0,1-8.66,6.78H878.28a8.93,8.93,0,0,1-8.66-11.08l1.45-5.84.38-1.55.39-1.56,36.29-146.34a8.91,8.91,0,0,1,8.67-6.78h111.31a8.93,8.93,0,0,1,8.66,11.08l-5.39,21.73Zm551.19-792.63,128.59-229.85a45.1,45.1,0,0,1,78.72,0l128.59,229.85,1.24,2.21,1.24,2.21L1976,798.34a45.1,45.1,0,0,1-39.36,67.13H1544.19a45.1,45.1,0,0,1-39.36-67.13L1570,681.88l1.24-2.21Zm263.09,986.36a155.05,155.05,0,0,0,7.86,38.2,77.42,77.42,0,0,1,2.29,8.5l-99.3-.21q-1.64-4.79-3.17-9.88c-4.14-13.72-17.8-26.9-34.24-36.64Zm-18.5,129.45a.27.27,0,0,0-.07.08,5.38,5.38,0,0,1-9.25-1.52c-6.37-17.55-19.81-25.08-29.17-29.16-10.23-4.44-21.2-22-30.4-47.33l98.4,0C1851.6,1750.65,1829.72,1778.24,1817.05,1793.27Zm167.12,215.56a89.78,89.78,0,0,1-89.68,89.68h-71.18a89.79,89.79,0,0,1-89.69-89.68v-103.2h68c.08.43.15.86.23,1.29a2.25,2.25,0,0,0,2.22,1.87l.39,0a2.26,2.26,0,0,0,1.83-2.61l-.09-.52h178ZM1770.89,1823h0l-.23-.08c-37.76-15.66-77.85-49.14-78.25-49.47a2.26,2.26,0,1,1,2.9-3.46c.38.31,36.28,30.29,71.75,46.44-26.46-44.2-61.56-78.86-87.79-101.11-2.14-1.81-4.21-3.54-6.21-5.17a354.93,354.93,0,0,0-30.83-23,2.26,2.26,0,0,1,2.41-3.82c.45.28,15.09,9.67,35.49,26.78q2.94,2.47,6,5.16h0c5.44,4.73,11.18,9.93,17.12,15.61a71.31,71.31,0,0,0-.56-15.6q-.39-2.62-.94-5.12a82,82,0,0,0-16-33.65,2.26,2.26,0,0,1,3.38-3,84.65,84.65,0,0,1,17.32,36.65c.34,1.66.62,3.36.85,5.11a76.71,76.71,0,0,1,.13,19.61c38.89,38.1,84,95.51,97.88,166.18h-4.59C1795.06,1872.78,1784.27,1846.62,1770.89,1823Zm92.68,78.11c-1-64.42,5.38-127.28,15.72-185.74.28-1.6.56-3.19.86-4.78q4.32-23.91,9.46-46.76c.15-.74.32-1.47.49-2.21s.33-1.47.5-2.21a1302.91,1302.91,0,0,1,37.88-132.94,1.59,1.59,0,0,1-.15-.29c-13.59-32.48-4.74-73.74-4.36-75.48a2.26,2.26,0,1,1,4.41,1c-.09.39-8.09,37.75,2.38,68.2q4.5-13,9-24.94c39.16-105.73,79.46-174.73,79.87-175.41a2.25,2.25,0,1,1,3.88,2.28c-.4.68-40.54,69.41-79.55,174.79a1314.51,1314.51,0,0,0-48.69,162.82c-.17.73-.33,1.47-.5,2.21s-.33,1.47-.5,2.21q-4.63,20.67-8.66,42.26c11.82-14.16,20.91-30.93,26.35-42.26.37-.76.71-1.5,1-2.21s.69-1.51,1-2.21c2.38-5.21,3.66-8.51,3.7-8.62a2.26,2.26,0,0,1,4.21,1.62c-.15.38-1.15,3-2.94,7l-1,2.21c-.32.7-.67,1.44-1,2.21-5.58,11.91-15.65,31-29.31,46.76-1.17,1.38-2.4,2.74-3.65,4.06,0,.23-.08.47-.12.71q-3,16.75-5.49,34c14.47-10.09,24.22-23.7,30.08-34q1.44-2.52,2.56-4.73a89.75,89.75,0,0,0,4.51-10,2.25,2.25,0,0,1,4.26,1.48,86.58,86.58,0,0,1-3.67,8.57c-.7,1.44-1.51,3-2.42,4.72-6.19,11.43-17.43,27.84-35.23,39.36a2.06,2.06,0,0,1-.91.34,951.24,951.24,0,0,0-9.47,146Zm110.5-114.36a2.26,2.26,0,1,1,3.68,2.61c-1.45,2-35.54,49.91-58.45,58.41a418.33,418.33,0,0,0-17.93,50.7,2.25,2.25,0,0,1-2.17,1.66,2.47,2.47,0,0,1-.6-.08,2.26,2.26,0,0,1-1.57-2.78c20.32-73.59,69.89-151.7,90.25-181.87q1.7-2.52,3.11-4.58c3.58-5.22,5.71-8.16,5.83-8.33a2.26,2.26,0,0,1,3.65,2.66c-.1.14-1.54,2.12-4,5.69l-3.15,4.56c-14.17,20.83-46.6,70.83-70.75,126.15C1943.55,1829.64,1973.74,1787.22,1974.07,1786.76Z"
            transform="translate(-245.76 -308.1)" style="fill:#fff" />
        <path
            d="M639,1712.38l-202.45.37a26,26,0,0,1-25.74-29.36L543.45,661.72A26.06,26.06,0,0,1,569.21,639l979.67-4.59a2.2,2.2,0,0,0,1.92-1.13,2.27,2.27,0,0,0,.28-1.09,2.15,2.15,0,0,0-2.22-2.19l-701.6,3.28H568.06a23.29,23.29,0,0,0-15.67,6.41l0,0a30.47,30.47,0,0,0-13.28,21.41L406.41,1682.83a30.42,30.42,0,0,0,30.12,34.34L639,1716.8a2.18,2.18,0,0,0,2.15-1.78,1.54,1.54,0,0,0,.05-.43,2.22,2.22,0,0,0-2.21-2.21Z"
            transform="translate(-245.76 -308.1)" style="fill:#fff" />
        <path
            d="M1599.28,722a1.75,1.75,0,0,0,.88.23,1.79,1.79,0,0,0,1.57-.92l22.06-39.44,1.24-2.21,1.24-2.21,102.54-183.29a13.29,13.29,0,0,1,23.2,0l13.61,24.32a1.8,1.8,0,1,0,3.14-1.76l-13.6-24.32a16.89,16.89,0,0,0-29.49,0L1622.14,677.46l-1.23,2.21-1.24,2.21-21.08,37.68A1.79,1.79,0,0,0,1599.28,722Z"
            transform="translate(-245.76 -308.1)" style="fill:#fff" />
        <path
            d="M1813.39,603.88a1.8,1.8,0,0,0,1.57.93,1.86,1.86,0,0,0,.88-.23,1.82,1.82,0,0,0,.7-2.46L1790,554.64a1.8,1.8,0,1,0-3.14,1.76Z"
            transform="translate(-245.76 -308.1)" style="fill:#fff" />
        <path
            d="M1824.54,822.06h86.23a16.9,16.9,0,0,0,14.74-25.15,1.8,1.8,0,1,0-3.14,1.76,13.3,13.3,0,0,1-11.6,19.78h-86.23a1.81,1.81,0,0,0,0,3.61Z"
            transform="translate(-245.76 -308.1)" style="fill:#fff" />
        <path
            d="M1555.48,813.71a16.73,16.73,0,0,0,14.57,8.35H1788.4a1.81,1.81,0,0,0,0-3.61H1570.05a13.29,13.29,0,0,1-11.59-19.78l22.84-40.82a1.81,1.81,0,0,0-3.15-1.77l-22.84,40.83A16.76,16.76,0,0,0,1555.48,813.71Z"
            transform="translate(-245.76 -308.1)" style="fill:#fff" />
        <path d="M1740.41,749.08a25.51,25.51,0,1,0,25.51,25.51A25.51,25.51,0,0,0,1740.41,749.08Z"
            transform="translate(-245.76 -308.1)" style="fill:#fff" />
        <path
            d="M1744.79,555.52H1736A21.68,21.68,0,0,0,1714.38,578l3.48,99.51.07,2.21.08,2.21.75,21.44a21.67,21.67,0,0,0,43.31,0l.75-21.44.07-2.21.08-2.21,3.47-99.51A21.67,21.67,0,0,0,1744.79,555.52Z"
            transform="translate(-245.76 -308.1)" style="fill:#fff" />
        <path
            d="M1898.74,585.21a2.22,2.22,0,0,0,2-3.18c-4.5-9.17-5.39-16.5-2.67-21.8,1.74-3.39,4.36-4.69,7.4-6.18s6.34-3.14,9.1-6.95c5.26-7.29,3.18-15,1.18-22.52-1.72-6.42-3.35-12.49-.54-18.2,3.32-6.75,10.4-8.12,18.61-9.72s17.41-3.38,22.75-11.67c6-9.37,2.73-19.84-.46-30-3-9.6-5.88-18.67-.87-26.26,4.19-6.34,11.26-7.95,18.75-9.65s15.4-3.5,19.22-10.81c4.92-9.42.82-22.85-12.52-41.06a2.21,2.21,0,1,0-3.56,2.61c12.08,16.49,16.17,28.74,12.16,36.41-2.87,5.5-9.08,6.91-16.28,8.54-7.63,1.74-16.29,3.7-21.46,11.53-6.17,9.34-2.86,19.85.34,30,3,9.57,5.87,18.62,1,26.25-4.31,6.7-11.87,8.17-19.87,9.73-8.58,1.66-17.45,3.39-21.73,12.1-3.55,7.2-1.63,14.37.23,21.29,1.9,7.09,3.54,13.21-.49,18.79-2.12,2.93-4.72,4.21-7.48,5.58-3.26,1.61-7,3.43-9.37,8.13-3.39,6.6-2.51,15.26,2.63,25.75A2.21,2.21,0,0,0,1898.74,585.21Z"
            transform="translate(-245.76 -308.1)" style="fill:#fff" />
        <path
            d="M1923,606.05a2.17,2.17,0,0,0,1.64.74,2.19,2.19,0,0,0,1.47-.57l111.21-100.11a2.21,2.21,0,0,0-3-3.28l-111.2,100.11A2.19,2.19,0,0,0,1923,606.05Z"
            transform="translate(-245.76 -308.1)" style="fill:#fff" />
        <path
            d="M2007,343.12a17.31,17.31,0,0,0,5-.74,17.51,17.51,0,0,0,11.76-21.77,17.5,17.5,0,0,0-33.54,10A17.55,17.55,0,0,0,2007,343.12Zm-11.52-23.73a13,13,0,0,1,7.77-6.31,12.94,12.94,0,0,1,10,1,13.08,13.08,0,1,1-17.73,5.29Z"
            transform="translate(-245.76 -308.1)" style="fill:#fff" />
        <path
            d="M972.28,431.8a726.39,726.39,0,0,0-185.13,95.48,2.21,2.21,0,0,0,1.29,4,2.26,2.26,0,0,0,1.28-.41,721.6,721.6,0,0,1,184-94.9,2.21,2.21,0,0,0-1.44-4.18Z"
            transform="translate(-245.76 -308.1)" style="fill:#fff" />
        <path
            d="M686.06,561.05a2.2,2.2,0,0,0,1.46-.55c92.74-81.56,197.23-138.79,310.58-170.09a2.21,2.21,0,1,0-1.18-4.26c-114,31.49-219.07,89-312.32,171a2.2,2.2,0,0,0,1.46,3.86Z"
            transform="translate(-245.76 -308.1)" style="fill:#fff" />
        <path
            d="M1122.71,373.41a2.22,2.22,0,0,0,3.08-.53l9.88-14a2.2,2.2,0,1,0-3.6-2.54l-9.89,14A2.22,2.22,0,0,0,1122.71,373.41Z"
            transform="translate(-245.76 -308.1)" style="fill:#fff" />
        <path
            d="M1109,388.93l-9.89,14a2.22,2.22,0,0,0,.53,3.08,2.2,2.2,0,0,0,3.08-.53l9.89-14a2.21,2.21,0,0,0-3.61-2.55Z"
            transform="translate(-245.76 -308.1)" style="fill:#fff" />
        <path
            d="M1092.85,366.25l14,9.89a2.22,2.22,0,0,0,3.08-.53,2.22,2.22,0,0,0-.53-3.08l-14-9.89a2.21,2.21,0,0,0-2.54,3.61Z"
            transform="translate(-245.76 -308.1)" style="fill:#fff" />
        <path
            d="M1124.91,386.2a2.22,2.22,0,0,0,.53,3.08l14,9.88a2.21,2.21,0,1,0,2.55-3.6l-14-9.89A2.22,2.22,0,0,0,1124.91,386.2Z"
            transform="translate(-245.76 -308.1)" style="fill:#fff" />
        <path
            d="M1042.1,402.27a18.67,18.67,0,1,0-10-10.17A18.68,18.68,0,0,0,1042.1,402.27Zm-5.9-22.76a14.28,14.28,0,1,1-.06,10.92A14.19,14.19,0,0,1,1036.2,379.51Z"
            transform="translate(-245.76 -308.1)" style="fill:#fff" />
        <path
            d="M1379.57,430.87a5,5,0,0,1,1,5.51c-.28.59-.52,1.19-.79,1.79l17.09.66,13.63,18.49a48.66,48.66,0,0,1,8.43-16c18.23-23,53.64-26.75,79.09-8.4,22.63,16.33,29.75,44.65,18.23,66.89l6.1,4.39,15.89-4.86,12.24,11.1c.71-1.65,1.39-3.31,2-5a5.1,5.1,0,0,1,4.56-3.27l15.88-1.07a5.06,5.06,0,0,0,4.83-4.42l1.28-12.22a5.52,5.52,0,0,0-3.77-5.64L1560,473.37a5.59,5.59,0,0,1-3.75-4.45q-.49-4-1.38-7.91a4.78,4.78,0,0,1,2.09-5.07l12.79-8.45a4.85,4.85,0,0,0,1.7-6.21L1566,429.77a5.93,5.93,0,0,0-6.17-3.25l-15.67,2.27a5.93,5.93,0,0,1-5.51-2.2q-2.54-3.3-5.4-6.42a5,5,0,0,1-1-5.51l6.24-13.54a5.2,5.2,0,0,0-1.88-6.35L1526,387.06a5.82,5.82,0,0,0-6.92,0l-12,9.41a5.68,5.68,0,0,1-5.82.63c-2.62-1.19-5.26-2.26-7.94-3.21a5.6,5.6,0,0,1-3.72-4.47l-2-15a5.74,5.74,0,0,0-5-4.78l-13.09-1.85a5.25,5.25,0,0,0-5.8,3.25l-5,14.05a5.06,5.06,0,0,1-4.53,3.29q-4.21.25-8.37.89a6,6,0,0,1-5.51-2.24l-9.66-12.47a6,6,0,0,0-6.71-1.93l-12,4.51a4.86,4.86,0,0,0-3.13,5.64l3.23,14.86a4.76,4.76,0,0,1-2,5.07c-2.25,1.48-4.44,3.06-6.56,4.76a5.69,5.69,0,0,1-5.82.61l-14.75-6.58a5.6,5.6,0,0,0-6.66,1.43l-7.66,9.67a5,5,0,0,0,.36,6.51Z"
            transform="translate(-245.76 -308.1)" style="fill:#fff" />
        <path
            d="M1347.16,485.13l15.31,5.21a5.63,5.63,0,0,1,3.83,4.39q.59,4,1.54,7.9a4.77,4.77,0,0,1-2,5.1l-12.6,8.69a4.86,4.86,0,0,0-1.58,6.25l5.66,11.42a5.93,5.93,0,0,0,6.23,3.14l15.6-2.55a5.94,5.94,0,0,1,5.55,2.11q2.6,3.24,5.52,6.32a5,5,0,0,1,1.07,5.5l-6,13.66a5.21,5.21,0,0,0,2,6.32l10.84,7.53a5.8,5.8,0,0,0,6.9-.12l11.76-9.64a5.67,5.67,0,0,1,5.8-.73c2.64,1.15,5.3,2.17,8,3.07a5.63,5.63,0,0,1,3.8,4.41l2.28,15a5.77,5.77,0,0,0,5,4.7l13.12,1.62a5.23,5.23,0,0,0,5.72-3.36l4.76-14.15a5.06,5.06,0,0,1,4.46-3.37c2.8-.23,5.58-.57,8.34-1a6,6,0,0,1,5.55,2.13l9.9,12.32a6,6,0,0,0,6.75,1.81l11.87-4.73a4.86,4.86,0,0,0,3-5.7l-3.53-14.82a4.76,4.76,0,0,1,2-5.11c2.22-1.51,4.37-3.14,6.45-4.87a5.64,5.64,0,0,1,5.8-.71l14.87,6.31a5.58,5.58,0,0,0,6.63-1.55l7.45-9.81a5,5,0,0,0-.49-6.51l-10.88-11.57a5,5,0,0,1-1.08-5.49c.35-.78.66-1.56,1-2.34L1531,510.94l-15.78,5.14L1509,511.8a49,49,0,0,1-5,8.09c-17.74,23.33-53,27.73-78.82,9.81-20.26-14.08-28.62-37.74-22.67-58.56l-14-18.26-17.09-.36c-.76,1.84-1.48,3.69-2.1,5.57a5.09,5.09,0,0,1-4.48,3.35L1349,462.8a5,5,0,0,0-4.73,4.5l-1,12.26A5.55,5.55,0,0,0,1347.16,485.13Z"
            transform="translate(-245.76 -308.1)" style="fill:#fff" />
        <path
            d="M575.93,1864.45l-21.5-3a86.36,86.36,0,0,0-4.25-11.89l14.63-16a1.66,1.66,0,0,0,.13-2L553,1814.42a1.63,1.63,0,0,0-2-.58L531,1822a90.3,90.3,0,0,0-9.64-8.15l4.69-21.2a1.63,1.63,0,0,0-.91-1.83L506.25,1782a1.67,1.67,0,0,0-2,.48L491,1799.55a88.15,88.15,0,0,0-12.44-2.2l-6.53-20.7a1.64,1.64,0,0,0-1.71-1.14l-20.77,1.76a1.65,1.65,0,0,0-1.49,1.4l-3,21.51a89.21,89.21,0,0,0-11.89,4.26l-16-14.63a1.63,1.63,0,0,0-2-.13L398,1801.59a1.63,1.63,0,0,0-.57,2l8.16,20.12a90,90,0,0,0-8.13,9.65l-21.2-4.68a1.63,1.63,0,0,0-1.83.9l-8.87,18.88a1.63,1.63,0,0,0,.47,2l17.11,13.31a86.4,86.4,0,0,0-2.21,12.45l-20.69,6.54a1.65,1.65,0,0,0-1.14,1.7l1.75,20.79a1.65,1.65,0,0,0,1.41,1.49l21.49,3a89.35,89.35,0,0,0,4.26,11.9l-14.63,16a1.64,1.64,0,0,0-.13,2l11.9,17.12a1.64,1.64,0,0,0,2,.58l20.1-8.18a89.23,89.23,0,0,0,9.64,8.14l-4.69,21.21a1.63,1.63,0,0,0,.9,1.83l18.87,8.88a1.65,1.65,0,0,0,2-.48l13.31-17.12a86.13,86.13,0,0,0,12.43,2.21l6.54,20.7a1.63,1.63,0,0,0,1.56,1.15h.13l20.78-1.76a1.62,1.62,0,0,0,1.48-1.4l3-21.51A87.38,87.38,0,0,0,505,1966.7l16,14.63a1.61,1.61,0,0,0,2,.14l17.12-11.92a1.63,1.63,0,0,0,.58-2l-8.16-20.12a90.11,90.11,0,0,0,8.13-9.64l21.19,4.68a1.63,1.63,0,0,0,1.83-.9l8.88-18.89a1.64,1.64,0,0,0-.48-2l-17.1-13.31a89.64,89.64,0,0,0,2.21-12.46l20.69-6.54a1.65,1.65,0,0,0,1.14-1.7l-1.76-20.79A1.65,1.65,0,0,0,575.93,1864.45Zm-21.82,29.14a85.17,85.17,0,0,1-2.5,14,1.65,1.65,0,0,0,.58,1.72l16.92,13.17L561.35,1939l-21-4.63a1.64,1.64,0,0,0-1.68.65,86.1,86.1,0,0,1-9.19,10.89,1.65,1.65,0,0,0-.36,1.77l8.08,19.91-15,10.42-15.82-14.48a1.64,1.64,0,0,0-1.78-.29,85.17,85.17,0,0,1-13.42,4.83,1.63,1.63,0,0,0-1.2,1.35l-2.94,21.28-18.18,1.54-6.46-20.48a1.63,1.63,0,0,0-1.41-1.14,85.91,85.91,0,0,1-14-2.49,1.52,1.52,0,0,0-.42-.06,1.63,1.63,0,0,0-1.29.63l-13.17,16.94-16.5-7.76,4.63-21a1.63,1.63,0,0,0-.64-1.69,86.1,86.1,0,0,1-10.89-9.19,1.63,1.63,0,0,0-1.77-.36l-19.89,8.1-10.41-15L391.15,1923a1.62,1.62,0,0,0,.28-1.79,85.81,85.81,0,0,1-4.8-13.42,1.64,1.64,0,0,0-1.36-1.2L364,1903.63l-1.53-18.19,20.46-6.47a1.65,1.65,0,0,0,1.14-1.41,86.15,86.15,0,0,1,2.49-14,1.64,1.64,0,0,0-.57-1.71l-16.92-13.17,7.76-16.51,21,4.63a1.65,1.65,0,0,0,1.69-.65,85.89,85.89,0,0,1,9.18-10.89,1.62,1.62,0,0,0,.36-1.77L401,1803.53l15-10.42,15.81,14.48a1.64,1.64,0,0,0,1.79.28,85.44,85.44,0,0,1,13.41-4.81,1.64,1.64,0,0,0,1.2-1.36l2.95-21.28,18.17-1.54,6.46,20.48a1.65,1.65,0,0,0,1.42,1.14,85.6,85.6,0,0,1,14,2.49,1.63,1.63,0,0,0,1.71-.58L506,1785.48l16.5,7.76-4.64,21a1.65,1.65,0,0,0,.65,1.69,86.71,86.71,0,0,1,10.88,9.19,1.64,1.64,0,0,0,1.77.35l19.89-8.09,10.42,15L547,1848.17a1.65,1.65,0,0,0-.28,1.79,84.75,84.75,0,0,1,4.81,13.42,1.64,1.64,0,0,0,1.36,1.2l21.26,2.94,1.53,18.19-20.47,6.47A1.63,1.63,0,0,0,554.11,1893.59Z"
            transform="translate(-245.76 -308.1)" style="fill:#fff" />
        <path
            d="M504.78,1843.28A55.34,55.34,0,1,0,469,1940.93c1.57,0,3.16-.07,4.75-.2a55.36,55.36,0,0,0,31-97.45Zm-69.26,82.09a52,52,0,1,1,38,12.1A51.77,51.77,0,0,1,435.52,1925.37Z"
            transform="translate(-245.76 -308.1)" style="fill:#fff" />
        <path
            d="M720.2,2174.8c-.16,0-17,3.34-40.6-.8a1.59,1.59,0,1,0-.55,3.14,141.4,141.4,0,0,0,24.3,2.15,95.42,95.42,0,0,0,17.49-1.37,1.59,1.59,0,0,0-.64-3.12Z"
            transform="translate(-245.76 -308.1)" style="fill:#fff" />
        <path d="M689,2153.67h22.09a1.6,1.6,0,0,0,0-3.19H689a1.6,1.6,0,0,0,0,3.19Z"
            transform="translate(-245.76 -308.1)" style="fill:#fff" />
        <path
            d="M910.37,2173.2a1.59,1.59,0,0,0,1.4,1.76,623.63,623.63,0,0,0,71.1,4c19.47,0,31.76-.9,32-.91a1.59,1.59,0,0,0-.24-3.18,604.66,604.66,0,0,1-102.49-3.07A1.6,1.6,0,0,0,910.37,2173.2Z"
            transform="translate(-245.76 -308.1)" style="fill:#fff" />
        <path
            d="M948.59,2138.23l25.23,18.14A1.59,1.59,0,0,0,976,2156a1.61,1.61,0,0,0-.36-2.23l-25.23-18.14a1.59,1.59,0,0,0-1.86,2.59Z"
            transform="translate(-245.76 -308.1)" style="fill:#fff" />
        <path
            d="M760.41,1630.73a1.59,1.59,0,0,0-1.92,1.17c0,.23-4,15.45-19.71,27.19-1,.76-2.06,1.5-3.17,2.21s-2.4,1.5-3.68,2.21a70.39,70.39,0,0,1-22.83,7.73,1.6,1.6,0,0,0,.26,3.17l.26,0a71.41,71.41,0,0,0,28.44-10.88c1.08-.72,2.11-1.46,3.09-2.21s1.86-1.46,2.72-2.21c14-12,17.66-26.22,17.71-26.44A1.59,1.59,0,0,0,760.41,1630.73Z"
            transform="translate(-245.76 -308.1)" style="fill:#fff" />
        <path
            d="M917.2,1650.19c-23.1-10-22.64-31-22.61-31.93a1.59,1.59,0,1,0-3.18-.12c0,.24-.62,24,24.52,35a1.55,1.55,0,0,0,.63.13,1.59,1.59,0,0,0,.64-3Z"
            transform="translate(-245.76 -308.1)" style="fill:#fff" />
        <path
            d="M2253.29,1657.38a1.43,1.43,0,0,0-1.15.11,1.38,1.38,0,0,0-.63.77c-25.12,74.34-64.44,139-116.86,192.27a1.4,1.4,0,1,0,2,2c52.73-53.54,92.27-118.59,117.53-193.34A1.4,1.4,0,0,0,2253.29,1657.38Z"
            transform="translate(-245.76 -308.1)" style="fill:#fff" />
        <path
            d="M290,937.64a30,30,0,1,0,14.48,17.81A29.74,29.74,0,0,0,290,937.64Zm-7.84,47.87a22.42,22.42,0,1,1,15.07-27.9A22.45,22.45,0,0,1,282.18,985.51Z"
            transform="translate(-245.76 -308.1)" style="fill:#fff" />
        <path
            d="M1177.14,1180.83h-15.35v-25q0-8.91-8.74-12.85a48.47,48.47,0,0,0-38.19,0q-8.76,3.93-8.75,12.85v25h-30.69l63.17-126.71a19.05,19.05,0,0,0,1.79-6.78,15.19,15.19,0,0,0-5-11.25,34.21,34.21,0,0,0-11.42-7.31,32,32,0,0,0-11.42-2.5,28.14,28.14,0,0,0-13,3.21q-6.26,3.21-10.17,11.07l-82.45,161.68a28.46,28.46,0,0,0-2.14,5.71,20.86,20.86,0,0,0-.72,5q0,9.29,5.36,14.28a18.62,18.62,0,0,0,13.2,5h83.52v37.84q0,8.57,8.75,12.85a44.74,44.74,0,0,0,38.19,0q8.75-4.29,8.74-12.85v-37.84h15.35q6.42,0,11.78-8a31.16,31.16,0,0,0,5.35-17.67,36.87,36.87,0,0,0-4.28-17.66Q1185.72,1180.82,1177.14,1180.83Z"
            transform="translate(-245.76 -308.1)" style="fill:#fff" />
        <path
            d="M1338.83,1034.49q-20-8.21-44.62-8.21t-44.43,8.21a66.17,66.17,0,0,0-31.41,26.77q-11.61,18.56-11.61,49.25v94.59q0,30.7,11.61,49.25a66.07,66.07,0,0,0,31.41,26.77q19.8,8.22,44.43,8.21t44.62-8.21a66,66,0,0,0,31.58-26.77q11.6-18.55,11.61-49.25v-94.59q0-30.69-11.61-49.25A66.07,66.07,0,0,0,1338.83,1034.49Zm-12.5,170.61q0,18.56-8.56,27.12t-23.56,8.57q-15,0-23.38-8.57t-8.38-27.12v-94.59q0-18.55,8.38-27.12t23.38-8.57q15,0,23.56,8.57t8.56,27.12Z"
            transform="translate(-245.76 -308.1)" style="fill:#fff" />
        <path
            d="M1566.9,1180.83h-15.35v-25q0-8.91-8.74-12.85a48.47,48.47,0,0,0-38.19,0q-8.76,3.93-8.75,12.85v25h-30.69l63.17-126.71a19.05,19.05,0,0,0,1.79-6.78,15.19,15.19,0,0,0-5-11.25,34.21,34.21,0,0,0-11.42-7.31,32,32,0,0,0-11.42-2.5,28.14,28.14,0,0,0-13,3.21q-6.26,3.21-10.17,11.07l-82.45,161.68a28.46,28.46,0,0,0-2.14,5.71,20.86,20.86,0,0,0-.72,5q0,9.29,5.36,14.28a18.62,18.62,0,0,0,13.2,5h83.52v37.84q0,8.57,8.75,12.85a44.74,44.74,0,0,0,38.19,0q8.75-4.29,8.74-12.85v-37.84h15.35q6.42,0,11.78-8a31.16,31.16,0,0,0,5.35-17.67,36.87,36.87,0,0,0-4.28-17.66Q1575.46,1180.82,1566.9,1180.83Z"
            transform="translate(-245.76 -308.1)" style="fill:#fff" />
    </g>
</svg>