<svg xmlns="http://www.w3.org/2000/svg" viewBox="0 0 1874.33 1877.71">
    <g id="Illustration">
        <path
            d="M992.83,2069.09c-11.42-2.86-22.91-6-34.14-9.36a2.24,2.24,0,1,0-1.28,4.29c11.29,3.37,22.84,6.54,34.33,9.42a2.64,2.64,0,0,0,.55.06,2.24,2.24,0,0,0,.54-4.41Z"
            transform="translate(-312.83 -311.15)" style="fill:#ffffff" />
        <path
            d="M1058.26,2046.68c-107.62-16.33-205.47-54.74-290.84-114.16a2.24,2.24,0,1,0-2.56,3.68c85.94,59.81,184.43,98.47,292.72,114.91l.34,0a2.24,2.24,0,0,0,.34-4.45Z"
            transform="translate(-312.83 -311.15)" style="fill:#ffffff" />
        <path
            d="M2148.82,905.93a2.24,2.24,0,1,0-4.19,1.57c27.66,73.57,40.35,147.88,37.72,220.85a2.24,2.24,0,0,0,2.16,2.32h.08a2.23,2.23,0,0,0,2.23-2.16C2189.47,1054.94,2176.69,980.05,2148.82,905.93Z"
            transform="translate(-312.83 -311.15)" style="fill:#ffffff" />
        <path
            d="M2130.36,869.7a2.23,2.23,0,0,0,2.1,1.48,2.27,2.27,0,0,0,.76-.14,2.23,2.23,0,0,0,1.34-2.87c-4-11.09-8.38-22.28-12.94-33.24a2.24,2.24,0,1,0-4.13,1.72C2122,847.55,2126.34,858.67,2130.36,869.7Z"
            transform="translate(-312.83 -311.15)" style="fill:#ffffff" />
        <path
            d="M2049.85,800.49a2.23,2.23,0,0,0-.93,3c51.1,96.34,78.7,198,82,302.11a2.25,2.25,0,0,0,2.24,2.17h.07a2.24,2.24,0,0,0,2.17-2.31c-3.36-104.82-31.14-207.12-82.56-304.06A2.24,2.24,0,0,0,2049.85,800.49Z"
            transform="translate(-312.83 -311.15)" style="fill:#ffffff" />
        <path
            d="M1415.8,333a2.24,2.24,0,0,0,2.24-2.24V313.38a2.24,2.24,0,0,0-4.48,0v17.37A2.24,2.24,0,0,0,1415.8,333Z"
            transform="translate(-312.83 -311.15)" style="fill:#ffffff" />
        <path
            d="M1415.8,373.44a2.23,2.23,0,0,0,2.24-2.23V353.84a2.24,2.24,0,0,0-4.48,0v17.37A2.23,2.23,0,0,0,1415.8,373.44Z"
            transform="translate(-312.83 -311.15)" style="fill:#ffffff" />
        <path d="M1387,344.53h17.33a2.24,2.24,0,0,0,0-4.47H1387a2.24,2.24,0,1,0,0,4.47Z"
            transform="translate(-312.83 -311.15)" style="fill:#ffffff" />
        <path d="M1427.32,344.53h17.32a2.24,2.24,0,1,0,0-4.47h-17.32a2.24,2.24,0,1,0,0,4.47Z"
            transform="translate(-312.83 -311.15)" style="fill:#ffffff" />
        <path
            d="M595.67,984a2.24,2.24,0,0,0,2.24-2.24V964.38a2.24,2.24,0,0,0-4.48,0v17.37A2.25,2.25,0,0,0,595.67,984Z"
            transform="translate(-312.83 -311.15)" style="fill:#ffffff" />
        <path
            d="M595.67,1024.44a2.24,2.24,0,0,0,2.24-2.24v-17.36a2.24,2.24,0,0,0-4.48,0v17.36A2.24,2.24,0,0,0,595.67,1024.44Z"
            transform="translate(-312.83 -311.15)" style="fill:#ffffff" />
        <path d="M566.83,991.05a2.24,2.24,0,1,0,0,4.48h17.33a2.24,2.24,0,0,0,0-4.48Z"
            transform="translate(-312.83 -311.15)" style="fill:#ffffff" />
        <path d="M607.19,995.53h17.32a2.24,2.24,0,0,0,0-4.48H607.19a2.24,2.24,0,0,0,0,4.48Z"
            transform="translate(-312.83 -311.15)" style="fill:#ffffff" />
        <path
            d="M1520.8,410.36a25.32,25.32,0,0,0,19.68-.52A26.71,26.71,0,0,0,1553.75,375a26,26,0,0,0-14.51-14.08,25.27,25.27,0,0,0-19.68.52,26.7,26.7,0,0,0-13.27,34.84A26,26,0,0,0,1520.8,410.36Zm.6-44.85a20.85,20.85,0,0,1,16.22-.43,21.51,21.51,0,0,1,12,11.68,22.21,22.21,0,0,1-11,29,20.81,20.81,0,0,1-16.22.42,21.53,21.53,0,0,1-12-11.68A22.21,22.21,0,0,1,1521.4,365.51Z"
            transform="translate(-312.83 -311.15)" style="fill:#ffffff" />
        <path
            d="M458.66,841.61l-12,9.12,5.71,12.61,14.78-3.06a58.8,58.8,0,0,0,6.11,7.44l-5.87,13.94,11.23,8.06,11.26-10.05a56.33,56.33,0,0,0,9,3.38l1.87,15,13.75,1.35,4.74-14.36a57.58,57.58,0,0,0,9.5-1.56l9.09,12,12.58-5.73L547.35,875a58.09,58.09,0,0,0,7.43-6.12l13.91,5.88,8-11.26-10-11.28a58.89,58.89,0,0,0,3.37-9l15-1.88,1.35-13.78-14.33-4.75a57.94,57.94,0,0,0-1.56-9.53l12-9.11-5.71-12.62L562,794.58a57.42,57.42,0,0,0-6.11-7.44l5.87-13.94-11.23-8.07-11.26,10a57.52,57.52,0,0,0-9-3.37l-1.88-15-13.75-1.35-4.74,14.36a57.76,57.76,0,0,0-9.5,1.56l-9.09-12-12.58,5.73,3.06,14.81a58.09,58.09,0,0,0-7.43,6.12l-13.91-5.88-8,11.26,10,11.28a56.88,56.88,0,0,0-3.37,9l-15,1.88-1.35,13.78,14.33,4.75A57.65,57.65,0,0,0,458.66,841.61ZM479.19,824a35.57,35.57,0,1,1,31.93,38.95A35.6,35.6,0,0,1,479.19,824Z"
            transform="translate(-312.83 -311.15)" style="fill:#ffffff" />
        <path
            d="M1289.4,1932.35l-21-6.94a93.61,93.61,0,0,0-2-12.3l17.57-13.33a2.24,2.24,0,0,0,.69-2.71l-8.9-19.67a2.23,2.23,0,0,0-2.5-1.27l-21.61,4.48a92.61,92.61,0,0,0-7.88-9.6l8.59-20.4a2.24,2.24,0,0,0-.76-2.68l-17.53-12.58a2.23,2.23,0,0,0-2.79.15l-16.46,14.7a91.45,91.45,0,0,0-11.63-4.36l-2.74-21.95a2.23,2.23,0,0,0-2-2l-21.45-2.11a2.24,2.24,0,0,0-2.34,1.53l-6.93,21a93.56,93.56,0,0,0-12.26,2l-13.3-17.61a2.22,2.22,0,0,0-2.71-.69l-19.63,8.93a2.23,2.23,0,0,0-1.26,2.49l4.48,21.67a93.9,93.9,0,0,0-9.59,7.89l-20.33-8.6a2.23,2.23,0,0,0-2.69.76l-12.55,17.57a2.23,2.23,0,0,0,.15,2.79l14.66,16.5a92.36,92.36,0,0,0-4.35,11.67l-21.89,2.74a2.23,2.23,0,0,0-2,2l-2.1,21.5a2.23,2.23,0,0,0,1.52,2.34l21,7a93.88,93.88,0,0,0,2,12.3l-17.57,13.33a2.24,2.24,0,0,0-.69,2.71l8.9,19.67a2.26,2.26,0,0,0,2.5,1.27l21.61-4.49a92.14,92.14,0,0,0,7.88,9.61l-8.59,20.39a2.25,2.25,0,0,0,.76,2.69l17.53,12.57a2.23,2.23,0,0,0,2.79-.15l16.46-14.69a93.38,93.38,0,0,0,11.63,4.36l2.74,22a2.23,2.23,0,0,0,2,2l21.45,2.1h.22a2.23,2.23,0,0,0,2.12-1.53l6.93-21a91.4,91.4,0,0,0,12.26-2l13.3,17.62a2.24,2.24,0,0,0,2.71.69l19.63-8.93a2.24,2.24,0,0,0,1.26-2.49l-4.47-21.67a93.88,93.88,0,0,0,9.58-7.9l20.33,8.61a2.23,2.23,0,0,0,2.69-.76l12.55-17.57a2.23,2.23,0,0,0-.15-2.79l-14.66-16.5a92.36,92.36,0,0,0,4.35-11.67l21.89-2.74a2.23,2.23,0,0,0,2-2l2.1-21.5A2.24,2.24,0,0,0,1289.4,1932.35Zm-4.86,21.63-21.58,2.7a2.24,2.24,0,0,0-1.88,1.62A88,88,0,0,1,1256,1972a2.23,2.23,0,0,0,.35,2.45l14.45,16.26-10.47,14.65-20-8.47a2.25,2.25,0,0,0-2.44.46,88.38,88.38,0,0,1-11.3,9.3,2.25,2.25,0,0,0-.92,2.3l4.42,21.36-16.37,7.44-13.11-17.36a2.23,2.23,0,0,0-2.33-.82,86.62,86.62,0,0,1-14.45,2.37,2.25,2.25,0,0,0-2,1.53l-6.83,20.7-17.88-1.75-2.7-21.64a2.24,2.24,0,0,0-1.61-1.88,87.09,87.09,0,0,1-13.71-5.13,2.23,2.23,0,0,0-2.45.35l-16.22,14.48-14.62-10.49,8.47-20.09a2.27,2.27,0,0,0-.46-2.43,88.74,88.74,0,0,1-9.29-11.33,2.24,2.24,0,0,0-2.3-.92l-21.29,4.42-7.44-16.41,17.33-13.14a2.26,2.26,0,0,0,.81-2.34,88,88,0,0,1-2.36-14.48,2.27,2.27,0,0,0-1.53-2l-20.65-6.84,1.75-17.94,21.58-2.7a2.25,2.25,0,0,0,1.88-1.62,86.93,86.93,0,0,1,5.13-13.75,2.23,2.23,0,0,0-.36-2.44l-14.45-16.26,10.47-14.66,20,8.48a2.23,2.23,0,0,0,2.43-.46,89.87,89.87,0,0,1,11.3-9.31,2.23,2.23,0,0,0,.92-2.29l-4.42-21.36,16.37-7.44,13.11,17.36a2.24,2.24,0,0,0,2.34.82,87.73,87.73,0,0,1,14.44-2.38,2.23,2.23,0,0,0,2-1.53l6.83-20.7,17.88,1.76,2.7,21.64a2.22,2.22,0,0,0,1.61,1.87,87.13,87.13,0,0,1,13.71,5.14,2.25,2.25,0,0,0,2.46-.35L1233,1840l14.62,10.48-8.46,20.1a2.25,2.25,0,0,0,.45,2.43,88.34,88.34,0,0,1,9.29,11.32,2.24,2.24,0,0,0,2.3.93l21.29-4.42,7.44,16.41-17.33,13.14a2.24,2.24,0,0,0-.81,2.33,88.37,88.37,0,0,1,2.36,14.48,2.24,2.24,0,0,0,1.53,2l20.65,6.85Z"
            transform="translate(-312.83 -311.15)" style="fill:#ffffff" />
        <path
            d="M1182.31,1876.76a57.85,57.85,0,0,0-11.25,115.15q2.88.28,5.73.29a57.77,57.77,0,0,0,57.34-52.23A57.89,57.89,0,0,0,1182.31,1876.76Zm47.36,62.78a53.22,53.22,0,1,1-47.8-58.32A53,53,0,0,1,1229.67,1939.54Z"
            transform="translate(-312.83 -311.15)" style="fill:#ffffff" />
        <path
            d="M1659.63,1851.78l-34.29-11.38a147.42,147.42,0,0,0-3.46-21.17l28.77-21.83a2.25,2.25,0,0,0,.69-2.71l-14.23-31.43a2.23,2.23,0,0,0-2.49-1.26l-35.39,7.34a147.41,147.41,0,0,0-13.57-16.55l14.06-33.38a2.25,2.25,0,0,0-.76-2.69l-28-20.09a2.24,2.24,0,0,0-2.8.15l-26.94,24.06a145.9,145.9,0,0,0-20-7.5l-4.48-35.94a2.23,2.23,0,0,0-2-2l-34.27-3.37a2.24,2.24,0,0,0-2.34,1.53L1466.74,1708a145.24,145.24,0,0,0-21.11,3.47l-21.77-28.84a2.25,2.25,0,0,0-2.72-.69l-31.35,14.26a2.23,2.23,0,0,0-1.26,2.49l7.32,35.48a148.16,148.16,0,0,0-16.51,13.6l-33.29-14.08a2.24,2.24,0,0,0-2.69.76l-20,28.06a2.23,2.23,0,0,0,.15,2.79l24,27a147.64,147.64,0,0,0-7.49,20.1l-35.84,4.49a2.23,2.23,0,0,0-2,2l-3.36,34.35a2.24,2.24,0,0,0,1.53,2.34l34.29,11.38a147.42,147.42,0,0,0,3.46,21.17L1309.34,1910a2.25,2.25,0,0,0-.69,2.71l14.23,31.42a2.24,2.24,0,0,0,2.5,1.27l35.38-7.34a147.61,147.61,0,0,0,13.57,16.55L1360.27,1988a2.26,2.26,0,0,0,.76,2.69l28,20.08a2.26,2.26,0,0,0,2.8-.14l26.94-24.06a144.93,144.93,0,0,0,20,7.5l4.48,35.94a2.23,2.23,0,0,0,2,2l34.26,3.36.23,0a2.25,2.25,0,0,0,2.12-1.54l11.35-34.39a145.23,145.23,0,0,0,21.11-3.46l21.77,28.84a2.25,2.25,0,0,0,2.72.69l31.35-14.27a2.24,2.24,0,0,0,1.27-2.49l-7.33-35.47a148.16,148.16,0,0,0,16.51-13.6l33.29,14.08a2.24,2.24,0,0,0,2.69-.76l20-28.06a2.23,2.23,0,0,0-.15-2.79l-24-27A148,148,0,0,0,1620,1895l35.85-4.49a2.25,2.25,0,0,0,2-2l3.35-34.35A2.23,2.23,0,0,0,1659.63,1851.78Zm-6.11,34.47L1618,1890.7a2.23,2.23,0,0,0-1.88,1.61,142.27,142.27,0,0,1-8.27,22.18,2.25,2.25,0,0,0,.35,2.44l23.8,26.78-18,25.15-33-14a2.23,2.23,0,0,0-2.43.46,144,144,0,0,1-18.23,15,2.23,2.23,0,0,0-.92,2.29l7.27,35.17-28.09,12.78L1517,1992a2.24,2.24,0,0,0-2.34-.82,141.31,141.31,0,0,1-23.29,3.83,2.23,2.23,0,0,0-2,1.53l-11.25,34.08-30.7-3-4.44-35.63a2.23,2.23,0,0,0-1.61-1.87,140.27,140.27,0,0,1-22.12-8.29,2.23,2.23,0,0,0-2.45.35L1390.18,2006l-25.08-18L1379,1955a2.23,2.23,0,0,0-.46-2.42,144.2,144.2,0,0,1-15-18.27,2.26,2.26,0,0,0-2.3-.92l-35.08,7.28-12.75-28.17,28.52-21.64a2.23,2.23,0,0,0,.82-2.33,141.26,141.26,0,0,1-3.82-23.36,2.23,2.23,0,0,0-1.52-1.95l-34-11.27,3-30.79,35.54-4.45a2.23,2.23,0,0,0,1.87-1.62,141.27,141.27,0,0,1,8.27-22.17,2.25,2.25,0,0,0-.35-2.44l-23.8-26.78,18-25.15,33,14a2.23,2.23,0,0,0,2.43-.46,144,144,0,0,1,18.23-15,2.23,2.23,0,0,0,.92-2.29l-7.27-35.17,28.09-12.78,21.59,28.59a2.24,2.24,0,0,0,2.34.82,140.55,140.55,0,0,1,23.3-3.83,2.23,2.23,0,0,0,1.94-1.53l11.25-34.08,30.7,3,4.44,35.62a2.23,2.23,0,0,0,1.62,1.88,140.9,140.9,0,0,1,22.11,8.29,2.25,2.25,0,0,0,2.45-.35l26.71-23.85,25.09,18L1581,1752.41a2.25,2.25,0,0,0,.46,2.42,144.12,144.12,0,0,1,15,18.27,2.22,2.22,0,0,0,2.29.92l35.08-7.28,12.75,28.17L1618,1816.55a2.23,2.23,0,0,0-.82,2.33,141.26,141.26,0,0,1,3.82,23.36,2.23,2.23,0,0,0,1.53,2l34,11.27Z"
            transform="translate(-312.83 -311.15)" style="fill:#ffffff" />
        <path
            d="M1488.85,1763a90.94,90.94,0,0,0-99.29,81.78c-4.88,50,31.71,94.62,81.58,99.52q4.53.43,9,.44a91,91,0,0,0,90.27-82.22C1575.31,1812.57,1538.71,1767.92,1488.85,1763Zm77.13,99.09a86.44,86.44,0,0,1-94.4,77.75c-47.41-4.65-82.21-47.1-77.56-94.63a86.45,86.45,0,0,1,85.82-78.17,85.21,85.21,0,0,1,8.57.42C1535.82,1772.14,1570.61,1814.59,1566,1862.12Z"
            transform="translate(-312.83 -311.15)" style="fill:#ffffff" />
        <path
            d="M1055.76,702.27h726.38a15.69,15.69,0,0,0,15.67-15.67V590.36a15.69,15.69,0,0,0-15.67-15.67H1055.76a15.69,15.69,0,0,0-15.67,15.67V686.6A15.69,15.69,0,0,0,1055.76,702.27Zm-11.19-111.91a11.21,11.21,0,0,1,11.19-11.2h726.38a11.21,11.21,0,0,1,11.2,11.2V686.6a11.21,11.21,0,0,1-11.2,11.19H1055.76a11.2,11.2,0,0,1-11.19-11.19Z"
            transform="translate(-312.83 -311.15)" style="fill:#ffffff" />
        <path d="M1625.87,681.75a44,44,0,1,0-43.92-44A44,44,0,0,0,1625.87,681.75Z"
            transform="translate(-312.83 -311.15)" style="fill:#ffffff" />
        <path d="M1733.05,681.76a44,44,0,1,0-43.91-44A44,44,0,0,0,1733.05,681.76Z"
            transform="translate(-312.83 -311.15)" style="fill:#ffffff" />
        <path
            d="M1078.28,683.24H1254.6A16.22,16.22,0,0,0,1270.83,667v-56a16.23,16.23,0,0,0-16.23-16.23H1078.28a16.23,16.23,0,0,0-16.23,16.23v56A16.23,16.23,0,0,0,1078.28,683.24Z"
            transform="translate(-312.83 -311.15)" style="fill:#ffffff" />
        <rect x="968.24" y="298.61" width="61.4" height="16.79" rx="3.36" style="fill:#ffffff" />
        <rect x="968.24" y="320.99" width="61.4" height="16.79" rx="3.36" style="fill:#ffffff" />
        <rect x="968.42" y="344.87" width="61.41" height="16.78" rx="3.36" style="fill:#ffffff" />
        <path
            d="M2081.74,1917.61a2.23,2.23,0,0,0-2-.7,2.26,2.26,0,0,0-1.69,1.24l-2.59,5.35c-7.44-11.19-15.68-23.23-20.28-28.78l5.89-6.48c-56.24-67.19-95.7-151-122.92-228.07,3.5-21.72,7.19-41.2,11-57.08,2.6-10.89,4.78-21.69,6.6-32.27l9.29,9.26a55,55,0,0,0,77.94-.19,83.71,83.71,0,0,0,21.53-40.46,57.65,57.65,0,0,0-13.07-61.37l-13.28-13.25q4.48-3.64,8.82-7.63c35.44-32.62,73.55-93.16,54.41-196.53l11.16-4.22a2.23,2.23,0,0,0,1.36-2.72c-9.63-32.72-44.06-72.67-71.25-100.42a104.24,104.24,0,0,0-72-31.45c-17-.46-35.37-.24-54.17.48L1893.08,1074c11.06.46,22.29-8.82,25.91-11.82,13.18-10.89,20.28-28.51,14.28-33.55-3.8-3.19-10.2.91-14.45-2.4-6.7-5.21,6.63-20.38,1.29-29.76-6-10.56-26.23.81-53.4-11.35V537.87a19.37,19.37,0,0,0-17.36-19.24h0l-.24-.08-192.63-56.2a100.38,100.38,0,0,0-28.38-4l-869.66,2.19a2.79,2.79,0,0,0-1.68.55,8.53,8.53,0,0,0-4.44,1.82,8.2,8.2,0,0,0-3.14,6.46v601.43H351.42c-21.28,0-38.59,16.89-38.59,37.65v607.45c0,20.76,17.31,37.65,38.59,37.65H509.93c-28.69,68.6-58,153.53-62.27,318.17a10.23,10.23,0,0,0,4.71,8.88l-.7,17.87a2.18,2.18,0,0,0-1.34-.67,2.23,2.23,0,0,0-2,.81c-12.63,15.48-20.39,42.76-25.74,64.8-1.08,4.46-.19,11.8,3.6,17.18a13.07,13.07,0,0,0,9.37,5.87,243,243,0,0,0,25.7,1.41,163,163,0,0,0,22.67-1.4,13.59,13.59,0,0,0,11.44-15.17l-6.54-72.21a2.24,2.24,0,0,0-3.93-1.25l-1.33,1.55,1.84-17.36a10,10,0,0,0,6.45-5.71l135.77-322.77h13.82c-2.72,77.32-28.12,273.08-35.41,319.3a12.89,12.89,0,0,0,3.41,10.93L602,2119.83l-1.61-.55a2.22,2.22,0,0,0-1.73.11,2.29,2.29,0,0,0-1.13,1.31c-.35,1.07-8.54,26.58-6.85,53.2.4,6.35,7.4,11.31,13.65,12.27,11.78,1.8,33.4,1.92,50.77,2,8.8,0,16.41.09,20.26.36.52,0,4.44.3,9.78.3,13.13,0,34.86-1.57,36-11.85,1.41-12.53-11.17-30.42-42.11-40.12-8-2.49-16.64-10.91-23.62-17.67-5.19-5-9.26-9-12.71-10.58l6-19.59a12.63,12.63,0,0,0,4.7-4.86c9.19-16.79,33.1-63,66.6-155.9,16.76-46.45,21.65-113.47,21.74-174.75h519.26c21.28,0,38.59-16.89,38.59-37.65V1641h461.56a361.46,361.46,0,0,0,29.36,55.11c.62-22.87,1.65-40.29,2.94-55.11.07-.76.14-1.5.2-2.24l.21-2.24h0v-.26h0c1.44-15.25,3.17-27.9,5-41.41,2.45-17.86,5.23-38.12,7.81-68.26a2.24,2.24,0,1,1,4.46.38c-2.59,30.26-5.37,50.57-7.83,68.49-1.84,13.4-3.55,26-5,41.09l-.21,2.24c-.07.74-.14,1.48-.2,2.24-1,10.77-1.75,22.91-2.36,37.55v.09c-.31,7.34-.56,15.31-.76,24.06,1,1.44,1.93,2.87,2.9,4.28h0c13.12,149.48,54.16,287.12,54.16,287.12l6.63,0,1.15,3.68c-13.26,3.93-99.8,30.53-112.22,57.09a14.15,14.15,0,0,0-.41,12.12c2,4.47,10.88,9.91,62.79,12.35,19,.89,39.59,1.18,58.17,1.18,11.28,0,21.81-.11,30.78-.25a23.89,23.89,0,0,0,23.31-21.24,2.09,2.09,0,0,0,0-.66l-9.2-48.66a2.25,2.25,0,0,0-2.79-1.75l-2.52.68-.94-14.78,5.87,0c-3.22-20.56-1.09-80.09,4.37-148.72,2-25.16,4.45-51.55,7.25-77.69a.53.53,0,0,0,0-.13c4.29-45.33,9.51-91.84,9.89-95.27a2.22,2.22,0,0,1,2.48-2l.08,0a2.22,2.22,0,0,1,1.89,2.45c-.17,1.51-16.9,150.58-15.4,178.14a2.07,2.07,0,0,1,0,.5c47,45.85,92.9,86.77,92.9,86.77l2.63-2.9,18.18,23.16a2.25,2.25,0,0,0-2.5,1.26c-1.68,3.64-40.94,89.43-29.06,116a13.28,13.28,0,0,0,8.37,7.76,4.87,4.87,0,0,0,1.42.2c11.66,0,45.61-33.49,101-99.65a22.57,22.57,0,0,0-.71-29.72ZM478.89,2101.19l0-.17a6.3,6.3,0,0,0-6.71-5l-9.69-.1-.3,0a6.31,6.31,0,0,0-4.73,3.31l-1.42,3,.8-20.22c.25,0,.5,0,.75,0l23.33.27Zm1438-972.84a2.23,2.23,0,0,0,1.22-1.28,1.91,1.91,0,0,0,.1-.34c18.19-.67,35.91-.87,52.41-.42a99.78,99.78,0,0,1,68.87,30.12c26.28,26.82,59.39,65.09,69.54,96.56l-96.83,36.64a2.52,2.52,0,0,0-.33.13l-15.17,5.73-9.92-14.65,0,0-20.36-43.72a2.24,2.24,0,1,0-4.06,1.89l20.31,43.59v0c.83,4.64,11.31,66,2.31,129.11l-118.24-118-2.24-2.23-2.24-2.23L1794,1221.21l-4.44-4.44-3.52-3.51-4.58-4.57h0l-4.59-4.57-48.41-48.3-2-1.94-2-1.95-6-6c16.41-2.33,41.85-5.74,71.7-9.08l4.48-.49c16-1.76,33.12-3.48,50.74-5a2.21,2.21,0,0,0,1.18,1.72c.48.26,5.9,3,15.64,4.35.72.09,1.47.19,2.24.26s1.47.15,2.24.21c1.94.15,4,.23,6.2.23C1884.28,1138.12,1899.1,1135.86,1916.88,1128.35Zm71.65,163.08,5.44,8a2.25,2.25,0,0,0,2.65.84l14.24-5.39c.94,13.51,3.2,71.28-21.84,119.79C1996.75,1363.11,1991.44,1312.32,1988.53,1291.43Zm-121.82-271.18c7.9,2.86,13.27,6.92,16,12.13,4.64,8.75.15,18,.11,18.13a2.22,2.22,0,0,0,.38,2.55,2.24,2.24,0,0,0,2.53.5c1.47-.66,6.21-2.18,8.65-.61,1.23.79,1.86,2.46,1.88,5,0,3.52-5.15,9.32-8.29,11a2.24,2.24,0,0,0-1,3l.52,1.07h0l24.13,49.6,1,2.18.22.44q-2.75,1.11-5.39,2c-17,6-30.89,6.92-40.85,6.12-.77-.06-1.52-.13-2.24-.21s-1.52-.18-2.24-.29a58.62,58.62,0,0,1-9.35-2.07c-1.1-.35-2-.67-2.66-.94l.26-1.15.51-2.24,7.43-32.78,3.8-1h0a2.23,2.23,0,0,0,1.6-2.72,2.19,2.19,0,0,0-1.6-1.6,2.13,2.13,0,0,0-1.12,0l-5,1.27h0a46.24,46.24,0,0,1-14.51-.41,40.77,40.77,0,0,1-2.61-14.74,16.89,16.89,0,0,0-7.35-13.55l1.38-1.61.07-.08a73.08,73.08,0,0,0,12.91-24.52c1.5-4.87,3-9.16,4.24-12.47h0c.86-2.35,1.59-4.19,2.07-5.4a84.73,84.73,0,0,1,9.9,2.06c.77.21,1.51.43,2.24.66S1866,1020,1866.71,1020.25Zm-16.6-497a14.11,14.11,0,0,1,2.17.57,14.89,14.89,0,0,1,10,14V983c-8.77-4.7-11.62-8.69-19-8.12-13.11,1-27.25,15.31-25.6,26.52,1.45,9.93,14.32,10.57,28.73,18.49-1.29,3.45-2.93,8.1-4.6,13.49a68.6,68.6,0,0,1-12.13,23l-3.11,3.62a2.25,2.25,0,0,0,.76,3.5,12.46,12.46,0,0,1,7.28,11c.11,7,1.28,12.89,3.46,17.56a2.28,2.28,0,0,0,1.47,1.23,49.3,49.3,0,0,0,14.19,1l-7.35,32.45c-17.92,1.53-35.35,3.28-51.6,5.06l2.89-350.12a27.86,27.86,0,0,0-27.66-28.12l-701.29-4.17h-.17a27.86,27.86,0,0,0-27.82,27.74l-1.09,198.89H975.81V537.87a15,15,0,0,1,7-12.62c.21-.13.42-.26.64-.38a13.69,13.69,0,0,1,2.24-1,13.94,13.94,0,0,1,2.24-.6,14.13,14.13,0,0,1,2.7-.25h856.7A14.55,14.55,0,0,1,1850.11,523.27Zm-1013.54,637a2.25,2.25,0,0,0-1.6-.68H800.91a16.22,16.22,0,0,1-16.18-16.23V996.77a16.22,16.22,0,0,1,16.18-16.23h287a16.22,16.22,0,0,1,16.18,16.23v146.62a16.22,16.22,0,0,1-16.18,16.23H883a2.22,2.22,0,0,0-1.53.61l-45.23,42.59,1-40.91A2.25,2.25,0,0,0,836.57,1160.3ZM775.66,465l852.44-2.15a95.65,95.65,0,0,1,27.11,3.84l177.3,51.88H990.67a18.18,18.18,0,0,0-2.68.19,16.45,16.45,0,0,0-2.24.45,16.79,16.79,0,0,0-2.24.74,19.17,19.17,0,0,0-5.19,3.1h-4.44L831.36,482.4,789,470.32,770.17,465ZM751.4,1196.32l2.24-.48,3.19-.69a7.07,7.07,0,0,1,6.67,2.53,12.39,12.39,0,0,1,2.64,11.83c-1.51,4.92-5.7,9.29-12.5,13-.71.39-1.46.78-2.24,1.17s-1.46.69-2.23,1c-1.18.53-2.43,1-3.73,1.54q-4.56,1.74-8.84,3.31c-7.17,2.64-13.75,4.94-19.64,6.91l-3.7,1.23c-1.29.43-2.55.84-3.76,1.22l-3.67,1.18c.67-.54,1.33-1.08,2-1.65s1.34-1.17,2-1.78,1.25-1.19,1.84-1.81a57.57,57.57,0,0,0,8.47-11l.12-.2a20.31,20.31,0,0,0,.14-20.71l3.71-.8,25.09-5.42Zm-33.54,127.62c.2.33.4.69.6,1.07a123.34,123.34,0,0,0-15.9-4.12c-2.95-.56-5.88-1-8.79-1.47l2-10.44a3.36,3.36,0,0,1,2.9-2.69l13.78-1.59a8.89,8.89,0,0,0,7.71-7.46l3-18.79,5.63-3.08a5,5,0,0,0,2-6.66l-6.89-13.65a41.49,41.49,0,0,1-1.36-5.25q-.21-.91-.39-1.77a9.39,9.39,0,0,0,1.51-.47c5.31-2.12,9.16-7.09,11.35-12.62q5.75-2.1,12-4.48c.73-.28,1.44-.56,2.14-.85v110.29a132.79,132.79,0,0,0-12.56-7.31c-2.12-4.4-4.82-6.16-6.55-7s-7.58-3-10.18-4A1.63,1.63,0,0,0,717.86,1323.94Zm-4.94-123.57c.47.57.91,1.13,1.34,1.69s.92,1.22,1.34,1.82l.11.16a15.93,15.93,0,0,1,.67,17.42l-.12.19a53.94,53.94,0,0,1-9.61,11.87c-.66.62-1.34,1.23-2,1.81s-1.45,1.22-2.2,1.79a60.63,60.63,0,0,1-9.92,6.21c-.77.39-1.56.76-2.35,1.11s-1.67.73-2.52,1.07l-1,.42h0l-3.51,1.39-11.09,4.4L653.55,1259c-.45-1.45-1-3.14-1.33-3.91-.55-1.27-1.1-2.44-1.66-3.51a35.08,35.08,0,0,0-1.82-3.17,24.09,24.09,0,0,0-1.65-2.35c-5.09-6.48-10.07-6.06-13.76-4.21a46.39,46.39,0,0,1-2.22-6.46,35,35,0,0,1-1.24-10.36c.34-8.66,4.4-16.37,12.08-22.93,14.21-12.14,27.57-18.28,39.78-18.28a34.8,34.8,0,0,1,4.35.27c12,1.48,20.84,9,26.74,16.12l-.2.15A1.51,1.51,0,0,1,712.92,1200.37Zm-54.43,80a4.75,4.75,0,0,0,1.88-.59l.09,0a4.25,4.25,0,0,0,1.53-5.92l-.4-.65a19.68,19.68,0,0,1-2.85-8.08,12,12,0,0,1,0-3.34l8-3.18.27.09a10.59,10.59,0,0,1,5.9,5.26c1.21,2.24,5.28-.43,4.15-3.27a28.87,28.87,0,0,0-2.7-5.1l14.49-5.75h0c3-.83,8-2.24,14.66-4.28,7,1.35,11.2,2.15,14,2.5.24,1,.46,2,.62,2.75a33.26,33.26,0,0,0,1.73,6.3l6.89,13.65a.53.53,0,0,1-.2.71L720,1275a2.45,2.45,0,0,0-1.17,1.68l-3.11,19.82a4.4,4.4,0,0,1-3.8,3.71l-13.79,1.59a7.84,7.84,0,0,0-6.77,6.27l-2.07,10.72-.43,2.22-.42,2.18-3.58,18.58-9-.13a98,98,0,0,1-40.38-9.46l5.18-8.17,1.59-2.51,1.59-2.51,9-14.13a41,41,0,0,0,4.2-9.27A39,39,0,0,0,658.49,1280.4ZM349.32,1555.14a2.24,2.24,0,0,0-4.18,1.12v146a20.11,20.11,0,0,0,20.31,19.85H523.34c-3.78,8.83-7.64,17.78-11.53,27H351.42c-18.81,0-34.12-14.88-34.12-33.17V1108.43c0-18.29,15.31-33.17,34.12-33.17H749.17v117l-31.57,6.83c-6.41-8.3-16.61-17.59-31-19.37-14.66-1.82-30.67,4.59-47.59,19-8.67,7.4-13.26,16.21-13.64,26.18-.28,7.41,1.79,14.53,4.64,20.71h0c1.42,10,9.62,18.85,16.09,25.8a52.9,52.9,0,0,0,7.58,7h0a34.54,34.54,0,0,1-1,15.82,36.41,36.41,0,0,1-3.72,8.23L637.94,1320c-2.39.43-4.77.92-7.12,1.46a167.57,167.57,0,0,0-18.06,5.24,19,19,0,0,0-14.1-.78c-2.52.7-6.57,2.16-9.65,3.3a1.71,1.71,0,0,0,0,3.19c1.42.57,3.11,1.27,4.93,2.09A145.31,145.31,0,0,0,575,1345.12c-.5.33-50.39,32.92-49.2,93.67.07,3.69.35,7.44.8,11.2a2.13,2.13,0,0,0-.26,1.17,93.93,93.93,0,0,0,1.46,11.81c.13.73.28,1.47.43,2.22s.31,1.46.48,2.2l-139.49,45.19a50.83,50.83,0,0,0-32.61,63.92,76.54,76.54,0,0,0,15.55,26.67,54,54,0,0,0,6.75,9.76,54.57,54.57,0,0,0,12.85,10.85c1.2.73,2.43,1.42,3.7,2.07a54.61,54.61,0,0,0,42,3.36L557,1590.49c0,4.38.58,8.08,2.32,14.09a17.9,17.9,0,0,0,1.68,3.93c-7.83,41.38-21.06,74.53-35.78,109.07H365.45a16,16,0,0,1-9.09-2.79,20.26,20.26,0,0,1-6.71-11.66c0-.3,0-.61,0-.92v-146A2.23,2.23,0,0,0,349.32,1555.14Zm212.59,29-2.33.76-2.3.74L436.11,1625a50.34,50.34,0,0,1-18,2.43,48.74,48.74,0,0,1-10.29-1.59,49.92,49.92,0,0,1-10.27-3.92c-1.24-.64-2.45-1.32-3.62-2A50.82,50.82,0,0,1,405,1528.34l129.56-42q2.9,7.7,6.83,16a307.24,307.24,0,0,0,14.88,27.27q4.31,7.1,9.25,14.55,7,10.57,15.32,21.9l1.39,1.88c.45.62.92,1.25,1.4,1.89,1,1.3,1.94,2.6,2.93,3.92.51.68,1,1.34,1.57,2Zm29.44-4.83a59.26,59.26,0,0,0,10.72,8.81c-1.05,6.75-2.18,13.45-3.4,20-16.89-1.64-29.84-3.34-34.71-4-.12-.31-.22-.62-.31-.93-1.79-6.19-2.33-9.5-2.12-14.31Zm18,54.21c-8.61,33.78-36.84,36.21-44.75,36.21-1.28,0-2-.06-2.08-.07a2.24,2.24,0,0,1,.43-4.46c1.34.13,33,2.67,42.06-32.78a2.24,2.24,0,1,1,4.34,1.1Zm20.17,115.48,10.63-25.28c1.36,3.65,1.76,12.57,1.45,25.28Zm8.75,359c-7,1.43-15.77,13-19.1,17.73l-12.87-4.43,7.15-34.72a12.56,12.56,0,0,0,3.48,1l23.87,3.11a12.24,12.24,0,0,0,2.77,0Zm90.11-438.3a12.17,12.17,0,0,1-1.53.07c-5.66,0-25.37-2.49-31.25-36.37a2.24,2.24,0,1,1,4.41-.76c6.13,35.28,27.53,32.65,27.74,32.63a2.24,2.24,0,1,1,.63,4.43ZM734.6,1612a6.12,6.12,0,0,0,1.2-2.68c1.15-7.2.41-16-.53-27.25,0-.33,0-.66-.08-1,5.61-2.14,10.89-4.3,15.72-6.37a22.54,22.54,0,0,0,15.41,13l214.4,53.24a2,2,0,0,0,.54.07,2.3,2.3,0,0,0,1.38-.47,2.25,2.25,0,0,0,.71-1,19.18,19.18,0,0,0,7.32,1.44h272.19v61.21a15.63,15.63,0,0,1-15.84,15.37H741.33C740.07,1670,736.51,1630,734.6,1612ZM988.08,1391.1a2.24,2.24,0,0,0,1,3l48.07,24.67,4.47,2.29,21.3,10.93,2.82,1.44,2.81,1.45,24.57,12.6a2.21,2.21,0,0,0,1.71.13l115.74-37.5,4.08-1.32-.06.23q-.64,2.45-1.37,4.86A157.17,157.17,0,0,1,1041,1524.84c-1.5-.21-3-.44-4.48-.69A157.61,157.61,0,0,1,984,1505.31c-.75-.42-1.5-.85-2.24-1.31s-1.49-.88-2.23-1.35c-1.26-.78-2.52-1.58-3.76-2.41-.75-.49-1.5-1-2.24-1.5s-1.5-1-2.24-1.57q-2.22-1.56-4.39-3.23a158.8,158.8,0,0,1-12.41-10.56A154.44,154.44,0,0,1,943.64,1472h0q-3.27-3.78-6.34-7.82a2.24,2.24,0,0,0-2.47-.78l-.23.07-2.38.77-2.38.78-66.31,21.48h0c-6.35,1-11.9,1.62-15.59,2a32.56,32.56,0,0,1-11.9-1,1.53,1.53,0,0,1-.74-2.47l5.2-5.89,2-2.24.57-.65h0l2.44-2.77h0l3-3.43a10.7,10.7,0,0,0-1-15.16,10.7,10.7,0,0,0-12.25-1.17l-.12.07a10.42,10.42,0,0,0-3.35,2.52l-18.06,20.35-1.88,2.11-2,2.24-6.37,7.19-.8.89,0,0-.79.74-.05,0-3.36,2.42-6.34,4.59-15.77,11.43a2.18,2.18,0,0,0-.69.24,228.46,228.46,0,0,1-22,10.11l-2.24.9-2.23.87c-4.27,1.64-8.93,3.3-13.88,4.88l-2.13.67-.21.07-2.34.71c-14.09,4.19-30.13,7.51-46,7.75q-3.3.06-6.57-.07-2.85-.12-5.68-.39a80.63,80.63,0,0,1-26.89-7c-7.88-3.71-20.45-32.59-29.74-66.9L733.3,1422l15.87-5.14,2.23-.73,2.24-.72,84.3-27.32,9.42-3h0l29.29-9.49h0l12.93-4.19,14-4.55a2.24,2.24,0,0,0,1.55-2.08q0-1.64.12-3.27c0-1,.1-2,.16-2.94h0c.06-1,.13-2,.22-3a158.06,158.06,0,0,1,65.62-115.35c.74-.53,1.49-1.05,2.24-1.57l2.24-1.51c1.59-1.06,3.21-2.09,4.84-3.07.74-.47,1.48-.91,2.23-1.35s1.49-.88,2.25-1.3a155.94,155.94,0,0,1,29-12.75,159.58,159.58,0,0,1,24.14-5.81c1.5-.24,3-.46,4.48-.64a153.74,153.74,0,0,1,20.17-1.32,155.59,155.59,0,0,1,90.77,29.29q4.14,3,8.13,6.22l.61.49-6.75,2.19-4.46,1.44-15.16,4.91-93.46,30.28-.25.1a2.26,2.26,0,0,0-1.06,1l-3.46,6.79Zm49.68-87.56-.6,110.22-44.07-22.61Zm6.84,247.86a27.67,27.67,0,0,0,19.66,8.23l198.6.6v76.29H990.67a14.76,14.76,0,0,1-7.15-1.83l.5-124.24a162.34,162.34,0,0,0,52.51,18.23l0,2.9A27.75,27.75,0,0,0,1044.6,1551.4Zm-65-43.52-.49,123a14.79,14.79,0,0,1-3.25-9.26V1505.58C977.05,1506.37,978.29,1507.14,979.55,1507.88Zm-200.08,5a2.22,2.22,0,0,0,1-.35c9.25-5.92,18.81-14.36,24.11-19.28h0l.39-.29a2.82,2.82,0,0,0,.36-.33l.35-.41.1-.1c1.7-1.6,2.76-2.65,2.93-2.82l27.13-30.56a6,6,0,0,1,1.31-1.11h0a6.19,6.19,0,0,1,7.9,9.36l-8.32,9.42-.89,1-2.14,2.42-.25.28L831.9,1482a6,6,0,0,0,2.91,9.75c.52.14,1,.27,1.55.39a35.14,35.14,0,0,0,4.42.74c.43.05.85.09,1.28.12l.29,0,.87,0h.09c.48,0,1,0,1.45,0a35.74,35.74,0,0,0,3.58-.17c1.18-.11,2.44-.24,3.77-.39h0l1.4-.16h.13l1.68-.2,1.88-.23,1.38-.18c1.88-.26,3.84-.54,5.86-.86h0c5.82-.91,12.13-2.11,18.38-3.68a4.82,4.82,0,0,1,5.34,1.72,3.12,3.12,0,0,1-.16,3.61l-34.89,20.58a36.27,36.27,0,0,1-22.12,4.82h0c-.72-.07-1.43-.17-2.14-.29l-8.13-1.65a2.2,2.2,0,0,0-1.89.48,1.85,1.85,0,0,0-.28.28c-.18.22-16.92,20.12-33.4,30.07l0,0c-1.22.74-2.44,1.42-3.65,2l0-.4-2-30-.15-2.31-.15-2.3-.06-.9Zm1.45,47.47a2.26,2.26,0,0,0,1.17-2.12l-.3-4.56.08-.06h0c16.32-7.55,33.8-26.75,38.77-32.44a53.82,53.82,0,0,0,10.22,1.21h0a40.7,40.7,0,0,0,24.54-5.45l35.3-20.81a2.1,2.1,0,0,0,.63-.56,7.68,7.68,0,0,0,.6-9.12,8.44,8.44,0,0,0-3.94-3.21l45.32-14.69,1.34-.43q2.79,3.6,5.75,7a161.34,161.34,0,0,0,30.9,27.49v119a19.28,19.28,0,0,0,5.76,13.76L767.4,1583.35A18.11,18.11,0,0,1,755,1572.9C769.65,1566.45,779.44,1561.19,780.92,1560.38Zm514.25,155.5c0,18.29-15.3,33.17-34.11,33.17H741.8c0-9.17-.14-18.19-.35-27H1247a20.11,20.11,0,0,0,20.31-19.85V1641h27.84Zm0-79.36h-27.84v-76.28l27.84.08ZM1292,1086a37,37,0,0,0-3-3.42,38.9,38.9,0,0,0-28-11.78H1134.59a2.24,2.24,0,1,0,0,4.48h126.47a34.44,34.44,0,0,1,25.1,10.74,31.42,31.42,0,0,1,2.9,3.51,32.32,32.32,0,0,1,6.11,18.92v447.41l-27.84-.08v-92.89a2.24,2.24,0,1,0-4.47,0v92.88l-198.59-.6A23.39,23.39,0,0,1,1041,1531.6v-2.26a160.9,160.9,0,0,0,71.25-6.38c54.27-17.58,94.53-61.33,107.71-117a.43.43,0,0,0,0-.11.13.13,0,0,0,0-.06,2,2,0,0,0,0-.35,1.23,1.23,0,0,0,0-.27.63.63,0,0,0,0-.19.9.9,0,0,0-.06-.22,2,2,0,0,0-.08-.22,2.68,2.68,0,0,0-.18-.33.61.61,0,0,0-.12-.16,1.38,1.38,0,0,0-.23-.26l-15.66-15.69a2.22,2.22,0,0,0-2.27-.55l-132.43,42.52-27.32-14,.67-121.39,2.56-5,111.91-36.26,10.85-3.51h0a2.4,2.4,0,0,0,.46-.21,2.23,2.23,0,0,0,.5-.42,2,2,0,0,0,.29-.4,2.1,2.1,0,0,0,.25-.66h0a.76.76,0,0,0,0-.21,1.41,1.41,0,0,0,0-.41.28.28,0,0,0,0-.09l0-.2a2.08,2.08,0,0,0-.16-.48,1.5,1.5,0,0,0-.19-.32,1.68,1.68,0,0,0-.24-.29.8.8,0,0,0-.13-.13,164.59,164.59,0,0,0-15.94-12.2l-1.8-1.2a161.58,161.58,0,0,0-25.42-13.59,195.8,195.8,0,0,0-82.42-21.83c-1.5,0-3-.07-4.47-.08h-.61a128.45,128.45,0,0,0-39.34,5.71q-6.74,2.19-13.18,5c-.75.3-1.5.63-2.24,1s-1.49.66-2.23,1c-1.67.77-3.31,1.57-4.94,2.39l-2.24,1.16c-.75.4-1.5.8-2.24,1.21a158,158,0,0,0-81.84,134.39,2.26,2.26,0,0,1-1.55,2.08l-82.38,26.69-3.28,1.06h0l-3.3,1.08-45.33,14.68-2.24.73-2.23.72-18.52,6-8.77,2.84-11.63,3.77-95.08,30.8-4.65,1.51a2.26,2.26,0,0,0-1.92-.46,2.19,2.19,0,0,0-1.67,1.62,2.07,2.07,0,0,0,0,1c1,4.32,2.11,9,3.41,14,.19.72.38,1.44.58,2.17s.39,1.44.59,2.16q1.11,4.08,2.34,8.27c8,27.24,19.46,56.48,29.73,61.31a82,82,0,0,0,19.5,6.24c1.52.29,3.05.54,4.59.76,1.69.24,3.39.44,5.09.59a137.19,137.19,0,0,0,35.53-1.82,201.34,201.34,0,0,0,21.82-5.07c.78-.23,1.56-.45,2.32-.69l.75-.23q.78-.22,1.56-.48c5.14-1.6,10-3.31,14.46-5,.76-.28,1.5-.56,2.23-.85l2.24-.88c1.2-.48,2.36-1,3.48-1.43,3.65-1.52,6.92-3,9.72-4.28l.45-.21h0c3.09-1.44,5.58-2.68,7.37-3.6l.06.86,0,.33.15,2.31.15,2.3,2.09,31.74.17,2.7.18,2.72-.12.1-.27.22-2.82,1.44h0c-4.28,2.17-11.42,5.65-20.5,9.62l-2.13.92-2.11.9c-4.55,1.94-9.5,4-14.76,6l-1.7.64a4.68,4.68,0,0,1-.48.18l-2.18.82c-39.84,14.7-94.92,27.92-127.6,5.41a53.58,53.58,0,0,1-6.68-5.41c-.61-.57-1.21-1.17-1.78-1.78s-1.13-1.19-1.68-1.81c-.89-1-1.75-2.08-2.59-3.19-.7-.93-1.4-1.86-2.08-2.78-.48-.63-.94-1.25-1.4-1.88l-1.39-1.88c-17.44-23.69-30.61-44.83-39.64-63.66-2.1-5.14-4.16-10.54-6-16.09-.25-.7-.49-1.41-.72-2.12s-.47-1.42-.69-2.13c-1.56-4.87-3-9.83-4.14-14.81-.17-.73-.34-1.46-.5-2.19s-.32-1.47-.48-2.2a123.21,123.21,0,0,1-2.72-22.59c0-1.08,0-2.15,0-3.21a.21.21,0,0,1,0-.11c.7-56.05,46.68-86.18,47.23-86.54A151.32,151.32,0,0,1,599.15,1337a53.17,53.17,0,0,1,10.73,7.06c8.71,7.82,18.51,24.65,18.11,60.74h-3.66a8.53,8.53,0,0,0-8.52,8.43s-.06,8-.48,21.38l92-29.81H645.53c.32-33.45-7.6-57.41-23.2-71.73a40.73,40.73,0,0,0-4.28-3.45c4.35-1.42,9-2.72,13.77-3.83.93-.22,1.87-.42,2.81-.61l-4.27,6.73a2.28,2.28,0,0,0-.26,1.8,2.24,2.24,0,0,0,1.14,1.4,102.31,102.31,0,0,0,44.55,11l10.91.17h0a2.23,2.23,0,0,0,2.19-1.82l4-20.68q4.38.63,8.81,1.47a119.42,119.42,0,0,1,19,5.26c3.63,11.39,4.91,33.12-8.65,72.71l20-6.47c8.36-30.62,8.78-48,6.57-58q5.37,3,10.49,6.53c.75.52,1.49,1,2.23,1.59s1.5,1.09,2.24,1.65c2.85,2.15,5.63,4.44,8.33,6.84A150,150,0,0,0,793.08,1377l3.1-1,3.05-1c-13.51-6.21-25.19-14.9-34.28-23a138.44,138.44,0,0,0-11.31-9.06V1227.59c9.13-4.56,14.76-10.18,16.78-16.76a17,17,0,0,0-3.62-16.18c-3-3.31-7-4.72-10.92-3.88l-2.24.48v-116h1.3a2.24,2.24,0,0,0,0-4.48h-1.3V469.35a3.77,3.77,0,0,1,1.45-3,4.13,4.13,0,0,1,1.65-.79,2.74,2.74,0,0,0,.92.46L973,527.4a2.1,2.1,0,0,0,.61.09h.8a19.11,19.11,0,0,0-3,10.38V976.06H800.91a20.71,20.71,0,0,0-20.66,20.71v146.62a20.71,20.71,0,0,0,20.66,20.71h31.76l-1.06,44a2.24,2.24,0,0,0,1.33,2.1,2.22,2.22,0,0,0,.91.19,2.26,2.26,0,0,0,1.54-.61l48.48-45.65h87.46v45.34c.74-.39,1.49-.78,2.24-1.15s1.49-.76,2.24-1.12V1164.1h5.11l-.16,40.74,2.24-1c.74-.32,1.49-.64,2.24-.94l.16-38.82h53.13l-.15,28.39q2.23,0,4.47.06l.16-28.45h44.87a20.71,20.71,0,0,0,20.66-20.71V996.77a20.71,20.71,0,0,0-20.66-20.71H1044l1.09-198.87a23.4,23.4,0,0,1,23.35-23.29h.15l701.28,4.17a23.37,23.37,0,0,1,23.21,23.61l-2.89,350.64c-32.25,3.6-59.41,7.29-75.71,9.62l-35.15-35.06-14-13.94q2.7-5.79,4.91-11.72a169.47,169.47,0,0,0-38.84-179.33A167.15,167.15,0,0,0,1472,857.67a2.23,2.23,0,0,0-1,3.75l.81.81L1465.47,882l47.12,47.25,0,0,53.77,53.92.1,44.68V1034l.09,41.53-22.86.06h0l-6.48,0-89.29.24-49.33-49.21-3.9-3.89L1357,985.1l-1.82-1.82-1.75-1.75-.86-.85a2.24,2.24,0,0,0-3.76,1.06c-.12.49-.24,1-.34,1.48-.21.85-.4,1.69-.57,2.54s-.38,1.75-.55,2.63q-1.53,7.58-2.36,15.16a174,174,0,0,0-3,37.09c0,1.64.1,3.28.18,4.93h0a209.55,209.55,0,0,0,8.25,48.94c.44,1.48.89,2.94,1.36,4.4,6.83,21.38,17.14,41.22,30.64,56.78.49.57,1,1.13,1.48,1.68s1,1.13,1.54,1.68c.9,1,1.82,1.91,2.75,2.84a167.14,167.14,0,0,0,21,17.75q4.46,3.19,9.07,6l0,0c3.13,1.93,6.31,3.76,9.54,5.46a165.7,165.7,0,0,0,69.2,19c3.26.17,6.54.24,9.8.21h.34l4.17-.09c1.34,0,2.68-.12,4-.2a165.8,165.8,0,0,0,62.49-16.26l1.94,1.93,4.2,4.2,36.19,36.1,3.09,3.07h0l4.29,4.29,1.81,1.8,41.5,41.4,72.43,72.25-14.13,77.63a2.23,2.23,0,0,0,1.87,2.61l13.61,2c-8.76,43.41-9.82,81.82-5.73,116l-439.31-1.32V1108.43A36.85,36.85,0,0,0,1292,1086Zm7.63,550.54v-76.19l439.88,1.31a307.55,307.55,0,0,0,19.83,74.88Zm521.24-188.41-28.75-4.32-4.48-.67-41.65-6.25-12-1.8,13.16-72.32,40.8,40.7,4.44,4.43,28.69,28.61,3.29,3.28,10.45,10.43Zm32.49-11.78-6.77-6.75-53.91-53.77-4.45-4.44-36.08-36-1.92-1.92-1.93-1.92-69-68.85-9.81-9.79-3.07-3.05h0l-3.07-3.07-28.42-28.35-2-2-2-2-36.75-36.66-2-1.94-2-1.95-3.75-3.74a2.25,2.25,0,0,0-2.55-.43h0c-1.44.69-2.88,1.37-4.33,2a163,163,0,0,1-63.44,14.27c-1.48,0-3,0-4.45,0s-3,0-4.51-.09h0a164.16,164.16,0,0,1-70.68-18.64c-1.1-.58-2.2-1.17-3.29-1.77q-2.07-1.15-4.12-2.36h0q-6.27-3.7-12.25-8-2-1.45-4-3c-1-.78-2-1.58-3-2.4a161.08,161.08,0,0,1-12.89-11.56,165.62,165.62,0,0,1-32.79-46.35c-.63-1.33-1.24-2.67-1.83-4a162.75,162.75,0,0,1-12.62-46c-.19-1.56-.36-3.13-.5-4.7a166,166,0,0,1,3.12-50.42l8.4,8.38,28.69,28.61,3.81,3.81,52.25,52.11a2.35,2.35,0,0,0,1.59.66l94.34-.26h6.26l21.21-.06a2.23,2.23,0,0,0,2.23-2.24l-.09-39.35v-6.31l-.1-44.4L1570.8,959V955.6a2.23,2.23,0,0,0-.65-1.58L1477,861.1l.24-.05a162.65,162.65,0,0,1,151.09,44,165,165,0,0,1,41.75,162.74c-.71,2.46-1.49,4.92-2.32,7.36a165.49,165.49,0,0,1-7.06,17.29,2.24,2.24,0,0,0,.44,2.55l2,2,18.7,18.65,27.17,27.1,2,2,2,2,6.13,6.11,2,2,2,2,59.31,59.16,4.59,4.58,2.61,2.6,2,2,2.47,2.46,68.31,68.14,2.24,2.24,2.24,2.23,117.41,117.12,2,2c-.07.43-.14.86-.22,1.29-1.07,1.86-2.18,3.71-3.32,5.53-.11.16-.21.32-.31.48a130.23,130.23,0,0,1-18.19,22.64,118.94,118.94,0,0,1-22,17.16c-1,.62-2,1.22-3.08,1.8s-2.15,1.2-3.25,1.78c-.59.31-1.18.62-1.78.92-4-.43-23.68-2.07-42,4.07l-3.28-3.27-10.36-10.33-2.67-2.67-2.67-2.66-6.31-6.29-2.24-2.24-2.24-2.23Zm48.82,557.53,1,15.94-32.3,8.7-7.65-24.45Zm5.71,19.31,1.06-.28,8.69,46a19.42,19.42,0,0,1-18.89,16.94c-104.79,1.61-145-4.71-147.57-10.62a9.65,9.65,0,0,1,.37-8.41c5.46-11.66,27.63-23.75,50.74-33.63a2,2,0,0,0,0,.55l1.32,13.54a2.25,2.25,0,0,0,2.23,2h.22a2.24,2.24,0,0,0,2-2.45l-1.32-13.53a2.17,2.17,0,0,0-.92-1.6c6.48-2.7,13-5.22,19.13-7.49l4.26,22.89a2.24,2.24,0,0,0,2.2,1.82,2.83,2.83,0,0,0,.41,0,2.24,2.24,0,0,0,1.79-2.61l-4.31-23.16a1.73,1.73,0,0,0-.14-.44c14.53-5.25,26.61-9,31.29-10.4l6.4,19.81a2.21,2.21,0,0,0,1,1.25,2.26,2.26,0,0,0,1.7.22l4.81-1.29h0l6.62-1.79,22.48-6.06,2.21-.59Zm6.88-515.58c-1.25-.2-2.5-.39-3.74-.56s-2.45-.34-3.66-.49c-4.94-.62-9.75-1.06-14.22-1.37-5.15-.35-9.85-.53-13.84-.61-3.5-.07-6.44-.07-8.63,0a36.5,36.5,0,0,1,4-4.54,47.23,47.23,0,0,1,15.58-9.63l.61-.24c.77-.29,1.55-.57,2.33-.84s1.6-.52,2.41-.76c18.53-5.51,38.12-3.24,38.42-3.2a2.25,2.25,0,0,0,1.28-.22q3.89-1.93,7.6-4.13c1-.59,2-1.2,3-1.82s1.9-1.21,2.84-1.84a124.34,124.34,0,0,0,15.43-12.15,131.76,131.76,0,0,0,15.9-17.67c1.15-1.54,2.29-3.12,3.39-4.72.71-1,1.4-2,2.08-3.1l1.18-1.85c1-1.63,2-3.28,3-5,.39-.67.77-1.34,1.15-2s.75-1.36,1.12-2c8.36-15.51,14.63-33.36,18.66-53.3a276.2,276.2,0,0,0,4.54-72.2c-.09-1.1-.15-1.7-.16-1.74a1.94,1.94,0,0,0-.13-.54l81.93-30.3c.1.53.19,1,.29,1.57,18.43,100.88-18.68,159.86-53.19,191.63q-4.44,4.08-9,7.75c-.58.48-1.17.95-1.75,1.41s-1.19.94-1.78,1.39q-2.61,2-5.23,3.92a190.15,190.15,0,0,1-62.63,29.82c-15,3.88-26.59,4.48-31.7,3.08A162.32,162.32,0,0,0,1914.79,1497.59Zm5.55,5.54c3.5.7,7,1.5,10.38,2.44a31.51,31.51,0,0,0,8.12.88,103.9,103.9,0,0,0,24.53-3.62c19.26-4.89,43.41-15,66.12-31.38q2.6-1.86,5.15-3.84l13.66,13.62a53,53,0,0,1-37.17,90.57H2011a52.49,52.49,0,0,1-37.29-15.44l-13.8-13.77Zm101.34,428.52L2052.2,1898c4.31,5.32,12.65,17.5,21,30.15L2055,1965.86l-9.72-4.12Zm90.93,49.24c-63,75.19-92.06,99.81-97.68,98a8.89,8.89,0,0,1-5.6-5.3c-4.88-10.92.12-33.9,7.26-56.25l.23.18,10.36,7.35a2.21,2.21,0,0,0,1.29.42,2.24,2.24,0,0,0,1.3-4.07l-10.36-7.35a2.25,2.25,0,0,0-1.55-.4c2-6.11,4.17-12.11,6.29-17.74l18.59,10.9a2.33,2.33,0,0,0,1.13.3,2.24,2.24,0,0,0,1.14-4.17l-19-11.12-.28-.14c5.12-13.3,9.81-24,11.71-28.27l5,2.13,4.27,1.81L2051,1969l4.2,1.78a2.24,2.24,0,0,0,2.89-1.09l18-37.18,1.13-2.34,1.14-2.36,2.32-4.79,31.36,34A18.07,18.07,0,0,1,2112.61,1980.89Z"
            transform="translate(-312.83 -311.15)" style="fill:#ffffff" />
        <path
            d="M2105.63,1958.57l-89,105.31a2.25,2.25,0,0,0,1.71,3.69,2.21,2.21,0,0,0,1.71-.8l89-105.32a2.23,2.23,0,1,0-3.41-2.88Z"
            transform="translate(-312.83 -311.15)" style="fill:#ffffff" />
        <path
            d="M1762.47,2058.38a2.24,2.24,0,0,0,2.24,2.21h0l147.19-1.62a2.25,2.25,0,0,0,2.22-2.27,2.33,2.33,0,0,0-2.27-2.21l-147.19,1.63A2.24,2.24,0,0,0,1762.47,2058.38Z"
            transform="translate(-312.83 -311.15)" style="fill:#ffffff" />
        <path
            d="M349.32,1150.63a2.24,2.24,0,0,0-1.93-1.13h0a2.25,2.25,0,0,0-2.24,2.24l-.9,334.71a2.23,2.23,0,0,0,2.23,2.24h0a2.25,2.25,0,0,0,2.24-2.23l.6-223.14.3-111.57A2.23,2.23,0,0,0,349.32,1150.63Z"
            transform="translate(-312.83 -311.15)" style="fill:#ffffff" />
        <path
            d="M347.38,1124.34a2.24,2.24,0,0,0,2.24-2.24,15.63,15.63,0,0,1,15.84-15.37l244.34-.83a2.24,2.24,0,0,0,0-4.48h0l-244.33.84a20.35,20.35,0,0,0-2.36.14,20,20,0,0,0-17.95,19.7A2.24,2.24,0,0,0,347.38,1124.34Z"
            transform="translate(-312.83 -311.15)" style="fill:#ffffff" />
        <path
            d="M1170.31,1105.9l49.55.13h4.84l19.81,0a19.86,19.86,0,0,1,19.21,14.3,19.88,19.88,0,0,1,.79,5.88l0,3v.1l-1.6,105a2.23,2.23,0,0,0,2.2,2.27h0a2.23,2.23,0,0,0,2.23-2.2l1.65-108.16a24.37,24.37,0,0,0-.52-5.42,23.74,23.74,0,0,0-2-5.8,24.34,24.34,0,0,0-21.73-13.5h-.23l-17.86-.05h-4.89l-51.42-.15a2.17,2.17,0,0,0-2.24,2.23A2.25,2.25,0,0,0,1170.31,1105.9Z"
            transform="translate(-312.83 -311.15)" style="fill:#ffffff" />
        <path
            d="M856.07,1108q6.91,3.36,16.88,3.37a39.81,39.81,0,0,0,15.21-2.81,23.34,23.34,0,0,0,11-9.16q4.11-6.35,4.11-16.69v-2.37q0-10-4.05-15.95a22.49,22.49,0,0,0-11-8.6,43.67,43.67,0,0,0-15.52-2.62h-8.1l1.25-16.7h27.29a4.5,4.5,0,0,0,4.24-2.67,13.09,13.09,0,0,0,0-11.66,4.5,4.5,0,0,0-4.24-2.61H853.39a2.6,2.6,0,0,0-2.43,1.56,12.16,12.16,0,0,0-1.06,4.42l-3.36,31.4c-.09.67-.15,1.27-.19,1.81s-.06,1.14-.06,1.8a8.73,8.73,0,0,0,1.62,5.55c1.07,1.37,3,2.06,5.85,2.06H872.7a10.91,10.91,0,0,1,8.1,3q3,3,3,9.22v2.37c0,4.07-1,7-3,8.91s-4.77,2.8-8.35,2.8a16.53,16.53,0,0,1-5.48-.87,8.83,8.83,0,0,1-3.92-2.56,6.18,6.18,0,0,1-1.44-4.17,8,8,0,0,0-1.68-5.11q-1.68-2.12-8-2.12a12.61,12.61,0,0,0-7.16,1.74c-1.71,1.17-2.56,3.45-2.56,6.86a20,20,0,0,0,3.49,11.15A25.34,25.34,0,0,0,856.07,1108Z"
            transform="translate(-312.83 -311.15)" style="fill:#ffffff" />
        <path
            d="M925.23,1108.5a40.18,40.18,0,0,0,15.51,2.87,40.71,40.71,0,0,0,15.58-2.87,23.11,23.11,0,0,0,11-9.35q4-6.47,4-17.19v-33q0-10.73-4-17.2a23.17,23.17,0,0,0-11-9.35,40.71,40.71,0,0,0-15.58-2.86,40.17,40.17,0,0,0-15.51,2.86,23.17,23.17,0,0,0-11,9.35q-4.05,6.48-4,17.2v33q0,10.71,4,17.19A23.11,23.11,0,0,0,925.23,1108.5Zm4.42-59.56q0-6.48,2.93-9.47t8.16-3q5.24,0,8.22,3t3,9.47v33q0,6.48-3,9.47t-8.22,3q-5.24,0-8.16-3t-2.93-9.47Z"
            transform="translate(-312.83 -311.15)" style="fill:#ffffff" />
        <path
            d="M996,1108.5a40.18,40.18,0,0,0,15.51,2.87,40.71,40.71,0,0,0,15.58-2.87,23,23,0,0,0,11-9.35q4.05-6.47,4.05-17.19v-33q0-10.73-4.05-17.2a23.1,23.1,0,0,0-11-9.35,40.71,40.71,0,0,0-15.58-2.86,40.17,40.17,0,0,0-15.51,2.86,23.17,23.17,0,0,0-11,9.35q-4,6.48-4,17.2v33q0,10.71,4,17.19A23.11,23.11,0,0,0,996,1108.5Zm4.42-59.56q0-6.48,2.93-9.47t8.16-3q5.24,0,8.22,3t3,9.47v33q0,6.48-3,9.47t-8.22,3q-5.24,0-8.16-3t-2.93-9.47Z"
            transform="translate(-312.83 -311.15)" style="fill:#ffffff" />
    </g>
</svg>