<svg id="Layer_1" data-name="Layer 1" xmlns="http://www.w3.org/2000/svg" viewBox="0 0 1450 605.79"><path d="M1444.45,132.58H1013.1v-92A38.51,38.51,0,0,0,974.64,2.11H541.18a38.5,38.5,0,0,0-38.46,38.46v92H71.37a38.5,38.5,0,0,0-38.46,38.47V439a38.5,38.5,0,0,0,38.46,38.47H502.72v92a38.5,38.5,0,0,0,38.46,38.46H974.64a38.51,38.51,0,0,0,38.46-38.46v-92h431.35A38.5,38.5,0,0,0,1482.91,439V171.05A38.5,38.5,0,0,0,1444.45,132.58ZM1464.27,439a19.82,19.82,0,0,1-19.82,19.83h-450V569.43a19.83,19.83,0,0,1-19.82,19.83H541.18a19.82,19.82,0,0,1-19.82-19.83V458.78h-450A19.82,19.82,0,0,1,51.55,439V171.05a19.82,19.82,0,0,1,19.82-19.83h450V40.57a19.82,19.82,0,0,1,19.82-19.83H974.64a19.83,19.83,0,0,1,19.82,19.83V151.22h450a19.82,19.82,0,0,1,19.82,19.83Z" transform="translate(-32.91 -2.11)" style="fill:#121c30"/></svg>