<svg xmlns="http://www.w3.org/2000/svg" viewBox="0 0 335.3 340"><g id="Illustration"><path d="M178.45,80.77,177,10.33C177,4.7,171.88,0,166.24,0a10.54,10.54,0,0,0-10.33,10.8l1.41,70.91a10.76,10.76,0,0,0,10.8,9.86C174.23,91.57,178.45,86.88,178.45,80.77Z" transform="translate(-2.35)" style="fill:#2d4c96"/><path d="M171.41,248a11.13,11.13,0,0,0-9.86,10.8L163,329.67A10.42,10.42,0,0,0,173.29,340a10.54,10.54,0,0,0,10.33-10.8l-1.41-70.91A10.53,10.53,0,0,0,171.41,248Z" transform="translate(-2.35)" style="fill:#2d4c96"/><path d="M82.65,160.61h-70A10.41,10.41,0,0,0,2.35,170.94a10.53,10.53,0,0,0,10.33,10.8l70-.47a10.33,10.33,0,0,0,0-20.66Z" transform="translate(-2.35)" style="fill:#2d4c96"/><path d="M327.32,158.73l-70,.47a10.33,10.33,0,0,0,0,20.66l70-.47a10.33,10.33,0,0,0,0-20.66Z" transform="translate(-2.35)" style="fill:#2d4c96"/></g></svg>